<?xml version="1.0" encoding="UTF-8"?>
<!DOCTYPE svg PUBLIC "-//W3C//DTD SVG 1.1//EN" "http://www.w3.org/Graphics/SVG/1.1/DTD/svg11.dtd">
<svg xmlns="http://www.w3.org/2000/svg" version="1.1" width="1398px" height="1398px" style="shape-rendering:geometricPrecision; text-rendering:geometricPrecision; image-rendering:optimizeQuality; fill-rule:evenodd; clip-rule:evenodd" xmlns:xlink="http://www.w3.org/1999/xlink">
<g><path style="opacity:0.914" fill="#5a0101" d="M 909.5,2.5 C 906.254,8.41821 902.587,14.0849 898.5,19.5C 721.467,82.2999 561.8,173.8 419.5,294C 402.661,309.673 386.327,325.84 370.5,342.5C 353.2,360.636 336.033,378.969 319,397.5C 312.5,404.52 307,412.187 302.5,420.5C 275.741,454.658 254.075,491.991 237.5,532.5C 227.672,556.426 222.005,581.426 220.5,607.5C 215.089,668.976 237.089,717.976 286.5,754.5C 331.268,785.712 380.935,804.878 435.5,812C 513.008,822.013 590.174,819.846 667,805.5C 677.596,785.067 686.263,763.733 693,741.5C 695.559,738.651 698.726,737.817 702.5,739C 758.024,785.031 813.357,831.198 868.5,877.5C 868.5,879.167 868.5,880.833 868.5,882.5C 867.094,885.414 865.094,887.914 862.5,890C 817.373,916.144 773.039,943.477 729.5,972C 718.833,978 708.167,984 697.5,990C 667.859,1009.49 637.859,1028.32 607.5,1046.5C 604.014,1045.85 602.847,1043.85 604,1040.5C 608.995,1029.68 613.495,1018.68 617.5,1007.5C 622.72,999.561 627.054,991.061 630.5,982C 630.355,981.228 630.022,980.561 629.5,980C 618.833,979.333 608.167,979.333 597.5,980C 485.845,991.468 375.512,983.801 266.5,957C 213.699,943.042 165.366,920.208 121.5,888.5C 42.6168,828.679 11.4501,749.679 28,651.5C 36.6028,604.683 53.2694,561.016 78,520.5C 99.9624,484.868 124.629,451.201 152,419.5C 220.957,345.161 298.123,281.328 383.5,228C 472.671,171.413 566.671,123.746 665.5,85C 720.296,65.0682 775.296,45.7349 830.5,27C 856.639,18.1199 882.972,9.95327 909.5,2.5 Z"/></g>
<g><path style="opacity:0.916" fill="#150000" d="M 909.5,2.5 C 920.598,9.74375 930.598,18.4104 939.5,28.5C 936.452,34.6174 932.452,39.9507 927.5,44.5C 920.395,37.8967 913.395,31.0633 906.5,24C 904.18,21.8383 901.513,20.3383 898.5,19.5C 902.587,14.0849 906.254,8.41821 909.5,2.5 Z"/></g>
<g><path style="opacity:0.982" fill="#0b0000" d="M 898.5,19.5 C 901.513,20.3383 904.18,21.8383 906.5,24C 913.395,31.0633 920.395,37.8967 927.5,44.5C 926.657,46.1733 925.324,47.34 923.5,48C 771.423,102.357 631.423,177.69 503.5,274C 484.46,290.709 465.127,307.042 445.5,323C 430.577,337.762 415.244,351.929 399.5,365.5C 396.067,363.583 392.734,361.416 389.5,359C 383.061,353.548 376.727,348.048 370.5,342.5C 386.327,325.84 402.661,309.673 419.5,294C 561.8,173.8 721.467,82.2999 898.5,19.5 Z"/></g>
<g><path style="opacity:1" fill="#650101" d="M 739.5,82.5 C 737.891,76.6153 735.224,71.2819 731.5,66.5C 751.323,59.5384 771.323,52.8717 791.5,46.5C 793.611,49.2081 795.611,52.0414 797.5,55C 778.296,64.3528 758.963,73.5195 739.5,82.5 Z"/></g>
<g><path style="opacity:1" fill="#710101" d="M 731.5,66.5 C 735.224,71.2819 737.891,76.6153 739.5,82.5C 724.553,89.6391 709.553,96.8058 694.5,104C 678.459,113.354 662.125,122.188 645.5,130.5C 641.934,123.036 638.101,115.703 634,108.5C 633.241,106.937 632.074,105.937 630.5,105.5C 640.771,100.011 651.437,95.1777 662.5,91C 685.876,83.7094 708.876,75.5427 731.5,66.5 Z"/></g>
<g><path style="opacity:1" fill="#7d0101" d="M 630.5,105.5 C 632.074,105.937 633.241,106.937 634,108.5C 638.101,115.703 641.934,123.036 645.5,130.5C 626.167,142.167 606.833,153.833 587.5,165.5C 582.453,154.404 577.119,143.404 571.5,132.5C 571.043,131.702 570.376,131.369 569.5,131.5C 589.459,122.022 609.792,113.356 630.5,105.5 Z"/></g>
<g><path style="opacity:1" fill="#8a0101" d="M 569.5,131.5 C 570.376,131.369 571.043,131.702 571.5,132.5C 577.119,143.404 582.453,154.404 587.5,165.5C 558.462,183.015 530.462,202.015 503.5,222.5C 495.673,207.508 487.339,192.842 478.5,178.5C 485.397,173.467 492.731,168.967 500.5,165C 523.767,154.367 546.767,143.2 569.5,131.5 Z"/></g>
<g><path style="opacity:1" fill="#980101" d="M 478.5,178.5 C 487.339,192.842 495.673,207.508 503.5,222.5C 483.315,236.015 463.982,250.682 445.5,266.5C 436.827,250.977 428.327,235.31 420,219.5C 418.933,217.308 417.433,215.642 415.5,214.5C 435.465,200.909 456.465,188.909 478.5,178.5 Z"/></g>
<g><path style="opacity:1" fill="#a40101" d="M 415.5,214.5 C 417.433,215.642 418.933,217.308 420,219.5C 428.327,235.31 436.827,250.977 445.5,266.5C 436.819,274.512 427.819,282.179 418.5,289.5C 408.584,273.342 399.417,256.675 391,239.5C 389.594,236.591 387.428,234.591 384.5,233.5C 394.296,226.428 404.63,220.095 415.5,214.5 Z"/></g>
<g><path style="opacity:1" fill="#a80101" d="M 384.5,233.5 C 387.428,234.591 389.594,236.591 391,239.5C 399.417,256.675 408.584,273.342 418.5,289.5C 412.86,294.805 407.193,300.139 401.5,305.5C 390.679,285.86 379.846,266.194 369,246.5C 368.329,245.748 367.496,245.414 366.5,245.5C 372.205,241.141 378.205,237.141 384.5,233.5 Z"/></g>
<g><path style="opacity:1" fill="#ad0101" d="M 366.5,245.5 C 367.496,245.414 368.329,245.748 369,246.5C 379.846,266.194 390.679,285.86 401.5,305.5C 388.496,318.504 375.162,331.171 361.5,343.5C 349.34,320.51 336.674,297.844 323.5,275.5C 337.258,264.754 351.591,254.754 366.5,245.5 Z"/></g>
<g><path style="opacity:1" fill="#bb0102" d="M 323.5,275.5 C 336.674,297.844 349.34,320.51 361.5,343.5C 343.177,365.155 324.51,386.488 305.5,407.5C 290.5,379.5 275.5,351.5 260.5,323.5C 280.562,306.298 301.562,290.298 323.5,275.5 Z"/></g>
<g><path style="opacity:1" fill="#c50102" d="M 260.5,323.5 C 275.5,351.5 290.5,379.5 305.5,407.5C 295.646,422.555 285.313,437.221 274.5,451.5C 256.659,420.488 239.326,389.155 222.5,357.5C 234.372,345.238 247.039,333.905 260.5,323.5 Z"/></g>
<g><path style="opacity:0.93" fill="#590001" d="M 755.5,341.5 C 754.601,347.306 753.101,352.973 751,358.5C 743.249,375.43 736.915,392.764 732,410.5C 732.804,411.804 733.971,412.471 735.5,412.5C 748.113,409.842 760.779,407.842 773.5,406.5C 875.383,394.267 976.717,397.767 1077.5,417C 1141.12,430.657 1199.46,455.99 1252.5,493C 1275.85,511.85 1295.85,533.683 1312.5,558.5C 1337.97,601.725 1348.3,648.392 1343.5,698.5C 1339.81,733.944 1330.81,767.944 1316.5,800.5C 1311.89,811.715 1306.73,822.715 1301,833.5C 1293.75,845.671 1286.75,858.004 1280,870.5C 1265.95,889.712 1252.11,909.046 1238.5,928.5C 1215.91,954.765 1192.57,980.432 1168.5,1005.5C 1163.23,1009.1 1158.56,1013.44 1154.5,1018.5C 1147.89,1023.44 1141.89,1029.11 1136.5,1035.5C 956.227,1187.66 751.227,1294.82 521.5,1357C 516.856,1358.03 512.19,1358.86 507.5,1359.5C 506.402,1358.4 506.235,1357.07 507,1355.5C 643.009,1301.28 769.176,1230.78 885.5,1144C 936.361,1103.42 984.194,1059.25 1029,1011.5C 1043,994.167 1057,976.833 1071,959.5C 1089.08,929.666 1107.42,899.999 1126,870.5C 1134.66,848.865 1142.32,826.865 1149,804.5C 1150.67,792.833 1152.33,781.167 1154,769.5C 1156.74,734.138 1149.24,701.138 1131.5,670.5C 1122.32,653.803 1110.32,639.303 1095.5,627C 1058.73,598.837 1017.4,580.503 971.5,572C 931.072,564.053 890.239,560.553 849,561.5C 824.81,561.654 800.643,562.487 776.5,564C 750.159,567.501 723.826,571.001 697.5,574.5C 688.794,596.943 680.461,619.61 672.5,642.5C 669.107,642.938 666.107,642.105 663.5,640C 610.56,597.215 557.227,555.048 503.5,513.5C 498.709,510.138 498.376,506.305 502.5,502C 586.412,447.792 670.579,393.959 755,340.5C 755.399,340.728 755.565,341.062 755.5,341.5 Z"/></g>
<g><path style="opacity:0.977" fill="#150000" d="M 370.5,342.5 C 376.727,348.048 383.061,353.548 389.5,359C 392.734,361.416 396.067,363.583 399.5,365.5C 376.471,392.192 353.471,418.859 330.5,445.5C 322.489,439.819 314.823,433.653 307.5,427C 305.21,425.223 303.543,423.056 302.5,420.5C 307,412.187 312.5,404.52 319,397.5C 336.033,378.969 353.2,360.636 370.5,342.5 Z"/></g>
<g><path style="opacity:0.992" fill="#210000" d="M 755.5,341.5 C 764.901,351.743 773.401,362.743 781,374.5C 781.667,377.5 781.667,380.5 781,383.5C 777.998,391.007 775.498,398.674 773.5,406.5C 760.779,407.842 748.113,409.842 735.5,412.5C 733.971,412.471 732.804,411.804 732,410.5C 736.915,392.764 743.249,375.43 751,358.5C 753.101,352.973 754.601,347.306 755.5,341.5 Z"/></g>
<g><path style="opacity:1" fill="#e20102" d="M 810.5,408.5 C 839.737,457.967 868.737,507.634 897.5,557.5C 865.802,555.867 834.135,556.201 802.5,558.5C 803.952,557.698 805.618,557.198 807.5,557C 776.288,504.079 745.455,450.912 715,397.5C 711.337,391.679 707.503,386.012 703.5,380.5C 718.021,370.981 732.521,361.314 747,351.5C 741.688,369.094 735.354,386.427 728,403.5C 727.239,407.337 727.739,411.004 729.5,414.5C 731.775,415.107 734.109,415.441 736.5,415.5C 761.111,412.505 785.777,410.171 810.5,408.5 Z"/></g>
<g><path style="opacity:1" fill="#d10102" d="M 222.5,357.5 C 239.326,389.155 256.659,420.488 274.5,451.5C 258.591,477.984 244.257,505.318 231.5,533.5C 228.095,523.354 223.595,513.688 218,504.5C 206.505,483.506 194.505,462.839 182,442.5C 178.333,435.167 174.667,427.833 171,420.5C 169.629,417.734 167.796,415.401 165.5,413.5C 183.253,393.412 202.253,374.746 222.5,357.5 Z"/></g>
<g><path style="opacity:1" fill="#ea0202" d="M 703.5,380.5 C 707.503,386.012 711.337,391.679 715,397.5C 745.455,450.912 776.288,504.079 807.5,557C 805.618,557.198 803.952,557.698 802.5,558.5C 791.19,559.524 779.857,560.19 768.5,560.5C 738.364,505.723 707.031,451.723 674.5,398.5C 683.963,392.264 693.63,386.264 703.5,380.5 Z"/></g>
<g><path style="opacity:1" fill="#f60202" d="M 674.5,398.5 C 707.031,451.723 738.364,505.723 768.5,560.5C 742.778,562.779 717.445,567.112 692.5,573.5C 684.367,594.234 677.033,615.234 670.5,636.5C 665.738,635.414 662.072,632.747 659.5,628.5C 629.017,574.866 598.017,521.533 566.5,468.5C 602.123,444.682 638.123,421.349 674.5,398.5 Z"/></g>
<g><path style="opacity:1" fill="#d40102" d="M 862.5,404.5 C 865.833,404.5 869.167,404.5 872.5,404.5C 903.915,458.331 935.581,511.998 967.5,565.5C 954.251,564.235 941.251,562.235 928.5,559.5C 898.578,508.656 868.911,457.656 839.5,406.5C 846.96,405.128 854.626,404.461 862.5,404.5 Z"/></g>
<g><path style="opacity:1" fill="#cb0202" d="M 872.5,404.5 C 879.532,404.17 886.532,404.503 893.5,405.5C 926.144,459.955 958.144,514.789 989.5,570C 988.906,570.464 988.239,570.631 987.5,570.5C 980.477,569.744 973.81,568.078 967.5,565.5C 935.581,511.998 903.915,458.331 872.5,404.5 Z"/></g>
<g><path style="opacity:1" fill="#c70102" d="M 862.5,404.5 C 867.656,403.834 872.989,403.501 878.5,403.5C 896.005,403.873 913.338,404.54 930.5,405.5C 932.355,406.69 934.188,408.023 936,409.5C 970.271,469.052 1004.77,528.386 1039.5,587.5C 1022.47,580.639 1005.14,574.972 987.5,570.5C 988.239,570.631 988.906,570.464 989.5,570C 958.144,514.789 926.144,459.955 893.5,405.5C 886.532,404.503 879.532,404.17 872.5,404.5C 869.167,404.5 865.833,404.5 862.5,404.5 Z"/></g>
<g><path style="opacity:1" fill="#c00102" d="M 930.5,405.5 C 940.494,405.99 950.494,406.323 960.5,406.5C 961.718,407.161 963.051,407.828 964.5,408.5C 1003.58,475.664 1042.91,542.664 1082.5,609.5C 1082.38,610.107 1082.04,610.44 1081.5,610.5C 1067.79,602.31 1053.79,594.643 1039.5,587.5C 1004.77,528.386 970.271,469.052 936,409.5C 934.188,408.023 932.355,406.69 930.5,405.5 Z"/></g>
<g><path style="opacity:1" fill="#da0102" d="M 839.5,406.5 C 868.911,457.656 898.578,508.656 928.5,559.5C 918.046,559.844 907.713,559.178 897.5,557.5C 868.737,507.634 839.737,457.967 810.5,408.5C 819.988,407.434 829.655,406.767 839.5,406.5 Z"/></g>
<g><path style="opacity:1" fill="#b90102" d="M 960.5,406.5 C 972.61,406.995 984.61,408.329 996.5,410.5C 1029.22,467.606 1062.72,524.273 1097,580.5C 1103.42,591.074 1109.09,602.074 1114,613.5C 1165.86,698.385 1216.53,784.051 1266,870.5C 1267.41,872.65 1268.24,874.984 1268.5,877.5C 1263.64,885.226 1258.31,892.559 1252.5,899.5C 1222.63,847.46 1192.13,795.793 1161,744.5C 1160.83,750.348 1160.33,756.015 1159.5,761.5C 1160.18,697.197 1134.18,646.863 1081.5,610.5C 1082.04,610.44 1082.38,610.107 1082.5,609.5C 1042.91,542.664 1003.58,475.664 964.5,408.5C 963.051,407.828 961.718,407.161 960.5,406.5 Z"/></g>
<g><path style="opacity:1" fill="#b10101" d="M 996.5,410.5 C 999.902,410.342 1003.24,410.676 1006.5,411.5C 1037.05,466.268 1068.88,520.268 1102,573.5C 1107.82,585.816 1114.16,597.816 1121,609.5C 1172.83,695.481 1223.99,781.815 1274.5,868.5C 1273.23,872.054 1271.23,875.054 1268.5,877.5C 1268.24,874.984 1267.41,872.65 1266,870.5C 1216.53,784.051 1165.86,698.385 1114,613.5C 1109.09,602.074 1103.42,591.074 1097,580.5C 1062.72,524.273 1029.22,467.606 996.5,410.5 Z"/></g>
<g><path style="opacity:1" fill="#ad0101" d="M 1006.5,411.5 C 1016.03,411.784 1025.36,413.118 1034.5,415.5C 1118.75,559.007 1202.75,702.674 1286.5,846.5C 1283.51,854.482 1279.51,861.815 1274.5,868.5C 1223.99,781.815 1172.83,695.481 1121,609.5C 1114.16,597.816 1107.82,585.816 1102,573.5C 1068.88,520.268 1037.05,466.268 1006.5,411.5 Z"/></g>
<g><path style="opacity:1" fill="#a60101" d="M 1034.5,415.5 C 1040.1,415.236 1045.44,416.236 1050.5,418.5C 1130.14,555.107 1210.31,691.441 1291,827.5C 1292.71,829.909 1293.54,832.575 1293.5,835.5C 1291.9,839.711 1289.57,843.378 1286.5,846.5C 1202.75,702.674 1118.75,559.007 1034.5,415.5 Z"/></g>
<g><path style="opacity:1" fill="#a20101" d="M 1050.5,418.5 C 1064.35,420.403 1078.01,423.069 1091.5,426.5C 1136.72,506.6 1183.22,585.933 1231,664.5C 1233.94,670.046 1236.61,675.713 1239,681.5C 1262.84,720.503 1286.17,759.837 1309,799.5C 1309.49,800.793 1309.66,802.127 1309.5,803.5C 1305.2,814.763 1299.87,825.43 1293.5,835.5C 1293.54,832.575 1292.71,829.909 1291,827.5C 1210.31,691.441 1130.14,555.107 1050.5,418.5 Z"/></g>
<g><path style="opacity:0.977" fill="#1a0000" d="M 302.5,420.5 C 303.543,423.056 305.21,425.223 307.5,427C 314.823,433.653 322.489,439.819 330.5,445.5C 318.795,462.395 307.628,479.728 297,497.5C 286.025,516.453 275.858,535.786 266.5,555.5C 256.651,548.074 246.985,540.407 237.5,532.5C 254.075,491.991 275.741,454.658 302.5,420.5 Z"/></g>
<g><path style="opacity:1" fill="#db0102" d="M 165.5,413.5 C 167.796,415.401 169.629,417.734 171,420.5C 174.667,427.833 178.333,435.167 182,442.5C 194.505,462.839 206.505,483.506 218,504.5C 223.595,513.688 228.095,523.354 231.5,533.5C 226.365,549.714 222.031,566.047 218.5,582.5C 194.474,536.118 169.641,490.118 144,444.5C 143.184,443.177 142.017,442.511 140.5,442.5C 146.12,435.042 151.953,427.708 158,420.5C 160.37,417.961 162.87,415.628 165.5,413.5 Z"/></g>
<g><path style="opacity:1" fill="#960101" d="M 1091.5,426.5 C 1101.67,428.586 1111.67,431.252 1121.5,434.5C 1120.94,436.496 1121.44,438.496 1123,440.5C 1189.62,552.07 1255.45,664.07 1320.5,776.5C 1317.07,785.681 1313.4,794.681 1309.5,803.5C 1309.66,802.127 1309.49,800.793 1309,799.5C 1286.17,759.837 1262.84,720.503 1239,681.5C 1236.61,675.713 1233.94,670.046 1231,664.5C 1183.22,585.933 1136.72,506.6 1091.5,426.5 Z"/></g>
<g><path style="opacity:1" fill="#910101" d="M 1121.5,434.5 C 1127.44,436.701 1133.44,438.701 1139.5,440.5C 1167.97,491.436 1197.47,541.769 1228,591.5C 1233.82,603.816 1240.16,615.816 1247,627.5C 1273.27,671.729 1299.77,715.729 1326.5,759.5C 1325.26,765.454 1323.26,771.121 1320.5,776.5C 1255.45,664.07 1189.62,552.07 1123,440.5C 1121.44,438.496 1120.94,436.496 1121.5,434.5 Z"/></g>
<g><path style="opacity:1" fill="#8a0101" d="M 1139.5,440.5 C 1157.95,446.987 1175.95,454.654 1193.5,463.5C 1239.49,546.822 1287.49,628.822 1337.5,709.5C 1335.54,726.588 1331.88,743.254 1326.5,759.5C 1299.77,715.729 1273.27,671.729 1247,627.5C 1240.16,615.816 1233.82,603.816 1228,591.5C 1197.47,541.769 1167.97,491.436 1139.5,440.5 Z"/></g>
<g><path style="opacity:1" fill="#e50202" d="M 140.5,442.5 C 142.017,442.511 143.184,443.177 144,444.5C 169.641,490.118 194.474,536.118 218.5,582.5C 205.172,664.981 233.505,728.481 303.5,773C 314.914,779.374 326.581,785.207 338.5,790.5C 346.844,810.189 357.01,828.856 369,846.5C 381.793,870.748 395.126,894.748 409,918.5C 419.28,938.9 430.447,958.733 442.5,978C 440.866,978.494 439.199,978.66 437.5,978.5C 402.733,977.523 368.4,973.856 334.5,967.5C 335.675,967.719 336.675,967.386 337.5,966.5C 260.76,827.349 183.26,688.682 105,550.5C 100.255,540.676 95.2552,531.01 90,521.5C 89.0922,519.561 87.5922,518.561 85.5,518.5C 101.397,491.36 119.73,466.027 140.5,442.5 Z"/></g>
<g><path style="opacity:1" fill="#820101" d="M 1193.5,463.5 C 1201.13,466.98 1208.46,470.98 1215.5,475.5C 1252.88,543.925 1292.04,611.259 1333,677.5C 1335.4,681.624 1337.23,685.957 1338.5,690.5C 1338.65,696.869 1338.32,703.203 1337.5,709.5C 1287.49,628.822 1239.49,546.822 1193.5,463.5 Z"/></g>
<g><path style="opacity:1" fill="#fb0202" d="M 566.5,468.5 C 598.017,521.533 629.017,574.866 659.5,628.5C 607.941,589.121 556.774,549.121 506,508.5C 505.383,507.551 505.549,506.718 506.5,506C 526.36,493.239 546.36,480.739 566.5,468.5 Z"/></g>
<g><path style="opacity:1" fill="#7d0101" d="M 1215.5,475.5 C 1230.31,483.986 1243.98,493.986 1256.5,505.5C 1282.76,551.697 1309.76,597.363 1337.5,642.5C 1339.61,658.594 1339.95,674.594 1338.5,690.5C 1337.23,685.957 1335.4,681.624 1333,677.5C 1292.04,611.259 1252.88,543.925 1215.5,475.5 Z"/></g>
<g><path style="opacity:1" fill="#780101" d="M 1256.5,505.5 C 1301.14,540.415 1328.14,586.082 1337.5,642.5C 1309.76,597.363 1282.76,551.697 1256.5,505.5 Z"/></g>
<g><path style="opacity:0.925" fill="#0e0000" d="M 503.5,513.5 C 557.227,555.048 610.56,597.215 663.5,640C 666.107,642.105 669.107,642.938 672.5,642.5C 681.962,653.621 690.629,665.288 698.5,677.5C 694.281,678.021 690.614,676.854 687.5,674C 636.409,632.239 584.742,591.239 532.5,551C 521.853,539.195 512.186,526.695 503.5,513.5 Z"/></g>
<g><path style="opacity:1" fill="#ee0202" d="M 85.5,518.5 C 87.5922,518.561 89.0922,519.561 90,521.5C 95.2552,531.01 100.255,540.676 105,550.5C 183.26,688.682 260.76,827.349 337.5,966.5C 336.675,967.386 335.675,967.719 334.5,967.5C 321.108,966.231 308.108,963.564 295.5,959.5C 296.376,959.631 297.043,959.298 297.5,958.5C 274.347,914.853 250.18,871.853 225,829.5C 213.254,807.007 201.254,784.674 189,762.5C 151.667,696.5 114.333,630.5 77,564.5C 74.8065,560.251 72.8065,555.918 71,551.5C 70.2917,550.619 69.4584,549.953 68.5,549.5C 73.3926,538.713 79.0593,528.379 85.5,518.5 Z"/></g>
<g><path style="opacity:0.977" fill="#230000" d="M 237.5,532.5 C 246.985,540.407 256.651,548.074 266.5,555.5C 257.767,580.833 252.1,606.833 249.5,633.5C 238.544,626.207 228.877,617.541 220.5,607.5C 222.005,581.426 227.672,556.426 237.5,532.5 Z"/></g>
<g><path style="opacity:1" fill="#f60202" d="M 68.5,549.5 C 69.4584,549.953 70.2917,550.619 71,551.5C 72.8065,555.918 74.8065,560.251 77,564.5C 114.333,630.5 151.667,696.5 189,762.5C 201.254,784.674 213.254,807.007 225,829.5C 250.18,871.853 274.347,914.853 297.5,958.5C 297.043,959.298 296.376,959.631 295.5,959.5C 289.627,958.948 283.961,957.615 278.5,955.5C 272.761,947.031 267.261,938.364 262,929.5C 251,908.833 240,888.167 229,867.5C 172.537,767.564 116.37,667.564 60.5,567.5C 62.1006,560.97 64.7673,554.97 68.5,549.5 Z"/></g>
<g><path style="opacity:0.975" fill="#100000" d="M 1131.5,670.5 C 1082.37,630.711 1026.04,607.544 962.5,601C 905.164,593.8 847.831,593.8 790.5,601C 767.701,603.376 745.034,606.543 722.5,610.5C 713.674,598.849 705.34,586.849 697.5,574.5C 723.826,571.001 750.159,567.501 776.5,564C 800.643,562.487 824.81,561.654 849,561.5C 890.239,560.553 931.072,564.053 971.5,572C 1017.4,580.503 1058.73,598.837 1095.5,627C 1110.32,639.303 1122.32,653.803 1131.5,670.5 Z"/></g>
<g><path style="opacity:0.973" fill="#2b0000" d="M 1312.5,558.5 C 1356.68,607.133 1376.01,664.466 1370.5,730.5C 1361.52,719.904 1352.52,709.238 1343.5,698.5C 1348.3,648.392 1337.97,601.725 1312.5,558.5 Z"/></g>
<g><path style="opacity:1" fill="#f40202" d="M 60.5,567.5 C 116.37,667.564 172.537,767.564 229,867.5C 240,888.167 251,908.833 262,929.5C 267.261,938.364 272.761,947.031 278.5,955.5C 267.894,953.12 257.561,950.12 247.5,946.5C 248.873,946.657 250.207,946.49 251.5,946C 184.526,827.216 117.693,708.382 51,589.5C 50.6174,590.056 50.1174,590.389 49.5,590.5C 52.3848,582.399 56.0515,574.733 60.5,567.5 Z"/></g>
<g><path style="opacity:0.979" fill="#210000" d="M 697.5,574.5 C 705.34,586.849 713.674,598.849 722.5,610.5C 715.045,632.032 707.878,653.699 701,675.5C 700.292,676.381 699.458,677.047 698.5,677.5C 690.629,665.288 681.962,653.621 672.5,642.5C 680.461,619.61 688.794,596.943 697.5,574.5 Z"/></g>
<g><path style="opacity:0.96" fill="#2d0000" d="M 220.5,607.5 C 228.877,617.541 238.544,626.207 249.5,633.5C 245.973,678.905 258.307,719.238 286.5,754.5C 237.089,717.976 215.089,668.976 220.5,607.5 Z"/></g>
<g><path style="opacity:1" fill="#fb0202" d="M 247.5,946.5 C 180.1,927.398 123.267,891.732 77,839.5C 41.233,793.811 24.8997,741.811 28,683.5C 32.1757,651.762 39.3423,620.762 49.5,590.5C 50.1174,590.389 50.6174,590.056 51,589.5C 117.693,708.382 184.526,827.216 251.5,946C 250.207,946.49 248.873,946.657 247.5,946.5 Z"/></g>
<g><path style="opacity:0.977" fill="#230000" d="M 1343.5,698.5 C 1352.52,709.238 1361.52,719.904 1370.5,730.5C 1368.01,766.944 1359.01,801.61 1343.5,834.5C 1343.65,833.448 1343.48,832.448 1343,831.5C 1335.31,821.976 1327.81,812.31 1320.5,802.5C 1319.42,801.295 1318.09,800.628 1316.5,800.5C 1330.81,767.944 1339.81,733.944 1343.5,698.5 Z"/></g>
<g><path style="opacity:1" fill="#a40101" d="M 724.5,763.5 C 752.232,814.629 780.232,865.629 808.5,916.5C 799.184,923.83 789.184,930.163 778.5,935.5C 749.705,881.243 719.872,827.576 689,774.5C 688.23,773.402 687.397,773.402 686.5,774.5C 689.738,763.772 693.738,753.439 698.5,743.5C 707.47,749.808 716.137,756.474 724.5,763.5 Z"/></g>
<g><path style="opacity:1" fill="#c00102" d="M 1252.5,899.5 C 1247.64,907.226 1242.31,914.559 1236.5,921.5C 1212.29,879.126 1187.46,837.126 1162,795.5C 1160.62,792.957 1158.78,790.957 1156.5,789.5C 1157.83,780.204 1158.83,770.87 1159.5,761.5C 1160.33,756.015 1160.83,750.348 1161,744.5C 1192.13,795.793 1222.63,847.46 1252.5,899.5 Z"/></g>
<g><path style="opacity:1" fill="#9d0101" d="M 724.5,763.5 C 770.835,802.332 817.335,840.999 864,879.5C 864.624,881.464 864.124,883.131 862.5,884.5C 845.105,896.197 827.105,906.864 808.5,916.5C 780.232,865.629 752.232,814.629 724.5,763.5 Z"/></g>
<g><path style="opacity:1" fill="#a80101" d="M 778.5,935.5 C 772.344,939.747 766.01,943.747 759.5,947.5C 754.928,937.744 750.094,928.078 745,918.5C 734.198,901.01 724.198,883.01 715,864.5C 702.32,844.482 690.654,823.815 680,802.5C 679.184,801.177 678.017,800.511 676.5,800.5C 679.836,791.829 683.169,783.162 686.5,774.5C 687.397,773.402 688.23,773.402 689,774.5C 719.872,827.576 749.705,881.243 778.5,935.5 Z"/></g>
<g><path style="opacity:1" fill="#c80102" d="M 1156.5,789.5 C 1158.78,790.957 1160.62,792.957 1162,795.5C 1187.46,837.126 1212.29,879.126 1236.5,921.5C 1229.93,931.407 1222.26,940.407 1213.5,948.5C 1191.43,912.026 1169.59,875.36 1148,838.5C 1147.24,836.937 1146.07,835.937 1144.5,835.5C 1146.88,828.546 1149.38,821.546 1152,814.5C 1153.29,806.084 1154.79,797.75 1156.5,789.5 Z"/></g>
<g><path style="opacity:1" fill="#d90202" d="M 338.5,790.5 C 354.691,796.63 371.024,802.296 387.5,807.5C 414.294,857.754 442.127,907.421 471,956.5C 473.831,964.172 477.665,971.172 482.5,977.5C 482.414,978.496 482.748,979.329 483.5,980C 477.175,980.5 470.842,980.666 464.5,980.5C 455.267,980.925 446.267,980.259 437.5,978.5C 439.199,978.66 440.866,978.494 442.5,978C 430.447,958.733 419.28,938.9 409,918.5C 395.126,894.748 381.793,870.748 369,846.5C 357.01,828.856 346.844,810.189 338.5,790.5 Z"/></g>
<g><path style="opacity:1" fill="#ad0101" d="M 676.5,800.5 C 678.017,800.511 679.184,801.177 680,802.5C 690.654,823.815 702.32,844.482 715,864.5C 724.198,883.01 734.198,901.01 745,918.5C 750.094,928.078 754.928,937.744 759.5,947.5C 745.348,958.082 730.348,967.416 714.5,975.5C 686.02,922.539 657.02,869.873 627.5,817.5C 641.815,815.123 656.148,812.623 670.5,810C 673.649,807.531 675.649,804.365 676.5,800.5 Z"/></g>
<g><path style="opacity:0.979" fill="#1a0000" d="M 1316.5,800.5 C 1318.09,800.628 1319.42,801.295 1320.5,802.5C 1327.81,812.31 1335.31,821.976 1343,831.5C 1343.48,832.448 1343.65,833.448 1343.5,834.5C 1323.29,880.621 1297.29,922.954 1265.5,961.5C 1256.25,950.66 1247.25,939.66 1238.5,928.5C 1252.11,909.046 1265.95,889.712 1280,870.5C 1286.75,858.004 1293.75,845.671 1301,833.5C 1306.73,822.715 1311.89,811.715 1316.5,800.5 Z"/></g>
<g><path style="opacity:1" fill="#d10102" d="M 387.5,807.5 C 405.575,810.679 423.575,814.179 441.5,818C 454.863,819.085 468.197,820.251 481.5,821.5C 510.139,873.15 538.805,924.816 567.5,976.5C 566.757,977.182 566.091,977.849 565.5,978.5C 543.596,980.33 521.596,981.33 499.5,981.5C 494.5,981.5 489.5,981.5 484.5,981.5C 484.771,979.62 484.104,978.287 482.5,977.5C 477.665,971.172 473.831,964.172 471,956.5C 442.127,907.421 414.294,857.754 387.5,807.5 Z"/></g>
<g><path style="opacity:1" fill="#b40101" d="M 627.5,817.5 C 657.02,869.873 686.02,922.539 714.5,975.5C 709.674,978.748 704.674,981.748 699.5,984.5C 668.925,929.688 638.592,874.688 608.5,819.5C 614.733,817.994 621.066,817.327 627.5,817.5 Z"/></g>
<g><path style="opacity:1" fill="#bb0102" d="M 608.5,819.5 C 638.592,874.688 668.925,929.688 699.5,984.5C 670.132,1002.94 640.632,1021.27 611,1039.5C 610.5,1039.33 610,1039.17 609.5,1039C 619.079,1018.6 628.079,997.932 636.5,977C 635.46,974.723 633.626,973.556 631,973.5C 627.875,974.256 624.709,974.589 621.5,974.5C 595.115,923.391 567.448,873.058 538.5,823.5C 561.848,822.362 585.181,821.029 608.5,819.5 Z"/></g>
<g><path style="opacity:1" fill="#c50202" d="M 481.5,821.5 C 500.494,822.304 519.494,822.971 538.5,823.5C 567.448,873.058 595.115,923.391 621.5,974.5C 602.877,976.253 584.21,977.587 565.5,978.5C 566.091,977.849 566.757,977.182 567.5,976.5C 538.805,924.816 510.139,873.15 481.5,821.5 Z"/></g>
<g><path style="opacity:1" fill="#d10102" d="M 1144.5,835.5 C 1146.07,835.937 1147.24,836.937 1148,838.5C 1169.59,875.36 1191.43,912.026 1213.5,948.5C 1203.25,962.086 1191.92,974.753 1179.5,986.5C 1160.91,953.634 1141.57,921.301 1121.5,889.5C 1130.73,872.155 1138.39,854.155 1144.5,835.5 Z"/></g>
<g><path style="opacity:0.817" fill="#2a0000" d="M 868.5,877.5 C 878.127,885.289 887.627,893.289 897,901.5C 898.598,903.895 898.764,906.228 897.5,908.5C 888.367,899.123 878.7,890.456 868.5,882.5C 868.5,880.833 868.5,879.167 868.5,877.5 Z"/></g>
<g><path style="opacity:0.982" fill="#0b0000" d="M 868.5,882.5 C 878.7,890.456 888.367,899.123 897.5,908.5C 895.402,912.434 892.402,915.6 888.5,918C 804.833,969.5 721.167,1021 637.5,1072.5C 626.569,1064.9 616.569,1056.24 607.5,1046.5C 637.859,1028.32 667.859,1009.49 697.5,990C 708.167,984 718.833,978 729.5,972C 773.039,943.477 817.373,916.144 862.5,890C 865.094,887.914 867.094,885.414 868.5,882.5 Z"/></g>
<g><path style="opacity:1" fill="#da0202" d="M 1121.5,889.5 C 1141.57,921.301 1160.91,953.634 1179.5,986.5C 1173.8,993.203 1167.46,999.203 1160.5,1004.5C 1142.74,973.966 1124.74,943.633 1106.5,913.5C 1111.01,905.127 1116.01,897.127 1121.5,889.5 Z"/></g>
<g><path style="opacity:0.967" fill="#120000" d="M 121.5,888.5 C 165.366,920.208 213.699,943.042 266.5,957C 375.512,983.801 485.845,991.468 597.5,980C 608.167,979.333 618.833,979.333 629.5,980C 630.022,980.561 630.355,981.228 630.5,982C 627.054,991.061 622.72,999.561 617.5,1007.5C 538.278,1013.76 459.278,1011.6 380.5,1001C 326.461,992.741 274.128,978.408 223.5,958C 185.211,940.834 151.211,917.668 121.5,888.5 Z"/></g>
<g><path style="opacity:1" fill="#e00102" d="M 1106.5,913.5 C 1124.74,943.633 1142.74,973.966 1160.5,1004.5C 1142.35,1023.99 1122.68,1041.66 1101.5,1057.5C 1088.3,1032.65 1074.3,1008.32 1059.5,984.5C 1075.91,961.34 1091.58,937.673 1106.5,913.5 Z"/></g>
<g><path style="opacity:0.977" fill="#150000" d="M 1238.5,928.5 C 1247.25,939.66 1256.25,950.66 1265.5,961.5C 1246.12,985.388 1225.79,1008.55 1204.5,1031C 1201.6,1033.41 1198.6,1035.58 1195.5,1037.5C 1186.52,1026.91 1177.52,1016.25 1168.5,1005.5C 1192.57,980.432 1215.91,954.765 1238.5,928.5 Z"/></g>
<g><path style="opacity:0.988" fill="#a80102" d="M 482.5,977.5 C 484.104,978.287 484.771,979.62 484.5,981.5C 489.5,981.5 494.5,981.5 499.5,981.5C 487.797,982.86 476.131,982.526 464.5,980.5C 470.842,980.666 477.175,980.5 483.5,980C 482.748,979.329 482.414,978.496 482.5,977.5 Z"/></g>
<g><path style="opacity:1" fill="#eb0202" d="M 1059.5,984.5 C 1074.3,1008.32 1088.3,1032.65 1101.5,1057.5C 1093.1,1065.56 1084.1,1072.89 1074.5,1079.5C 1062.26,1056.96 1049.26,1034.96 1035.5,1013.5C 1042.79,1003.24 1050.79,993.574 1059.5,984.5 Z"/></g>
<g><path style="opacity:0.966" fill="#100000" d="M 1168.5,1005.5 C 1177.52,1016.25 1186.52,1026.91 1195.5,1037.5C 1191.78,1043.55 1186.78,1048.22 1180.5,1051.5C 1171.72,1040.41 1163.05,1029.41 1154.5,1018.5C 1158.56,1013.44 1163.23,1009.1 1168.5,1005.5 Z"/></g>
<g><path style="opacity:1" fill="#f30202" d="M 1035.5,1013.5 C 1049.26,1034.96 1062.26,1056.96 1074.5,1079.5C 1041.16,1106.5 1006.16,1131.17 969.5,1153.5C 959.993,1137.82 950.993,1121.82 942.5,1105.5C 974.138,1075.53 1005.14,1044.86 1035.5,1013.5 Z"/></g>
<g><path style="opacity:0.98" fill="#150000" d="M 1154.5,1018.5 C 1163.05,1029.41 1171.72,1040.41 1180.5,1051.5C 1175.77,1058.57 1169.77,1064.23 1162.5,1068.5C 1154.21,1057.21 1145.55,1046.21 1136.5,1035.5C 1141.89,1029.11 1147.89,1023.44 1154.5,1018.5 Z"/></g>
<g><path style="opacity:0.978" fill="#100000" d="M 1136.5,1035.5 C 1145.55,1046.21 1154.21,1057.21 1162.5,1068.5C 1153.43,1077.55 1144.1,1086.38 1134.5,1095C 957.171,1237.25 757.671,1337.42 536,1395.5C 534.667,1394.83 533.333,1394.17 532,1393.5C 523.579,1382.31 515.412,1370.98 507.5,1359.5C 512.19,1358.86 516.856,1358.03 521.5,1357C 751.227,1294.82 956.227,1187.66 1136.5,1035.5 Z"/></g>
<g><path style="opacity:1" fill="#fa0202" d="M 942.5,1105.5 C 950.993,1121.82 959.993,1137.82 969.5,1153.5C 847.762,1231.19 717.762,1292.03 579.5,1336C 570.906,1338.65 562.24,1340.65 553.5,1342C 695.024,1281.43 824.691,1202.6 942.5,1105.5 Z"/></g>
</svg>
