<?xml version="1.0" encoding="UTF-8"?>
<!DOCTYPE svg PUBLIC "-//W3C//DTD SVG 1.1//EN" "http://www.w3.org/Graphics/SVG/1.1/DTD/svg11.dtd">
<svg xmlns="http://www.w3.org/2000/svg" version="1.1" width="4267px" height="3200px" style="shape-rendering:geometricPrecision; text-rendering:geometricPrecision; image-rendering:optimizeQuality; fill-rule:evenodd; clip-rule:evenodd" xmlns:xlink="http://www.w3.org/1999/xlink">
<g><path style="opacity:0.955" fill="#405392" d="M 1411.5,697.5 C 1407.86,702.815 1404.19,708.149 1400.5,713.5C 1398.99,714.836 1397.32,716.003 1395.5,717C 1219.41,778.679 1060.74,869.679 919.5,990C 902.967,1005.7 886.634,1021.53 870.5,1037.5C 853.784,1055.24 837.284,1073.24 821,1091.5C 814.235,1099.09 808.069,1107.09 802.5,1115.5C 776.249,1149.98 754.582,1187.31 737.5,1227.5C 728.23,1252.26 722.563,1277.93 720.5,1304.5C 716.016,1366.41 738.683,1415.74 788.5,1452.5C 820.656,1475.07 855.989,1490.9 894.5,1500C 929.288,1508.75 964.622,1513.42 1000.5,1514C 1057.33,1516.39 1113.67,1512.39 1169.5,1502C 1178.83,1481.35 1187,1460.19 1194,1438.5C 1195.69,1434.79 1198.52,1433.62 1202.5,1435C 1258.2,1481.17 1313.86,1527.34 1369.5,1573.5C 1369.5,1575.5 1369.5,1577.5 1369.5,1579.5C 1368.29,1582.3 1366.29,1584.46 1363.5,1586C 1317.59,1613.28 1272.26,1641.28 1227.5,1670C 1219.33,1674.92 1210.99,1679.59 1202.5,1684C 1171.53,1704.15 1140.2,1723.65 1108.5,1742.5C 1106.54,1742.02 1105.2,1740.86 1104.5,1739C 1109.65,1727.2 1114.65,1715.37 1119.5,1703.5C 1123.84,1695.11 1127.84,1686.44 1131.5,1677.5C 1130.97,1676.81 1130.31,1676.31 1129.5,1676C 1120.5,1675.33 1111.5,1675.33 1102.5,1676C 989.142,1687.9 877.142,1680.23 766.5,1653C 713.264,1639.21 664.598,1616.05 620.5,1583.5C 535.874,1516.8 506.707,1430.8 533,1325.5C 541.209,1292.54 553.543,1261.2 570,1231.5C 595.021,1187.14 624.687,1146.14 659,1108.5C 678.597,1087.85 698.764,1067.68 719.5,1048C 746.96,1023.53 775.293,1000.2 804.5,978C 953.062,870.723 1115.73,790.389 1292.5,737C 1331.48,721.728 1371.15,708.561 1411.5,697.5 Z"/></g>
<g><path style="opacity:0.942" fill="#313d6c" d="M 1411.5,697.5 C 1421.61,705.443 1431.28,713.943 1440.5,723C 1437.04,728.951 1433.04,734.451 1428.5,739.5C 1419.57,730.572 1410.23,721.905 1400.5,713.5C 1404.19,708.149 1407.86,702.815 1411.5,697.5 Z"/></g>
<g><path style="opacity:0.991" fill="#2f3b67" d="M 1400.5,713.5 C 1410.23,721.905 1419.57,730.572 1428.5,739.5C 1427.57,740.315 1426.57,741.148 1425.5,742C 1305.64,784.906 1192.64,840.906 1086.5,910C 1058.5,930 1030.5,950 1002.5,970C 983.127,987.042 963.46,1003.71 943.5,1020C 928.964,1034.04 914.297,1047.87 899.5,1061.5C 889.853,1053.52 880.186,1045.52 870.5,1037.5C 886.634,1021.53 902.967,1005.7 919.5,990C 1060.74,869.679 1219.41,778.679 1395.5,717C 1397.32,716.003 1398.99,714.836 1400.5,713.5 Z"/></g>
<g><path style="opacity:1" fill="#265aa2" d="M 1298.5,750.5 C 1297.08,747.331 1295.42,744.331 1293.5,741.5C 1327.42,727.305 1362.42,715.638 1398.5,706.5C 1398.83,706.833 1399.17,707.167 1399.5,707.5C 1398.02,709.483 1396.35,711.316 1394.5,713C 1361.92,724.298 1329.92,736.798 1298.5,750.5 Z"/></g>
<g><path style="opacity:1" fill="#285fa6" d="M 1293.5,741.5 C 1295.42,744.331 1297.08,747.331 1298.5,750.5C 1279.35,758.909 1260.35,767.576 1241.5,776.5C 1239.23,771.725 1236.73,767.058 1234,762.5C 1233.33,761.748 1232.5,761.414 1231.5,761.5C 1251.91,754.228 1272.57,747.561 1293.5,741.5 Z"/></g>
<g><path style="opacity:1" fill="#2a62a9" d="M 1231.5,761.5 C 1232.5,761.414 1233.33,761.748 1234,762.5C 1236.73,767.058 1239.23,771.725 1241.5,776.5C 1226.35,783.577 1211.35,790.91 1196.5,798.5C 1193.52,791.87 1190.52,785.204 1187.5,778.5C 1201.74,771.974 1216.41,766.307 1231.5,761.5 Z"/></g>
<g><path style="opacity:1" fill="#2b64ab" d="M 1187.5,778.5 C 1190.52,785.204 1193.52,791.87 1196.5,798.5C 1180.13,808.021 1163.46,817.021 1146.5,825.5C 1142.71,816.337 1138.05,807.671 1132.5,799.5C 1141.96,794.883 1151.63,790.716 1161.5,787C 1169.99,783.669 1178.66,780.836 1187.5,778.5 Z"/></g>
<g><path style="opacity:1" fill="#2d68af" d="M 1132.5,799.5 C 1138.05,807.671 1142.71,816.337 1146.5,825.5C 1127.19,837.132 1107.86,848.798 1088.5,860.5C 1083.11,848.71 1077.44,837.044 1071.5,825.5C 1091.76,816.534 1112.09,807.868 1132.5,799.5 Z"/></g>
<g><path style="opacity:1" fill="#306db2" d="M 1071.5,825.5 C 1077.44,837.044 1083.11,848.71 1088.5,860.5C 1059.46,878.015 1031.46,897.015 1004.5,917.5C 996.915,903.946 989.415,890.279 982,876.5C 981.241,874.937 980.074,873.937 978.5,873.5C 993.323,863.875 1008.99,855.709 1025.5,849C 1040.7,840.898 1056.04,833.065 1071.5,825.5 Z"/></g>
<g><path style="opacity:1" fill="#3572b7" d="M 978.5,873.5 C 980.074,873.937 981.241,874.937 982,876.5C 989.415,890.279 996.915,903.946 1004.5,917.5C 984.315,931.015 964.982,945.682 946.5,961.5C 936.577,943.989 926.911,926.322 917.5,908.5C 937.01,895.573 957.343,883.906 978.5,873.5 Z"/></g>
<g><path style="opacity:1" fill="#3975b9" d="M 917.5,908.5 C 926.911,926.322 936.577,943.989 946.5,961.5C 937.819,969.512 928.819,977.179 919.5,984.5C 909.903,968.978 901.07,952.978 893,936.5C 891.301,933.079 889.135,930.079 886.5,927.5C 896.324,920.417 906.658,914.084 917.5,908.5 Z"/></g>
<g><path style="opacity:1" fill="#3a77ba" d="M 886.5,927.5 C 889.135,930.079 891.301,933.079 893,936.5C 901.07,952.978 909.903,968.978 919.5,984.5C 913.86,989.805 908.193,995.139 902.5,1000.5C 890.911,980.323 879.578,959.99 868.5,939.5C 874.205,935.141 880.205,931.141 886.5,927.5 Z"/></g>
<g><path style="opacity:1" fill="#3d79bc" d="M 868.5,939.5 C 879.578,959.99 890.911,980.323 902.5,1000.5C 889.167,1013.17 875.833,1025.83 862.5,1038.5C 851.346,1018.19 840.179,997.86 829,977.5C 827.609,974.664 825.776,972.331 823.5,970.5C 838.22,959.784 853.22,949.45 868.5,939.5 Z"/></g>
<g><path style="opacity:1" fill="#407dbf" d="M 823.5,970.5 C 825.776,972.331 827.609,974.664 829,977.5C 840.179,997.86 851.346,1018.19 862.5,1038.5C 844.177,1060.15 825.51,1081.49 806.5,1102.5C 791.167,1074.5 775.833,1046.5 760.5,1018.5C 780.931,1001.73 801.931,985.733 823.5,970.5 Z"/></g>
<g><path style="opacity:1" fill="#4381c2" d="M 760.5,1018.5 C 775.833,1046.5 791.167,1074.5 806.5,1102.5C 796.154,1117.2 785.821,1131.87 775.5,1146.5C 757.324,1115.48 739.657,1084.15 722.5,1052.5C 734.843,1040.82 747.51,1029.49 760.5,1018.5 Z"/></g>
<g><path style="opacity:0.965" fill="#405393" d="M 1256.5,1037.5 C 1255.65,1042.23 1254.48,1046.89 1253,1051.5C 1245.74,1068.85 1238.9,1086.35 1232.5,1104C 1232.94,1106.47 1234.44,1107.64 1237,1107.5C 1249.08,1105.2 1261.24,1103.54 1273.5,1102.5C 1362.62,1091.49 1451.62,1092.66 1540.5,1106C 1608.03,1115.51 1671.03,1137.51 1729.5,1172C 1763.26,1193.26 1791.26,1220.43 1813.5,1253.5C 1839.58,1296.55 1850.25,1343.21 1845.5,1393.5C 1841.99,1429.34 1832.99,1463.67 1818.5,1496.5C 1814.57,1506.35 1810.07,1516.02 1805,1525.5C 1797.27,1538.24 1789.93,1551.24 1783,1564.5C 1768.98,1584.68 1754.81,1604.68 1740.5,1624.5C 1723.83,1642.34 1707.66,1660.68 1692,1679.5C 1684.6,1687.06 1677.1,1694.4 1669.5,1701.5C 1665.14,1705.53 1660.81,1709.53 1656.5,1713.5C 1650.14,1719.53 1643.81,1725.53 1637.5,1731.5C 1601.07,1763.43 1563.07,1793.27 1523.5,1821C 1452.27,1870.47 1377.27,1914.14 1298.5,1952C 1214.3,1991.58 1127.3,2024.25 1037.5,2050C 1027.91,2052.65 1018.24,2054.81 1008.5,2056.5C 1006.87,2053.88 1007.54,2052.05 1010.5,2051C 1145.69,1997.43 1271.02,1927.43 1386.5,1841C 1438.08,1800.43 1486.24,1755.93 1531,1707.5C 1545.48,1690.53 1559.48,1673.2 1573,1655.5C 1591.33,1625.83 1609.67,1596.17 1628,1566.5C 1636.66,1544.85 1644.33,1522.85 1651,1500.5C 1652.78,1488.85 1654.44,1477.18 1656,1465.5C 1659.04,1429.98 1651.54,1396.98 1633.5,1366.5C 1624.79,1351.32 1613.79,1337.82 1600.5,1326C 1578.21,1307.52 1553.54,1293.19 1526.5,1283C 1490.94,1270.39 1454.28,1262.39 1416.5,1259C 1393.51,1257.93 1370.51,1257.1 1347.5,1256.5C 1324.16,1257.41 1300.83,1258.57 1277.5,1260C 1250.81,1263.44 1224.14,1266.94 1197.5,1270.5C 1189.32,1293.02 1181.32,1315.69 1173.5,1338.5C 1171.47,1338.66 1169.47,1338.5 1167.5,1338C 1113.14,1294.82 1058.8,1251.66 1004.5,1208.5C 999.831,1205.35 999.498,1201.85 1003.5,1198C 1085.5,1145.33 1167.5,1092.67 1249.5,1040C 1251.75,1038.96 1253.91,1037.79 1256,1036.5C 1256.4,1036.73 1256.57,1037.06 1256.5,1037.5 Z"/></g>
<g><path style="opacity:0.991" fill="#313d6b" d="M 870.5,1037.5 C 880.186,1045.52 889.853,1053.52 899.5,1061.5C 882.541,1080.96 865.375,1100.3 848,1119.5C 841.922,1126.73 836.089,1134.07 830.5,1141.5C 822.334,1134.17 814,1127 805.5,1120C 803.859,1118.87 802.859,1117.37 802.5,1115.5C 808.069,1107.09 814.235,1099.09 821,1091.5C 837.284,1073.24 853.784,1055.24 870.5,1037.5 Z"/></g>
<g><path style="opacity:1" fill="#478dcb" d="M 1312.5,1103.5 C 1341.5,1153.5 1370.5,1203.5 1399.5,1253.5C 1369.49,1251.22 1339.49,1251.22 1309.5,1253.5C 1276.76,1197.69 1244.26,1141.69 1212,1085.5C 1209.72,1081.92 1207.22,1078.59 1204.5,1075.5C 1219.16,1065.7 1233.99,1056.03 1249,1046.5C 1242.82,1064.13 1236.15,1081.8 1229,1099.5C 1228.33,1102.5 1228.33,1105.5 1229,1108.5C 1230.64,1110.92 1232.97,1111.92 1236,1111.5C 1261.42,1107.94 1286.92,1105.27 1312.5,1103.5 Z"/></g>
<g><path style="opacity:1" fill="#4685c5" d="M 722.5,1052.5 C 739.657,1084.15 757.324,1115.48 775.5,1146.5C 759.301,1172.57 744.968,1199.57 732.5,1227.5C 725.056,1211.28 716.556,1195.61 707,1180.5C 699.711,1165.26 691.378,1150.59 682,1136.5C 677.957,1128.08 673.624,1119.75 669,1111.5C 668.241,1109.94 667.074,1108.94 665.5,1108.5C 678.994,1094.84 692.327,1081.01 705.5,1067C 711.039,1061.96 716.706,1057.12 722.5,1052.5 Z"/></g>
<g><path style="opacity:0.996" fill="#334172" d="M 1256.5,1037.5 C 1265.46,1048.07 1273.96,1059.07 1282,1070.5C 1282.61,1074.24 1282.28,1077.9 1281,1081.5C 1277.92,1088.32 1275.42,1095.32 1273.5,1102.5C 1261.24,1103.54 1249.08,1105.2 1237,1107.5C 1234.44,1107.64 1232.94,1106.47 1232.5,1104C 1238.9,1086.35 1245.74,1068.85 1253,1051.5C 1254.48,1046.89 1255.65,1042.23 1256.5,1037.5 Z"/></g>
<g><path style="opacity:1" fill="#4a8fcd" d="M 1204.5,1075.5 C 1207.22,1078.59 1209.72,1081.92 1212,1085.5C 1244.26,1141.69 1276.76,1197.69 1309.5,1253.5C 1296.49,1254.3 1283.49,1255.3 1270.5,1256.5C 1240.13,1201.42 1208.46,1147.09 1175.5,1093.5C 1185.14,1087.53 1194.81,1081.53 1204.5,1075.5 Z"/></g>
<g><path style="opacity:1" fill="#4e93d0" d="M 1175.5,1093.5 C 1208.46,1147.09 1240.13,1201.42 1270.5,1256.5C 1244.49,1258.47 1218.83,1262.47 1193.5,1268.5C 1185.71,1289.69 1178.21,1311.02 1171,1332.5C 1167.88,1332.32 1165.38,1330.66 1163.5,1327.5C 1131.49,1272.8 1099.49,1218.13 1067.5,1163.5C 1103.19,1139.84 1139.19,1116.5 1175.5,1093.5 Z"/></g>
<g><path style="opacity:1" fill="#4188c8" d="M 1373.5,1099.5 C 1405.07,1152.97 1436.9,1206.3 1469,1259.5C 1469.53,1260.82 1469.03,1261.48 1467.5,1261.5C 1454.69,1259.58 1442.02,1257.58 1429.5,1255.5C 1430.04,1255.44 1430.38,1255.11 1430.5,1254.5C 1400.02,1203.86 1370.35,1152.86 1341.5,1101.5C 1352.12,1100.17 1362.79,1099.51 1373.5,1099.5 Z"/></g>
<g><path style="opacity:1" fill="#3f86c6" d="M 1373.5,1099.5 C 1380.5,1099.5 1387.5,1099.5 1394.5,1099.5C 1424.41,1150.6 1454.58,1201.6 1485,1252.5C 1486.68,1257.2 1488.85,1261.7 1491.5,1266C 1490.91,1266.46 1490.24,1266.63 1489.5,1266.5C 1482.07,1264.82 1474.74,1263.16 1467.5,1261.5C 1469.03,1261.48 1469.53,1260.82 1469,1259.5C 1436.9,1206.3 1405.07,1152.97 1373.5,1099.5 Z"/></g>
<g><path style="opacity:1" fill="#3c84c5" d="M 1394.5,1099.5 C 1406.47,1100.42 1418.47,1100.75 1430.5,1100.5C 1432.79,1101.07 1434.95,1102.07 1437,1103.5C 1471.32,1163.46 1506.15,1223.13 1541.5,1282.5C 1541.38,1283.11 1541.04,1283.44 1540.5,1283.5C 1532.77,1280.27 1524.94,1277.27 1517,1274.5C 1507.69,1271.88 1498.53,1269.22 1489.5,1266.5C 1490.24,1266.63 1490.91,1266.46 1491.5,1266C 1488.85,1261.7 1486.68,1257.2 1485,1252.5C 1454.58,1201.6 1424.41,1150.6 1394.5,1099.5 Z"/></g>
<g><path style="opacity:1" fill="#438ac9" d="M 1341.5,1101.5 C 1370.35,1152.86 1400.02,1203.86 1430.5,1254.5C 1430.38,1255.11 1430.04,1255.44 1429.5,1255.5C 1419.46,1255.13 1409.46,1254.46 1399.5,1253.5C 1370.5,1203.5 1341.5,1153.5 1312.5,1103.5C 1322.16,1102.8 1331.83,1102.13 1341.5,1101.5 Z"/></g>
<g><path style="opacity:1" fill="#3982c4" d="M 1430.5,1100.5 C 1442.15,1101.37 1453.82,1102.03 1465.5,1102.5C 1505.3,1171.42 1545.63,1240.09 1586.5,1308.5C 1571.77,1299.13 1556.43,1290.8 1540.5,1283.5C 1541.04,1283.44 1541.38,1283.11 1541.5,1282.5C 1506.15,1223.13 1471.32,1163.46 1437,1103.5C 1434.95,1102.07 1432.79,1101.07 1430.5,1100.5 Z"/></g>
<g><path style="opacity:1" fill="#3480c2" d="M 1465.5,1102.5 C 1476.27,1102.95 1486.93,1103.95 1497.5,1105.5C 1530.81,1162.77 1564.64,1219.77 1599,1276.5C 1605.19,1286.88 1610.86,1297.55 1616,1308.5C 1668.93,1395.91 1720.77,1483.91 1771.5,1572.5C 1766.19,1580.47 1760.52,1588.14 1754.5,1595.5C 1724.29,1542.31 1693.29,1489.64 1661.5,1437.5C 1657.31,1391.95 1638.31,1353.79 1604.5,1323C 1598.31,1318.3 1592.31,1313.47 1586.5,1308.5C 1545.63,1240.09 1505.3,1171.42 1465.5,1102.5 Z"/></g>
<g><path style="opacity:1" fill="#327ec0" d="M 1497.5,1105.5 C 1500.81,1106.05 1504.14,1106.38 1507.5,1106.5C 1539.55,1162.27 1572.39,1217.61 1606,1272.5C 1611.14,1283.45 1616.81,1294.12 1623,1304.5C 1674.97,1390.78 1726.13,1477.44 1776.5,1564.5C 1775.33,1567.51 1773.66,1570.18 1771.5,1572.5C 1720.77,1483.91 1668.93,1395.91 1616,1308.5C 1610.86,1297.55 1605.19,1286.88 1599,1276.5C 1564.64,1219.77 1530.81,1162.77 1497.5,1105.5 Z"/></g>
<g><path style="opacity:1" fill="#2e7dc0" d="M 1507.5,1106.5 C 1516.94,1107.18 1526.27,1108.51 1535.5,1110.5C 1619.59,1253.02 1703.43,1395.68 1787,1538.5C 1788.01,1540.02 1788.51,1541.69 1788.5,1543.5C 1785.26,1550.99 1781.26,1557.99 1776.5,1564.5C 1726.13,1477.44 1674.97,1390.78 1623,1304.5C 1616.81,1294.12 1611.14,1283.45 1606,1272.5C 1572.39,1217.61 1539.55,1162.27 1507.5,1106.5 Z"/></g>
<g><path style="opacity:1" fill="#4988c7" d="M 665.5,1108.5 C 667.074,1108.94 668.241,1109.94 669,1111.5C 673.624,1119.75 677.957,1128.08 682,1136.5C 691.378,1150.59 699.711,1165.26 707,1180.5C 716.556,1195.61 725.056,1211.28 732.5,1227.5C 730.531,1235.07 728.198,1242.4 725.5,1249.5C 702.126,1206.67 678.459,1164 654.5,1121.5C 657.475,1116.53 661.142,1112.2 665.5,1108.5 Z"/></g>
<g><path style="opacity:1" fill="#2b7bbe" d="M 1535.5,1110.5 C 1541.08,1110.87 1546.41,1111.87 1551.5,1113.5C 1633.16,1252.16 1714.83,1390.83 1796.5,1529.5C 1794.34,1534.5 1791.67,1539.17 1788.5,1543.5C 1788.51,1541.69 1788.01,1540.02 1787,1538.5C 1703.43,1395.68 1619.59,1253.02 1535.5,1110.5 Z"/></g>
<g><path style="opacity:1" fill="#287abd" d="M 1551.5,1113.5 C 1565.27,1115.76 1578.94,1118.43 1592.5,1121.5C 1638.87,1202.74 1686.37,1283.4 1735,1363.5C 1737.19,1367.75 1739.19,1372.08 1741,1376.5C 1765.35,1416.53 1789.18,1456.86 1812.5,1497.5C 1808.21,1508.75 1802.87,1519.42 1796.5,1529.5C 1714.83,1390.83 1633.16,1252.16 1551.5,1113.5 Z"/></g>
<g><path style="opacity:0.991" fill="#323f6e" d="M 802.5,1115.5 C 802.859,1117.37 803.859,1118.87 805.5,1120C 814,1127 822.334,1134.17 830.5,1141.5C 805.602,1175.94 784.269,1212.61 766.5,1251.5C 756.814,1243.48 747.147,1235.48 737.5,1227.5C 754.582,1187.31 776.249,1149.98 802.5,1115.5 Z"/></g>
<g><path style="opacity:1" fill="#4a89c8" d="M 654.5,1121.5 C 678.459,1164 702.126,1206.67 725.5,1249.5C 723.124,1258.53 721.124,1267.53 719.5,1276.5C 695.696,1232.9 671.863,1189.23 648,1145.5C 646.301,1142.08 644.135,1139.08 641.5,1136.5C 645.437,1131.22 649.771,1126.22 654.5,1121.5 Z"/></g>
<g><path style="opacity:1" fill="#2377bb" d="M 1592.5,1121.5 C 1602.27,1123.89 1611.93,1126.56 1621.5,1129.5C 1689.27,1243.37 1756.27,1357.71 1822.5,1472.5C 1819.15,1480.89 1815.82,1489.22 1812.5,1497.5C 1789.18,1456.86 1765.35,1416.53 1741,1376.5C 1739.19,1372.08 1737.19,1367.75 1735,1363.5C 1686.37,1283.4 1638.87,1202.74 1592.5,1121.5 Z"/></g>
<g><path style="opacity:1" fill="#2175ba" d="M 1621.5,1129.5 C 1627.74,1131.79 1634.07,1133.79 1640.5,1135.5C 1670.47,1187.44 1700.97,1239.11 1732,1290.5C 1737.12,1301.41 1742.79,1312.08 1749,1322.5C 1775.51,1366.86 1802.01,1411.19 1828.5,1455.5C 1827.27,1461.54 1825.27,1467.21 1822.5,1472.5C 1756.27,1357.71 1689.27,1243.37 1621.5,1129.5 Z"/></g>
<g><path style="opacity:1" fill="#4c8cca" d="M 641.5,1136.5 C 644.135,1139.08 646.301,1142.08 648,1145.5C 671.863,1189.23 695.696,1232.9 719.5,1276.5C 704.412,1359.12 732.078,1422.96 802.5,1468C 814.207,1474.91 826.207,1481.07 838.5,1486.5C 848.009,1506.51 858.843,1525.85 871,1544.5C 871.333,1545.83 871.667,1547.17 872,1548.5C 887.267,1574.7 902.267,1601.04 917,1627.5C 924.806,1643.78 933.64,1659.45 943.5,1674.5C 942.675,1675.39 941.675,1675.72 940.5,1675.5C 921.775,1674.73 903.108,1673.23 884.5,1671C 869.238,1669.66 854.238,1667.49 839.5,1664.5C 778.17,1552.85 716.003,1441.52 653,1330.5C 636.741,1299.64 619.741,1269.31 602,1239.5C 597.957,1231.08 593.624,1222.75 589,1214.5C 588.292,1213.62 587.458,1212.95 586.5,1212.5C 602.516,1185.48 620.85,1160.15 641.5,1136.5 Z"/></g>
<g><path style="opacity:1" fill="#1c73b8" d="M 1640.5,1135.5 C 1658.88,1142.02 1676.88,1149.68 1694.5,1158.5C 1741.54,1241.59 1789.88,1323.92 1839.5,1405.5C 1837.12,1422.57 1833.45,1439.24 1828.5,1455.5C 1802.01,1411.19 1775.51,1366.86 1749,1322.5C 1742.79,1312.08 1737.12,1301.41 1732,1290.5C 1700.97,1239.11 1670.47,1187.44 1640.5,1135.5 Z"/></g>
<g><path style="opacity:1" fill="#1870b6" d="M 1694.5,1158.5 C 1702.15,1161.99 1709.49,1165.99 1716.5,1170.5C 1755.37,1239.9 1795.54,1308.57 1837,1376.5C 1839.94,1380.71 1841.11,1385.38 1840.5,1390.5C 1840.66,1395.55 1840.33,1400.55 1839.5,1405.5C 1789.88,1323.92 1741.54,1241.59 1694.5,1158.5 Z"/></g>
<g><path style="opacity:1" fill="#5295d1" d="M 1067.5,1163.5 C 1099.49,1218.13 1131.49,1272.8 1163.5,1327.5C 1110.44,1286.62 1057.77,1245.12 1005.5,1203C 1026.05,1189.56 1046.72,1176.4 1067.5,1163.5 Z"/></g>
<g><path style="opacity:1" fill="#156eb4" d="M 1716.5,1170.5 C 1731.59,1179.04 1745.59,1189.04 1758.5,1200.5C 1761.72,1207.27 1765.22,1213.94 1769,1220.5C 1792.79,1259.76 1816.29,1299.1 1839.5,1338.5C 1841.61,1355.94 1841.95,1373.27 1840.5,1390.5C 1841.11,1385.38 1839.94,1380.71 1837,1376.5C 1795.54,1308.57 1755.37,1239.9 1716.5,1170.5 Z"/></g>
<g><path style="opacity:1" fill="#116cb2" d="M 1758.5,1200.5 C 1802.97,1236.03 1829.97,1282.03 1839.5,1338.5C 1816.29,1299.1 1792.79,1259.76 1769,1220.5C 1765.22,1213.94 1761.72,1207.27 1758.5,1200.5 Z"/></g>
<g><path style="opacity:0.964" fill="#2f3b67" d="M 1004.5,1208.5 C 1058.8,1251.66 1113.14,1294.82 1167.5,1338C 1169.47,1338.5 1171.47,1338.66 1173.5,1338.5C 1182.64,1349.43 1191.31,1360.77 1199.5,1372.5C 1197.23,1373.76 1194.89,1373.6 1192.5,1372C 1139.45,1329.29 1086.12,1286.95 1032.5,1245C 1022.16,1233.51 1012.83,1221.34 1004.5,1208.5 Z"/></g>
<g><path style="opacity:1" fill="#4f90cd" d="M 586.5,1212.5 C 587.458,1212.95 588.292,1213.62 589,1214.5C 593.624,1222.75 597.957,1231.08 602,1239.5C 619.741,1269.31 636.741,1299.64 653,1330.5C 716.003,1441.52 778.17,1552.85 839.5,1664.5C 825.882,1662.98 812.549,1660.31 799.5,1656.5C 775.744,1611.66 750.911,1567.33 725,1523.5C 701.028,1478.22 676.028,1433.55 650,1389.5C 625.695,1343.55 600.361,1298.22 574,1253.5C 573.649,1249.44 571.815,1246.44 568.5,1244.5C 573.96,1233.37 579.96,1222.71 586.5,1212.5 Z"/></g>
<g><path style="opacity:0.991" fill="#344274" d="M 737.5,1227.5 C 747.147,1235.48 756.814,1243.48 766.5,1251.5C 757.261,1276.69 751.594,1302.69 749.5,1329.5C 747.068,1328.25 744.734,1326.75 742.5,1325C 734.97,1318.3 727.636,1311.47 720.5,1304.5C 722.563,1277.93 728.23,1252.26 737.5,1227.5 Z"/></g>
<g><path style="opacity:1" fill="#5191ce" d="M 568.5,1244.5 C 571.815,1246.44 573.649,1249.44 574,1253.5C 600.361,1298.22 625.695,1343.55 650,1389.5C 676.028,1433.55 701.028,1478.22 725,1523.5C 750.911,1567.33 775.744,1611.66 799.5,1656.5C 792.245,1655.45 785.245,1653.79 778.5,1651.5C 776.559,1650.33 775.059,1648.66 774,1646.5C 769,1637.83 764,1629.17 759,1620.5C 749,1601.83 739,1583.17 729,1564.5C 704.206,1521.91 680.206,1478.91 657,1435.5C 630.972,1391.45 605.972,1346.78 582,1301.5C 574.977,1288.77 567.477,1276.44 559.5,1264.5C 561.951,1257.6 564.951,1250.93 568.5,1244.5 Z"/></g>
<g><path style="opacity:0.99" fill="#303c68" d="M 1633.5,1366.5 C 1598.94,1336.89 1559.28,1316.72 1514.5,1306C 1491.15,1300.16 1467.48,1296.16 1443.5,1294C 1419.68,1292.46 1395.85,1291.29 1372,1290.5C 1322.17,1292.3 1272.67,1297.3 1223.5,1305.5C 1214.58,1293.98 1205.91,1282.32 1197.5,1270.5C 1224.14,1266.94 1250.81,1263.44 1277.5,1260C 1300.83,1258.57 1324.16,1257.41 1347.5,1256.5C 1370.51,1257.1 1393.51,1257.93 1416.5,1259C 1454.28,1262.39 1490.94,1270.39 1526.5,1283C 1553.54,1293.19 1578.21,1307.52 1600.5,1326C 1613.79,1337.82 1624.79,1351.32 1633.5,1366.5 Z"/></g>
<g><path style="opacity:1" fill="#5192cf" d="M 559.5,1264.5 C 567.477,1276.44 574.977,1288.77 582,1301.5C 605.972,1346.78 630.972,1391.45 657,1435.5C 680.206,1478.91 704.206,1521.91 729,1564.5C 739,1583.17 749,1601.83 759,1620.5C 764,1629.17 769,1637.83 774,1646.5C 775.059,1648.66 776.559,1650.33 778.5,1651.5C 768.609,1649.28 758.942,1646.61 749.5,1643.5C 750.552,1643.65 751.552,1643.48 752.5,1643C 747.017,1634.54 742.184,1625.7 738,1616.5C 690.374,1532.58 643.04,1448.58 596,1364.5C 585.667,1345.17 575.333,1325.83 565,1306.5C 560.642,1298.43 555.809,1290.76 550.5,1283.5C 552.936,1276.84 555.936,1270.5 559.5,1264.5 Z"/></g>
<g><path style="opacity:0.993" fill="#334172" d="M 1197.5,1270.5 C 1205.91,1282.32 1214.58,1293.98 1223.5,1305.5C 1215.87,1326.56 1208.7,1347.9 1202,1369.5C 1201.62,1370.94 1200.79,1371.94 1199.5,1372.5C 1191.31,1360.77 1182.64,1349.43 1173.5,1338.5C 1181.32,1315.69 1189.32,1293.02 1197.5,1270.5 Z"/></g>
<g><path style="opacity:1" fill="#5294d0" d="M 550.5,1283.5 C 555.809,1290.76 560.642,1298.43 565,1306.5C 575.333,1325.83 585.667,1345.17 596,1364.5C 643.04,1448.58 690.374,1532.58 738,1616.5C 742.184,1625.7 747.017,1634.54 752.5,1643C 751.552,1643.48 750.552,1643.65 749.5,1643.5C 732.722,1638.69 716.389,1632.69 700.5,1625.5C 680.038,1586.57 658.538,1548.24 636,1510.5C 635.027,1508.61 634.36,1506.61 634,1504.5C 617.333,1474.5 600.667,1444.5 584,1414.5C 568.406,1386.97 552.573,1359.64 536.5,1332.5C 539.94,1315.84 544.607,1299.51 550.5,1283.5 Z"/></g>
<g><path style="opacity:0.984" fill="#6aa943" d="M 2171.5,1304.5 C 2197.21,1301.92 2221.55,1306.42 2244.5,1318C 2262.23,1329.9 2272.9,1346.4 2276.5,1367.5C 2262.64,1369.97 2248.81,1372.64 2235,1375.5C 2232.61,1373.07 2230.94,1370.07 2230,1366.5C 2220.02,1350.17 2205.35,1341.84 2186,1341.5C 2152.47,1343.7 2132.8,1361.36 2127,1394.5C 2124.64,1411.7 2125.64,1428.7 2130,1445.5C 2141.07,1476.88 2163.24,1490.71 2196.5,1487C 2210.59,1484.37 2223.43,1478.87 2235,1470.5C 2235.5,1461.51 2235.67,1452.51 2235.5,1443.5C 2219.17,1443.5 2202.83,1443.5 2186.5,1443.5C 2186.5,1431.17 2186.5,1418.83 2186.5,1406.5C 2217.5,1406.5 2248.5,1406.5 2279.5,1406.5C 2279.67,1435.5 2279.5,1464.5 2279,1493.5C 2241.58,1522.31 2199.75,1531.48 2153.5,1521C 2115.33,1509.16 2092.16,1483.66 2084,1444.5C 2076.58,1410.67 2081.25,1378.67 2098,1348.5C 2115.65,1322.43 2140.15,1307.76 2171.5,1304.5 Z"/></g>
<g><path style="opacity:0.984" fill="#6aa841" d="M 2402.5,1304.5 C 2427.88,1302.01 2451.88,1306.51 2474.5,1318C 2492.24,1329.91 2502.91,1346.41 2506.5,1367.5C 2492.64,1369.97 2478.81,1372.64 2465,1375.5C 2456.17,1353.72 2439.84,1342.38 2416,1341.5C 2382.02,1343.82 2362.35,1361.82 2357,1395.5C 2354.37,1415.33 2356.37,1434.66 2363,1453.5C 2376,1479.76 2397.17,1490.92 2426.5,1487C 2440.59,1484.37 2453.43,1478.87 2465,1470.5C 2465.5,1461.51 2465.67,1452.51 2465.5,1443.5C 2449.17,1443.5 2432.83,1443.5 2416.5,1443.5C 2416.5,1431.17 2416.5,1418.83 2416.5,1406.5C 2447.5,1406.5 2478.5,1406.5 2509.5,1406.5C 2509.67,1435.5 2509.5,1464.5 2509,1493.5C 2471.59,1522.31 2429.76,1531.47 2383.5,1521C 2345.36,1509.19 2322.19,1483.69 2314,1444.5C 2306.74,1410.68 2311.4,1378.68 2328,1348.5C 2345.89,1322.14 2370.72,1307.47 2402.5,1304.5 Z"/></g>
<g><path style="opacity:0.984" fill="#505151" d="M 2683.5,1304.5 C 2702.16,1303.27 2720.49,1305.11 2738.5,1310C 2765.21,1319.88 2781.88,1338.71 2788.5,1366.5C 2774.45,1369.98 2760.29,1372.98 2746,1375.5C 2734.26,1348.54 2713.76,1337.71 2684.5,1343C 2658.7,1349.14 2643.53,1365.31 2639,1391.5C 2636.55,1409.29 2637.22,1426.96 2641,1444.5C 2651.93,1476.73 2674.43,1490.89 2708.5,1487C 2722.8,1484.24 2735.63,1478.41 2747,1469.5C 2747.5,1460.84 2747.67,1452.17 2747.5,1443.5C 2731.17,1443.5 2714.83,1443.5 2698.5,1443.5C 2698.5,1431.17 2698.5,1418.83 2698.5,1406.5C 2729.5,1406.5 2760.5,1406.5 2791.5,1406.5C 2791.67,1435.17 2791.5,1463.84 2791,1492.5C 2770.6,1509.61 2747.1,1520.11 2720.5,1524C 2692.38,1528.31 2665.72,1523.98 2640.5,1511C 2615.91,1495.04 2600.75,1472.54 2595,1443.5C 2588,1409.52 2593,1377.52 2610,1347.5C 2627.96,1322.05 2652.46,1307.72 2683.5,1304.5 Z"/></g>
<g><path style="opacity:0.989" fill="#374478" d="M 1813.5,1253.5 C 1857.93,1302.45 1877.26,1360.12 1871.5,1426.5C 1862.83,1415.5 1854.17,1404.5 1845.5,1393.5C 1850.25,1343.21 1839.58,1296.55 1813.5,1253.5 Z"/></g>
<g><path style="opacity:0.982" fill="#374579" d="M 720.5,1304.5 C 727.636,1311.47 734.97,1318.3 742.5,1325C 744.734,1326.75 747.068,1328.25 749.5,1329.5C 745.476,1376.09 758.476,1417.09 788.5,1452.5C 738.683,1415.74 716.016,1366.41 720.5,1304.5 Z"/></g>
<g><path style="opacity:1" fill="#5697d2" d="M 536.5,1332.5 C 552.573,1359.64 568.406,1386.97 584,1414.5C 600.667,1444.5 617.333,1474.5 634,1504.5C 634.36,1506.61 635.027,1508.61 636,1510.5C 658.538,1548.24 680.038,1586.57 700.5,1625.5C 646.549,1602.76 601.716,1568.09 566,1521.5C 528.237,1462.92 518.403,1399.92 536.5,1332.5 Z"/></g>
<g><path style="opacity:0.974" fill="#505151" d="M 2897.5,1362.5 C 2903.58,1362.73 2909.58,1363.56 2915.5,1365C 2920.43,1366.13 2924.76,1368.3 2928.5,1371.5C 2923.9,1383.46 2919.4,1395.46 2915,1407.5C 2903.77,1398.99 2892.27,1398.49 2880.5,1406C 2873.05,1416.96 2869.55,1429.13 2870,1442.5C 2869.5,1468.83 2869.33,1495.16 2869.5,1521.5C 2855.5,1521.5 2841.5,1521.5 2827.5,1521.5C 2827.5,1469.83 2827.5,1418.17 2827.5,1366.5C 2840.5,1366.5 2853.5,1366.5 2866.5,1366.5C 2866.33,1372.84 2866.5,1379.18 2867,1385.5C 2871.42,1379.07 2876.59,1373.24 2882.5,1368C 2887.3,1365.24 2892.3,1363.4 2897.5,1362.5 Z"/></g>
<g><path style="opacity:0.983" fill="#505151" d="M 3009.5,1362.5 C 3057.98,1362.81 3086.15,1386.81 3094,1434.5C 3097.23,1469.87 3084.06,1497.04 3054.5,1516C 3022.54,1530.48 2991.88,1528.14 2962.5,1509C 2942.98,1491.3 2933.64,1469.13 2934.5,1442.5C 2937.65,1395.03 2962.65,1368.36 3009.5,1362.5 Z M 3012.5,1396.5 C 3031.6,1397.43 3043.76,1407.09 3049,1425.5C 3053.64,1443.31 3051.64,1460.31 3043,1476.5C 3030.51,1491.6 3015.34,1495.1 2997.5,1487C 2983.09,1476.66 2976.42,1462.49 2977.5,1444.5C 2976.42,1426.84 2982.75,1412.67 2996.5,1402C 3001.59,1399.03 3006.92,1397.19 3012.5,1396.5 Z"/></g>
<g><path style="opacity:0.98" fill="#505151" d="M 3387.5,1362.5 C 3425.11,1364.6 3447.27,1384.27 3454,1421.5C 3457.52,1443.72 3455.52,1465.39 3448,1486.5C 3432.76,1518.04 3407.92,1530.2 3373.5,1523C 3363.03,1519.2 3354.2,1513.03 3347,1504.5C 3346.5,1529.83 3346.33,1555.16 3346.5,1580.5C 3332.5,1580.5 3318.5,1580.5 3304.5,1580.5C 3304.5,1509.17 3304.5,1437.83 3304.5,1366.5C 3317.5,1366.5 3330.5,1366.5 3343.5,1366.5C 3343.33,1373.51 3343.5,1380.51 3344,1387.5C 3354.91,1372.8 3369.41,1364.46 3387.5,1362.5 Z M 3377.5,1395.5 C 3395.49,1396.74 3406.66,1406.07 3411,1423.5C 3414.29,1437.5 3414.29,1451.5 3411,1465.5C 3404.16,1488.7 3389.33,1496.54 3366.5,1489C 3356.47,1482.95 3350.31,1474.12 3348,1462.5C 3344.72,1449.16 3344.72,1435.83 3348,1422.5C 3352.68,1407.64 3362.52,1398.64 3377.5,1395.5 Z"/></g>
<g><path style="opacity:0.99" fill="#505151" d="M 3125.5,1366.5 C 3139.17,1366.5 3152.83,1366.5 3166.5,1366.5C 3166.08,1402.19 3166.58,1437.85 3168,1473.5C 3170.44,1486.43 3178.27,1493.1 3191.5,1493.5C 3205.56,1492.9 3215.4,1486.23 3221,1473.5C 3222.98,1462.94 3223.98,1452.27 3224,1441.5C 3224.5,1416.5 3224.67,1391.5 3224.5,1366.5C 3238.17,1366.5 3251.83,1366.5 3265.5,1366.5C 3265.5,1418.17 3265.5,1469.83 3265.5,1521.5C 3252.83,1521.5 3240.17,1521.5 3227.5,1521.5C 3227.67,1514.16 3227.5,1506.83 3227,1499.5C 3208.34,1523.05 3184.5,1530.55 3155.5,1522C 3137.25,1514.69 3127.42,1501.19 3126,1481.5C 3125.5,1443.17 3125.33,1404.83 3125.5,1366.5 Z"/></g>
<g><path style="opacity:0.991" fill="#344273" d="M 1845.5,1393.5 C 1854.17,1404.5 1862.83,1415.5 1871.5,1426.5C 1869.25,1462.48 1860.59,1496.82 1845.5,1529.5C 1837.2,1519.02 1829.03,1508.35 1821,1497.5C 1820.33,1496.75 1819.5,1496.41 1818.5,1496.5C 1832.99,1463.67 1841.99,1429.34 1845.5,1393.5 Z"/></g>
<g><path style="opacity:1" fill="#3975b9" d="M 1225.5,1459.5 C 1253.58,1510.67 1281.92,1561.67 1310.5,1612.5C 1300.87,1619.32 1290.87,1625.65 1280.5,1631.5C 1250.81,1576.11 1220.15,1521.44 1188.5,1467.5C 1191.69,1457.75 1195.19,1448.09 1199,1438.5C 1207.97,1445.31 1216.81,1452.31 1225.5,1459.5 Z"/></g>
<g><path style="opacity:1" fill="#3673b7" d="M 1225.5,1459.5 C 1271.83,1498.33 1318.33,1537 1365,1575.5C 1365.72,1577.11 1365.55,1578.61 1364.5,1580C 1346.86,1591.48 1328.86,1602.32 1310.5,1612.5C 1281.92,1561.67 1253.58,1510.67 1225.5,1459.5 Z"/></g>
<g><path style="opacity:1" fill="#3982c4" d="M 1661.5,1437.5 C 1693.29,1489.64 1724.29,1542.31 1754.5,1595.5C 1749.65,1603.2 1744.32,1610.53 1738.5,1617.5C 1712.62,1571.97 1685.96,1526.97 1658.5,1482.5C 1661.13,1467.63 1662.13,1452.63 1661.5,1437.5 Z"/></g>
<g><path style="opacity:1" fill="#3a77ba" d="M 1188.5,1467.5 C 1220.15,1521.44 1250.81,1576.11 1280.5,1631.5C 1274.37,1635.74 1268.04,1639.74 1261.5,1643.5C 1250.8,1622.44 1239.3,1601.77 1227,1581.5C 1219.71,1566.26 1211.38,1551.59 1202,1537.5C 1195.29,1524.41 1188.29,1511.41 1181,1498.5C 1180.24,1496.94 1179.07,1495.94 1177.5,1495.5C 1181.57,1486.28 1185.24,1476.95 1188.5,1467.5 Z"/></g>
<g><path style="opacity:1" fill="#3c84c5" d="M 1658.5,1482.5 C 1685.96,1526.97 1712.62,1571.97 1738.5,1617.5C 1731.93,1627.41 1724.26,1636.41 1715.5,1644.5C 1692.85,1606.54 1670.18,1568.54 1647.5,1530.5C 1648.96,1523.3 1651.12,1516.3 1654,1509.5C 1655.72,1500.52 1657.22,1491.52 1658.5,1482.5 Z"/></g>
<g><path style="opacity:1" fill="#4989c8" d="M 838.5,1486.5 C 846.79,1489.71 855.123,1492.71 863.5,1495.5C 896.833,1555.83 930.167,1616.17 963.5,1676.5C 955.648,1676.83 947.982,1676.49 940.5,1675.5C 941.675,1675.72 942.675,1675.39 943.5,1674.5C 933.64,1659.45 924.806,1643.78 917,1627.5C 902.267,1601.04 887.267,1574.7 872,1548.5C 871.667,1547.17 871.333,1545.83 871,1544.5C 858.843,1525.85 848.009,1506.51 838.5,1486.5 Z"/></g>
<g><path style="opacity:1" fill="#3d79bc" d="M 1177.5,1495.5 C 1179.07,1495.94 1180.24,1496.94 1181,1498.5C 1188.29,1511.41 1195.29,1524.41 1202,1537.5C 1211.38,1551.59 1219.71,1566.26 1227,1581.5C 1239.3,1601.77 1250.8,1622.44 1261.5,1643.5C 1253.71,1647.57 1246.38,1652.4 1239.5,1658C 1231.84,1662.5 1224.17,1667 1216.5,1671.5C 1187.66,1618.63 1158.32,1565.96 1128.5,1513.5C 1142.85,1511 1157.18,1508.5 1171.5,1506C 1174.94,1503.29 1176.94,1499.79 1177.5,1495.5 Z"/></g>
<g><path style="opacity:1" fill="#4888c7" d="M 863.5,1495.5 C 871.846,1498.43 880.179,1501.09 888.5,1503.5C 899.282,1525.06 911.116,1546.06 924,1566.5C 926.194,1570.75 928.194,1575.08 930,1579.5C 944.478,1605.26 959.145,1630.93 974,1656.5C 976.66,1663.99 980.494,1670.82 985.5,1677C 980.845,1677.5 976.179,1677.67 971.5,1677.5C 968.763,1677.6 966.096,1677.27 963.5,1676.5C 930.167,1616.17 896.833,1555.83 863.5,1495.5 Z"/></g>
<g><path style="opacity:0.992" fill="#323f6e" d="M 1818.5,1496.5 C 1819.5,1496.41 1820.33,1496.75 1821,1497.5C 1829.03,1508.35 1837.2,1519.02 1845.5,1529.5C 1840.89,1540.72 1835.72,1551.72 1830,1562.5C 1811.72,1596.58 1790.55,1628.58 1766.5,1658.5C 1757.48,1647.48 1748.81,1636.14 1740.5,1624.5C 1754.81,1604.68 1768.98,1584.68 1783,1564.5C 1789.93,1551.24 1797.27,1538.24 1805,1525.5C 1810.07,1516.02 1814.57,1506.35 1818.5,1496.5 Z"/></g>
<g><path style="opacity:1" fill="#4685c5" d="M 888.5,1503.5 C 908.752,1507.65 929.085,1511.48 949.5,1515C 960.557,1515.85 971.557,1516.68 982.5,1517.5C 1011.49,1569.47 1040.49,1621.47 1069.5,1673.5C 1067.37,1674.17 1065.37,1674.84 1063.5,1675.5C 1039.35,1676.59 1015.18,1677.59 991,1678.5C 984.325,1678.5 977.825,1678.17 971.5,1677.5C 976.179,1677.67 980.845,1677.5 985.5,1677C 980.494,1670.82 976.66,1663.99 974,1656.5C 959.145,1630.93 944.478,1605.26 930,1579.5C 928.194,1575.08 926.194,1570.75 924,1566.5C 911.116,1546.06 899.282,1525.06 888.5,1503.5 Z"/></g>
<g><path style="opacity:1" fill="#3f7bbd" d="M 1128.5,1513.5 C 1158.32,1565.96 1187.66,1618.63 1216.5,1671.5C 1211.33,1674.25 1206.33,1677.25 1201.5,1680.5C 1178.9,1641.65 1157.07,1602.31 1136,1562.5C 1126.62,1547.07 1117.79,1531.4 1109.5,1515.5C 1115.74,1514.38 1122.07,1513.71 1128.5,1513.5 Z"/></g>
<g><path style="opacity:1" fill="#407ec0" d="M 1109.5,1515.5 C 1117.79,1531.4 1126.62,1547.07 1136,1562.5C 1157.07,1602.31 1178.9,1641.65 1201.5,1680.5C 1171.27,1698.72 1141.27,1717.38 1111.5,1736.5C 1111.17,1736.17 1110.83,1735.83 1110.5,1735.5C 1119.99,1714.87 1128.99,1694.04 1137.5,1673C 1136.83,1671.15 1135.5,1669.99 1133.5,1669.5C 1130.24,1670.42 1126.91,1670.75 1123.5,1670.5C 1096.41,1619.72 1068.41,1569.39 1039.5,1519.5C 1062.69,1518.29 1086.02,1516.96 1109.5,1515.5 Z"/></g>
<g><path style="opacity:1" fill="#4381c2" d="M 982.5,1517.5 C 1001.49,1518.34 1020.49,1519.01 1039.5,1519.5C 1068.41,1569.39 1096.41,1619.72 1123.5,1670.5C 1103.56,1672.52 1083.56,1674.19 1063.5,1675.5C 1065.37,1674.84 1067.37,1674.17 1069.5,1673.5C 1040.49,1621.47 1011.49,1569.47 982.5,1517.5 Z"/></g>
<g><path style="opacity:1" fill="#4087c7" d="M 1647.5,1530.5 C 1670.18,1568.54 1692.85,1606.54 1715.5,1644.5C 1705.09,1657.96 1693.76,1670.63 1681.5,1682.5C 1662.67,1649.5 1643.33,1616.83 1623.5,1584.5C 1632.63,1567.65 1640.13,1549.99 1646,1531.5C 1646.38,1530.94 1646.88,1530.61 1647.5,1530.5 Z"/></g>
<g><path style="opacity:0.879" fill="#364478" d="M 1369.5,1573.5 C 1378.5,1581.66 1387.67,1589.66 1397,1597.5C 1399.4,1599.98 1399.9,1602.64 1398.5,1605.5C 1389.17,1596.67 1380.01,1587.67 1371,1578.5C 1370.62,1579.06 1370.12,1579.39 1369.5,1579.5C 1369.5,1577.5 1369.5,1575.5 1369.5,1573.5 Z"/></g>
<g><path style="opacity:0.989" fill="#2f3b67" d="M 1398.5,1605.5 C 1395.8,1609.03 1392.46,1611.86 1388.5,1614C 1346.96,1638.59 1305.96,1663.93 1265.5,1690C 1222.41,1715.29 1179.91,1741.46 1138,1768.5C 1127.44,1760.64 1117.6,1751.97 1108.5,1742.5C 1140.2,1723.65 1171.53,1704.15 1202.5,1684C 1210.99,1679.59 1219.33,1674.92 1227.5,1670C 1272.26,1641.28 1317.59,1613.28 1363.5,1586C 1366.29,1584.46 1368.29,1582.3 1369.5,1579.5C 1370.12,1579.39 1370.62,1579.06 1371,1578.5C 1380.01,1587.67 1389.17,1596.67 1398.5,1605.5 Z"/></g>
<g><path style="opacity:1" fill="#438ac9" d="M 1623.5,1584.5 C 1643.33,1616.83 1662.67,1649.5 1681.5,1682.5C 1675.8,1689.2 1669.46,1695.2 1662.5,1700.5C 1644.45,1669.72 1626.45,1639.06 1608.5,1608.5C 1613,1600.16 1618,1592.16 1623.5,1584.5 Z"/></g>
<g><path style="opacity:0.985" fill="#303c68" d="M 620.5,1583.5 C 664.598,1616.05 713.264,1639.21 766.5,1653C 877.142,1680.23 989.142,1687.9 1102.5,1676C 1111.5,1675.33 1120.5,1675.33 1129.5,1676C 1130.31,1676.31 1130.97,1676.81 1131.5,1677.5C 1127.84,1686.44 1123.84,1695.11 1119.5,1703.5C 1066.53,1707.91 1013.53,1708.41 960.5,1705C 888.184,1701.34 817.851,1687.67 749.5,1664C 700.547,1646.22 657.547,1619.38 620.5,1583.5 Z"/></g>
<g><path style="opacity:1" fill="#478ccb" d="M 1608.5,1608.5 C 1626.45,1639.06 1644.45,1669.72 1662.5,1700.5C 1644.16,1719.8 1624.5,1737.47 1603.5,1753.5C 1597.95,1742.73 1592.11,1732.06 1586,1721.5C 1577.58,1708.99 1569.91,1695.99 1563,1682.5C 1562.29,1681.62 1561.46,1680.95 1560.5,1680.5C 1565.74,1673.05 1571.24,1665.71 1577,1658.5C 1587.27,1641.6 1597.77,1624.93 1608.5,1608.5 Z"/></g>
<g><path style="opacity:0.99" fill="#313d6b" d="M 1740.5,1624.5 C 1748.81,1636.14 1757.48,1647.48 1766.5,1658.5C 1750.5,1676.67 1734.67,1695 1719,1713.5C 1711.91,1721.09 1704.41,1728.09 1696.5,1734.5C 1687.72,1723.25 1678.72,1712.25 1669.5,1701.5C 1677.1,1694.4 1684.6,1687.06 1692,1679.5C 1707.66,1660.68 1723.83,1642.34 1740.5,1624.5 Z"/></g>
<g><path style="opacity:0.956" fill="#545556" d="M 2174.5,1642.5 C 2188.04,1641.28 2198.87,1645.94 2207,1656.5C 2208.87,1659.61 2210.03,1662.94 2210.5,1666.5C 2205.99,1667.42 2201.49,1668.42 2197,1669.5C 2194.41,1666.52 2191.91,1663.35 2189.5,1660C 2175.57,1653.44 2165.74,1657.27 2160,1671.5C 2157.92,1680.59 2158.25,1689.59 2161,1698.5C 2165.99,1708.41 2173.83,1711.91 2184.5,1709C 2187.1,1708.12 2189.27,1706.62 2191,1704.5C 2193.31,1701.08 2195.14,1697.41 2196.5,1693.5C 2201.6,1695.19 2206.6,1697.02 2211.5,1699C 2203.23,1721.3 2187.56,1728.97 2164.5,1722C 2152.38,1716.28 2145.22,1706.78 2143,1693.5C 2140.18,1677.95 2143.68,1664.12 2153.5,1652C 2159.66,1646.79 2166.66,1643.62 2174.5,1642.5 Z"/></g>
<g><path style="opacity:0.882" fill="#545556" d="M 2583.5,1642.5 C 2589.21,1642.17 2594.87,1642.5 2600.5,1643.5C 2595.65,1648.52 2590.98,1653.68 2586.5,1659C 2583.12,1659.82 2579.78,1659.66 2576.5,1658.5C 2578.85,1653.15 2581.18,1647.81 2583.5,1642.5 Z"/></g>
<g><path style="opacity:0.954" fill="#545556" d="M 2884.5,1642.5 C 2902.8,1640.81 2915.14,1648.47 2921.5,1665.5C 2916.97,1667.21 2912.31,1668.54 2907.5,1669.5C 2904.97,1666.32 2902.31,1663.15 2899.5,1660C 2883.92,1653.21 2874.08,1658.04 2870,1674.5C 2868.93,1682.99 2869.6,1691.33 2872,1699.5C 2877.16,1709.09 2885,1712.26 2895.5,1709C 2901.64,1705.53 2905.47,1700.36 2907,1693.5C 2911.45,1695.07 2915.95,1696.57 2920.5,1698C 2919.22,1710.79 2912.22,1719.12 2899.5,1723C 2870.24,1726.92 2854.58,1714.09 2852.5,1684.5C 2852.17,1661.73 2862.84,1647.73 2884.5,1642.5 Z"/></g>
<g><path style="opacity:0.95" fill="#545556" d="M 2735.5,1644.5 C 2740.83,1644.5 2746.17,1644.5 2751.5,1644.5C 2751.5,1670.5 2751.5,1696.5 2751.5,1722.5C 2746.5,1722.5 2741.5,1722.5 2736.5,1722.5C 2736.66,1720.47 2736.5,1718.47 2736,1716.5C 2723.67,1727.64 2712,1726.98 2701,1714.5C 2693.67,1700.83 2693.67,1687.17 2701,1673.5C 2707.4,1665.7 2715.57,1662.87 2725.5,1665C 2729.16,1666 2732.33,1667.84 2735,1670.5C 2735.5,1661.84 2735.67,1653.17 2735.5,1644.5 Z M 2719.5,1676.5 C 2727.69,1675.19 2732.86,1678.53 2735,1686.5C 2735.86,1692.59 2735.53,1698.59 2734,1704.5C 2729.99,1712.17 2724.16,1714 2716.5,1710C 2714.35,1707.53 2712.85,1704.7 2712,1701.5C 2710.9,1694.62 2711.57,1687.95 2714,1681.5C 2715.73,1679.6 2717.56,1677.93 2719.5,1676.5 Z"/></g>
<g><path style="opacity:0.974" fill="#545556" d="M 3000.5,1644.5 C 3005.5,1644.5 3010.5,1644.5 3015.5,1644.5C 3015.33,1653.51 3015.5,1662.51 3016,1671.5C 3024.08,1663.97 3033.25,1662.47 3043.5,1667C 3052.22,1673.61 3056.22,1682.44 3055.5,1693.5C 3056.2,1703.91 3052.86,1712.75 3045.5,1720C 3034.05,1726.98 3023.89,1725.48 3015,1715.5C 3014.5,1717.81 3014.34,1720.14 3014.5,1722.5C 3009.83,1722.5 3005.17,1722.5 3000.5,1722.5C 3000.5,1696.5 3000.5,1670.5 3000.5,1644.5 Z M 3024.5,1676.5 C 3034.07,1675.57 3039.24,1679.9 3040,1689.5C 3041.47,1697.88 3039.3,1705.05 3033.5,1711C 3025.22,1713.61 3019.72,1710.78 3017,1702.5C 3014.7,1694.89 3015.37,1687.55 3019,1680.5C 3020.81,1679.02 3022.65,1677.69 3024.5,1676.5 Z"/></g>
<g><path style="opacity:0.906" fill="#545556" d="M 2528.5,1645.5 C 2534.92,1646.12 2541.09,1647.79 2547,1650.5C 2549.15,1649.68 2550.65,1648.18 2551.5,1646C 2553.81,1645.5 2556.14,1645.34 2558.5,1645.5C 2559.62,1655.49 2555.29,1659.99 2545.5,1659C 2541.04,1657.35 2536.54,1655.85 2532,1654.5C 2530.15,1655.17 2528.99,1656.5 2528.5,1658.5C 2526.26,1659.47 2523.92,1659.81 2521.5,1659.5C 2520.19,1652.79 2522.52,1648.13 2528.5,1645.5 Z"/></g>
<g><path style="opacity:0.956" fill="#545556" d="M 2242.5,1664.5 C 2271.71,1663.91 2283.21,1677.91 2277,1706.5C 2268.26,1722.61 2255.09,1727.78 2237.5,1722C 2225.47,1716.61 2219.8,1707.28 2220.5,1694C 2220.9,1678.79 2228.24,1668.96 2242.5,1664.5 Z M 2246.5,1676.5 C 2254.58,1676.12 2259.75,1679.79 2262,1687.5C 2263.44,1694.7 2262.27,1701.37 2258.5,1707.5C 2251.75,1713.01 2245.25,1712.68 2239,1706.5C 2234.77,1699.02 2234.44,1691.35 2238,1683.5C 2240.46,1680.52 2243.3,1678.19 2246.5,1676.5 Z"/></g>
<g><path style="opacity:0.969" fill="#545556" d="M 2313.5,1664.5 C 2322.61,1662.65 2329.94,1665.31 2335.5,1672.5C 2343.46,1664.11 2352.79,1662.27 2363.5,1667C 2366.87,1669.36 2369.04,1672.53 2370,1676.5C 2370.5,1691.83 2370.67,1707.16 2370.5,1722.5C 2365.5,1722.5 2360.5,1722.5 2355.5,1722.5C 2355.91,1708.12 2355.41,1693.78 2354,1679.5C 2346.22,1674.37 2340.89,1676.37 2338,1685.5C 2337.5,1697.83 2337.33,1710.16 2337.5,1722.5C 2332.17,1722.5 2326.83,1722.5 2321.5,1722.5C 2321.67,1708.83 2321.5,1695.16 2321,1681.5C 2320.15,1677.9 2317.82,1676.23 2314,1676.5C 2309.27,1676.57 2306.27,1678.9 2305,1683.5C 2303.6,1696.45 2303.1,1709.45 2303.5,1722.5C 2298.5,1722.5 2293.5,1722.5 2288.5,1722.5C 2288.5,1703.5 2288.5,1684.5 2288.5,1665.5C 2293.17,1665.5 2297.83,1665.5 2302.5,1665.5C 2302.34,1667.53 2302.5,1669.53 2303,1671.5C 2306.15,1668.49 2309.65,1666.16 2313.5,1664.5 Z"/></g>
<g><path style="opacity:0.969" fill="#545556" d="M 2412.5,1664.5 C 2428.06,1663.23 2437.56,1670.23 2441,1685.5C 2443.08,1696.69 2441.08,1707.03 2435,1716.5C 2423.93,1727.09 2412.93,1727.09 2402,1716.5C 2401.5,1725.83 2401.33,1735.16 2401.5,1744.5C 2396.5,1744.5 2391.5,1744.5 2386.5,1744.5C 2386.5,1718.17 2386.5,1691.83 2386.5,1665.5C 2391.17,1665.5 2395.83,1665.5 2400.5,1665.5C 2400.34,1667.86 2400.5,1670.19 2401,1672.5C 2404.48,1669.16 2408.32,1666.49 2412.5,1664.5 Z M 2410.5,1676.5 C 2420.07,1675.57 2425.24,1679.9 2426,1689.5C 2427.47,1697.88 2425.3,1705.05 2419.5,1711C 2411.22,1713.61 2405.72,1710.78 2403,1702.5C 2400.85,1695.7 2401.18,1689.03 2404,1682.5C 2405.49,1679.69 2407.66,1677.69 2410.5,1676.5 Z"/></g>
<g><path style="opacity:0.961" fill="#545556" d="M 2465.5,1664.5 C 2472.91,1664.15 2480.24,1664.65 2487.5,1666C 2491.27,1667.44 2494.11,1669.94 2496,1673.5C 2497.27,1685.76 2497.94,1698.1 2498,1710.5C 2498.11,1714.51 2499.28,1718.17 2501.5,1721.5C 2496.21,1722.49 2490.87,1722.83 2485.5,1722.5C 2485.51,1720.69 2485.01,1719.02 2484,1717.5C 2474.42,1725.58 2464.25,1726.42 2453.5,1720C 2447.93,1713.08 2447.1,1705.58 2451,1697.5C 2452.87,1695.29 2455.04,1693.46 2457.5,1692C 2465.45,1689.64 2473.45,1687.48 2481.5,1685.5C 2482.79,1681.86 2481.79,1679.02 2478.5,1677C 2471.52,1674.83 2466.52,1676.99 2463.5,1683.5C 2459.23,1682.46 2454.9,1681.79 2450.5,1681.5C 2452.05,1672.69 2457.05,1667.02 2465.5,1664.5 Z M 2480.5,1695.5 C 2484.36,1704.58 2481.36,1710.58 2471.5,1713.5C 2464.81,1711.79 2462.65,1707.79 2465,1701.5C 2469.97,1698.81 2475.13,1696.81 2480.5,1695.5 Z"/></g>
<g><path style="opacity:0.964" fill="#545556" d="M 2538.5,1664.5 C 2548.1,1662.53 2555.93,1665.2 2562,1672.5C 2562.92,1675.1 2563.59,1677.77 2564,1680.5C 2564.5,1694.5 2564.67,1708.5 2564.5,1722.5C 2559.17,1722.5 2553.83,1722.5 2548.5,1722.5C 2548.67,1709.16 2548.5,1695.83 2548,1682.5C 2546.84,1678.17 2544.01,1676.17 2539.5,1676.5C 2534.55,1676.61 2531.05,1678.94 2529,1683.5C 2527.62,1696.45 2527.12,1709.45 2527.5,1722.5C 2522.5,1722.5 2517.5,1722.5 2512.5,1722.5C 2512.5,1703.5 2512.5,1684.5 2512.5,1665.5C 2517.17,1665.5 2521.83,1665.5 2526.5,1665.5C 2526.34,1668.19 2526.5,1670.85 2527,1673.5C 2527.47,1672.07 2528.3,1670.9 2529.5,1670C 2532.56,1668.14 2535.56,1666.31 2538.5,1664.5 Z"/></g>
<g><path style="opacity:0.951" fill="#545556" d="M 2622.5,1664.5 C 2628.51,1664.33 2634.51,1664.5 2640.5,1665C 2648.8,1666.3 2653.3,1671.13 2654,1679.5C 2654.33,1691.17 2654.67,1702.83 2655,1714.5C 2655.76,1717.2 2656.93,1719.7 2658.5,1722C 2653.14,1722.83 2647.8,1722.66 2642.5,1721.5C 2642.02,1720.07 2641.36,1718.74 2640.5,1717.5C 2628.94,1727.15 2617.78,1726.82 2607,1716.5C 2602.09,1704.9 2605.25,1696.4 2616.5,1691C 2623.2,1689.46 2629.87,1687.79 2636.5,1686C 2639.83,1679.61 2637.66,1676.44 2630,1676.5C 2627.7,1676.49 2625.53,1676.99 2623.5,1678C 2622.52,1680.14 2621.19,1681.97 2619.5,1683.5C 2615.11,1682.78 2610.77,1681.78 2606.5,1680.5C 2608.92,1672.08 2614.25,1666.75 2622.5,1664.5 Z M 2636.5,1695.5 C 2637.79,1696.87 2638.45,1698.7 2638.5,1701C 2637.92,1710.79 2632.92,1714.45 2623.5,1712C 2618.98,1706.78 2619.65,1702.45 2625.5,1699C 2629.43,1698.28 2633.09,1697.11 2636.5,1695.5 Z"/></g>
<g><path style="opacity:0.962" fill="#545556" d="M 2780.5,1664.5 C 2804.76,1662.76 2816.09,1674.09 2814.5,1698.5C 2801.83,1698.5 2789.17,1698.5 2776.5,1698.5C 2778.02,1709.58 2784.02,1713.58 2794.5,1710.5C 2796.03,1708.81 2797.36,1706.97 2798.5,1705C 2802.85,1704.76 2807.18,1705.1 2811.5,1706C 2812.31,1706.31 2812.97,1706.81 2813.5,1707.5C 2806.59,1722.12 2795.26,1727.29 2779.5,1723C 2769.66,1720.18 2763.82,1713.68 2762,1703.5C 2759.92,1692.31 2761.92,1681.97 2768,1672.5C 2771.67,1668.92 2775.84,1666.26 2780.5,1664.5 Z M 2784.5,1676.5 C 2794.12,1675.48 2799.12,1679.81 2799.5,1689.5C 2792.17,1689.5 2784.83,1689.5 2777.5,1689.5C 2776.97,1683.56 2779.3,1679.23 2784.5,1676.5 Z"/></g>
<g><path style="opacity:0.956" fill="#545556" d="M 2952.5,1664.5 C 2981.71,1663.91 2993.21,1677.91 2987,1706.5C 2978.26,1722.61 2965.09,1727.78 2947.5,1722C 2935.47,1716.61 2929.8,1707.28 2930.5,1694C 2930.9,1678.79 2938.24,1668.96 2952.5,1664.5 Z M 2956.5,1676.5 C 2964.58,1676.12 2969.75,1679.79 2972,1687.5C 2973.44,1694.7 2972.27,1701.37 2968.5,1707.5C 2961.75,1713.01 2955.25,1712.68 2949,1706.5C 2944.77,1699.02 2944.44,1691.35 2948,1683.5C 2950.46,1680.52 2953.3,1678.19 2956.5,1676.5 Z"/></g>
<g><path style="opacity:0.974" fill="#545556" d="M 3088.5,1664.5 C 3091.85,1664.33 3095.18,1664.5 3098.5,1665C 3100.22,1665.52 3101.56,1666.52 3102.5,1668C 3101.32,1672.38 3099.65,1676.54 3097.5,1680.5C 3091.84,1677.04 3087.34,1678.04 3084,1683.5C 3082.93,1687.08 3082.26,1690.75 3082,1694.5C 3081.5,1703.83 3081.33,1713.16 3081.5,1722.5C 3076.5,1722.5 3071.5,1722.5 3066.5,1722.5C 3066.5,1703.5 3066.5,1684.5 3066.5,1665.5C 3071.17,1665.5 3075.83,1665.5 3080.5,1665.5C 3080.34,1667.86 3080.5,1670.19 3081,1672.5C 3083.03,1669.31 3085.53,1666.64 3088.5,1664.5 Z"/></g>
<g><path style="opacity:0.961" fill="#545556" d="M 3121.5,1664.5 C 3128.91,1664.15 3136.24,1664.65 3143.5,1666C 3147.27,1667.44 3150.11,1669.94 3152,1673.5C 3153.27,1685.76 3153.94,1698.1 3154,1710.5C 3154.11,1714.51 3155.28,1718.17 3157.5,1721.5C 3152.21,1722.49 3146.87,1722.83 3141.5,1722.5C 3141.51,1720.69 3141.01,1719.02 3140,1717.5C 3130.42,1725.58 3120.25,1726.42 3109.5,1720C 3103.93,1713.08 3103.1,1705.58 3107,1697.5C 3108.87,1695.29 3111.04,1693.46 3113.5,1692C 3121.45,1689.64 3129.45,1687.48 3137.5,1685.5C 3138.79,1681.86 3137.79,1679.02 3134.5,1677C 3127.52,1674.83 3122.52,1676.99 3119.5,1683.5C 3115.23,1682.46 3110.9,1681.79 3106.5,1681.5C 3108.05,1672.69 3113.05,1667.02 3121.5,1664.5 Z M 3136.5,1695.5 C 3140.36,1704.58 3137.36,1710.58 3127.5,1713.5C 3120.81,1711.79 3118.65,1707.79 3121,1701.5C 3125.97,1698.81 3131.13,1696.81 3136.5,1695.5 Z"/></g>
<g><path style="opacity:0.959" fill="#545556" d="M 3195.5,1664.5 C 3202.22,1663.75 3208.55,1664.92 3214.5,1668C 3216.62,1669.73 3218.12,1671.9 3219,1674.5C 3220.45,1690.43 3220.95,1706.43 3220.5,1722.5C 3215.5,1722.5 3210.5,1722.5 3205.5,1722.5C 3205.91,1708.78 3205.41,1695.12 3204,1681.5C 3202.47,1678.07 3199.8,1676.4 3196,1676.5C 3189.98,1676.67 3186.31,1679.67 3185,1685.5C 3184.5,1697.83 3184.33,1710.16 3184.5,1722.5C 3179.17,1722.5 3173.83,1722.5 3168.5,1722.5C 3168.5,1703.5 3168.5,1684.5 3168.5,1665.5C 3173.5,1665.5 3178.5,1665.5 3183.5,1665.5C 3183.34,1667.86 3183.5,1670.19 3184,1672.5C 3187.15,1668.69 3190.98,1666.02 3195.5,1664.5 Z"/></g>
<g><path style="opacity:0.951" fill="#545556" d="M 3302.5,1664.5 C 3308.51,1664.33 3314.51,1664.5 3320.5,1665C 3328.8,1666.3 3333.3,1671.13 3334,1679.5C 3334.33,1691.17 3334.67,1702.83 3335,1714.5C 3335.76,1717.2 3336.93,1719.7 3338.5,1722C 3333.14,1722.83 3327.8,1722.66 3322.5,1721.5C 3322.02,1720.07 3321.36,1718.74 3320.5,1717.5C 3308.94,1727.15 3297.78,1726.82 3287,1716.5C 3282.09,1704.9 3285.25,1696.4 3296.5,1691C 3303.2,1689.46 3309.87,1687.79 3316.5,1686C 3319.83,1679.61 3317.66,1676.44 3310,1676.5C 3307.7,1676.49 3305.53,1676.99 3303.5,1678C 3302.52,1680.14 3301.19,1681.97 3299.5,1683.5C 3295.11,1682.78 3290.77,1681.78 3286.5,1680.5C 3288.92,1672.08 3294.25,1666.75 3302.5,1664.5 Z M 3316.5,1695.5 C 3317.79,1696.87 3318.45,1698.7 3318.5,1701C 3317.92,1710.79 3312.92,1714.45 3303.5,1712C 3298.98,1706.78 3299.65,1702.45 3305.5,1699C 3309.43,1698.28 3313.09,1697.11 3316.5,1695.5 Z"/></g>
<g><path style="opacity:0.952" fill="#545556" d="M 3361.5,1664.5 C 3370,1663.93 3378.33,1664.77 3386.5,1667C 3391.82,1670.01 3394.48,1674.34 3394.5,1680C 3390.42,1680.52 3386.42,1681.35 3382.5,1682.5C 3378.26,1675.89 3372.26,1673.72 3364.5,1676C 3359.72,1677.86 3359.38,1680.19 3363.5,1683C 3373.05,1685.39 3382.38,1688.39 3391.5,1692C 3397.12,1696.97 3398.95,1703.14 3397,1710.5C 3391.68,1720.33 3383.34,1725 3372,1724.5C 3363.24,1724.8 3355.58,1722.14 3349,1716.5C 3346.68,1713.52 3345.18,1710.19 3344.5,1706.5C 3349.22,1706.16 3353.89,1705.49 3358.5,1704.5C 3362.93,1712.59 3369.59,1715.09 3378.5,1712C 3382.5,1710.02 3383.17,1707.35 3380.5,1704C 3370.86,1701.92 3361.53,1698.92 3352.5,1695C 3345.96,1688.4 3344.79,1680.9 3349,1672.5C 3352.38,1668.41 3356.54,1665.74 3361.5,1664.5 Z"/></g>
<g><path style="opacity:0.93" fill="#545556" d="M 2578.5,1665.5 C 2583.83,1665.5 2589.17,1665.5 2594.5,1665.5C 2594.5,1684.5 2594.5,1703.5 2594.5,1722.5C 2589.17,1722.5 2583.83,1722.5 2578.5,1722.5C 2578.5,1703.5 2578.5,1684.5 2578.5,1665.5 Z"/></g>
<g><path style="opacity:0.963" fill="#545556" d="M 3231.5,1665.5 C 3247.17,1665.5 3262.83,1665.5 3278.5,1665.5C 3278.67,1669.51 3278.5,1673.51 3278,1677.5C 3268.87,1688.3 3259.37,1698.8 3249.5,1709C 3259.83,1709.5 3270.16,1709.67 3280.5,1709.5C 3280.5,1713.83 3280.5,1718.17 3280.5,1722.5C 3263.5,1722.5 3246.5,1722.5 3229.5,1722.5C 3229.33,1718.15 3229.5,1713.82 3230,1709.5C 3238.83,1699.33 3247.67,1689.17 3256.5,1679C 3248.17,1678.5 3239.84,1678.33 3231.5,1678.5C 3231.5,1674.17 3231.5,1669.83 3231.5,1665.5 Z"/></g>
<g><path style="opacity:1" fill="#4a90cd" d="M 1560.5,1680.5 C 1561.46,1680.95 1562.29,1681.62 1563,1682.5C 1569.91,1695.99 1577.58,1708.99 1586,1721.5C 1592.11,1732.06 1597.95,1742.73 1603.5,1753.5C 1595.09,1761.54 1586.09,1768.87 1576.5,1775.5C 1563.76,1753.03 1550.76,1730.7 1537.5,1708.5C 1545.17,1699.16 1552.84,1689.82 1560.5,1680.5 Z"/></g>
<g><path style="opacity:0.993" fill="#303c68" d="M 1669.5,1701.5 C 1678.72,1712.25 1687.72,1723.25 1696.5,1734.5C 1692.46,1739.54 1687.79,1743.87 1682.5,1747.5C 1673.36,1736.57 1664.69,1725.23 1656.5,1713.5C 1660.81,1709.53 1665.14,1705.53 1669.5,1701.5 Z"/></g>
<g><path style="opacity:1" fill="#4e92cf" d="M 1537.5,1708.5 C 1550.76,1730.7 1563.76,1753.03 1576.5,1775.5C 1543.19,1802.47 1508.19,1827.13 1471.5,1849.5C 1461.65,1833.8 1452.32,1817.8 1443.5,1801.5C 1458,1786.83 1473,1772.67 1488.5,1759C 1504.7,1741.97 1521.03,1725.13 1537.5,1708.5 Z"/></g>
<g><path style="opacity:0.988" fill="#313d6b" d="M 1656.5,1713.5 C 1664.69,1725.23 1673.36,1736.57 1682.5,1747.5C 1676.8,1754.2 1670.46,1760.2 1663.5,1765.5C 1655.19,1753.86 1646.52,1742.52 1637.5,1731.5C 1643.81,1725.53 1650.14,1719.53 1656.5,1713.5 Z"/></g>
<g><path style="opacity:0.992" fill="#303c68" d="M 1637.5,1731.5 C 1646.52,1742.52 1655.19,1753.86 1663.5,1765.5C 1652.95,1775.79 1641.95,1785.62 1630.5,1795C 1531.18,1874.71 1423.18,1941.38 1306.5,1995C 1238.62,2026.18 1168.95,2052.85 1097.5,2075C 1077.3,2080.97 1056.96,2086.47 1036.5,2091.5C 1034.97,2091.47 1033.8,2090.8 1033,2089.5C 1024.62,2078.62 1016.45,2067.62 1008.5,2056.5C 1018.24,2054.81 1027.91,2052.65 1037.5,2050C 1127.3,2024.25 1214.3,1991.58 1298.5,1952C 1377.27,1914.14 1452.27,1870.47 1523.5,1821C 1563.07,1793.27 1601.07,1763.43 1637.5,1731.5 Z"/></g>
<g><path style="opacity:1" fill="#5597d2" d="M 1443.5,1801.5 C 1452.32,1817.8 1461.65,1833.8 1471.5,1849.5C 1439.89,1869.98 1407.56,1889.48 1374.5,1908C 1279.87,1958.65 1181.53,2000.31 1079.5,2033C 1070.18,2035.73 1060.85,2038.06 1051.5,2040C 1194.46,1979.41 1325.13,1899.91 1443.5,1801.5 Z"/></g>
<g><path style="opacity:0.004" fill="#fbfbfb" d="M 2686.5,1880.5 C 2836.98,1877.14 2986.98,1883.98 3136.5,1901C 3211.34,1909.42 3285.01,1923.75 3357.5,1944C 3381.28,1951.06 3404.28,1960.06 3426.5,1971C 3441.3,1978.31 3454.14,1988.14 3465,2000.5C 3473.33,2011.72 3474.66,2023.72 3469,2036.5C 3458.59,2051.57 3445.09,2063.07 3428.5,2071C 3398.02,2085.83 3366.35,2097.49 3333.5,2106C 3260.42,2124.18 3186.42,2137.18 3111.5,2145C 2948.88,2161.99 2785.88,2166.99 2622.5,2160C 2507.32,2155.98 2392.98,2143.98 2279.5,2124C 2234.97,2115.95 2191.3,2104.62 2148.5,2090C 2124.33,2082.08 2101.99,2070.75 2081.5,2056C 2053.5,2033 2053.5,2010 2081.5,1987C 2099.84,1974.33 2119.51,1963.99 2140.5,1956C 2200.72,1935.19 2262.39,1920.19 2325.5,1911C 2445.34,1893.26 2565.68,1883.1 2686.5,1880.5 Z"/></g>
<g><path style="opacity:0.008" fill="#f6f6f6" d="M 2708.5,1884.5 C 2845.92,1882.32 2982.92,1888.82 3119.5,1904C 3186.66,1911.5 3252.99,1923.5 3318.5,1940C 3345.14,1947.21 3371.14,1956.21 3396.5,1967C 3415.14,1974.66 3431.31,1985.82 3445,2000.5C 3455,2014.5 3455,2028.5 3445,2042.5C 3428.79,2059.37 3409.62,2071.87 3387.5,2080C 3348.91,2095.23 3309.25,2106.9 3268.5,2115C 3153.89,2137.33 3038.22,2150.66 2921.5,2155C 2760.51,2162.5 2599.84,2158.17 2439.5,2142C 2364.91,2134.62 2291.25,2121.96 2218.5,2104C 2185.24,2095.69 2153.24,2084.03 2122.5,2069C 2066.5,2037.33 2066.5,2005.67 2122.5,1974C 2153.24,1958.97 2185.24,1947.31 2218.5,1939C 2282.73,1923.13 2347.73,1911.46 2413.5,1904C 2511.69,1892.9 2610.02,1886.4 2708.5,1884.5 Z"/></g>
<g><path style="opacity:0.014" fill="#f0f0f0" d="M 2734.5,1891.5 C 2869.38,1890.15 3003.71,1897.98 3137.5,1915C 3198.85,1922.94 3259.18,1935.6 3318.5,1953C 3347.29,1961.4 3373.96,1974.06 3398.5,1991C 3421.17,2011.33 3421.17,2031.67 3398.5,2052C 3381.11,2064.86 3362.11,2074.86 3341.5,2082C 3281.91,2102.19 3220.91,2116.52 3158.5,2125C 3028.47,2143.03 2897.8,2151.86 2766.5,2151.5C 2655.48,2151.5 2544.82,2145.33 2434.5,2133C 2366.91,2125.62 2300.24,2113.29 2234.5,2096C 2204.05,2087.85 2175.05,2076.19 2147.5,2061C 2139.75,2055.92 2132.59,2050.09 2126,2043.5C 2112.95,2024.81 2115.11,2007.98 2132.5,1993C 2145.19,1982.68 2159.19,1974.34 2174.5,1968C 2225.6,1948.06 2278.27,1933.72 2332.5,1925C 2437.14,1907.64 2542.47,1897.31 2648.5,1894C 2677.33,1893.21 2706,1892.37 2734.5,1891.5 Z"/></g>
<g><path style="opacity:0.019" fill="#eaeaea" d="M 2717.5,1898.5 C 2839.54,1896.74 2961.21,1902.57 3082.5,1916C 3144.99,1922.91 3206.66,1934.25 3267.5,1950C 3297.61,1957.81 3326.27,1969.14 3353.5,1984C 3392.17,2009 3392.17,2034 3353.5,2059C 3327.55,2073.32 3300.21,2084.32 3271.5,2092C 3206.76,2109.01 3141.1,2121.01 3074.5,2128C 2881.97,2148.42 2689.3,2149.76 2496.5,2132C 2422.27,2125.41 2348.94,2113.41 2276.5,2096C 2245.24,2088.36 2215.24,2077.36 2186.5,2063C 2175.85,2057.02 2166.35,2049.52 2158,2040.5C 2149.33,2027.83 2149.33,2015.17 2158,2002.5C 2164.82,1994.69 2172.65,1988.19 2181.5,1983C 2208.14,1968.67 2236.14,1957.67 2265.5,1950C 2326.34,1934.25 2388.01,1922.92 2450.5,1916C 2539.39,1906.05 2628.39,1900.22 2717.5,1898.5 Z"/></g>
<g><path style="opacity:0.025" fill="#e3e3e3" d="M 2747.5,1905.5 C 2860.58,1904.88 2973.25,1911.38 3085.5,1925C 3140.28,1931.8 3194.28,1942.46 3247.5,1957C 3275.26,1964.55 3301.26,1975.89 3325.5,1991C 3350.49,2008.88 3351.82,2028.21 3329.5,2049C 3313.61,2060.61 3296.28,2069.61 3277.5,2076C 3222.12,2094.48 3165.45,2107.48 3107.5,2115C 2895.75,2142.41 2683.75,2144.41 2471.5,2121C 2411,2114.42 2351.34,2103.42 2292.5,2088C 2262.35,2080.09 2234.02,2068.09 2207.5,2052C 2180.83,2031.67 2180.83,2011.33 2207.5,1991C 2230.88,1976.48 2255.88,1965.48 2282.5,1958C 2360.22,1937.1 2439.22,1923.44 2519.5,1917C 2595.51,1910.23 2671.51,1906.4 2747.5,1905.5 Z"/></g>
<g><path style="opacity:0.03" fill="#dddddd" d="M 2736.5,1913.5 C 2841.85,1912.53 2946.85,1918.03 3051.5,1930C 3107.33,1936.43 3162.33,1947.1 3216.5,1962C 3237.3,1968.04 3257.3,1976.04 3276.5,1986C 3287.09,1991.88 3295.93,1999.71 3303,2009.5C 3307.91,2020.28 3306.58,2030.28 3299,2039.5C 3287.3,2050.94 3273.8,2059.78 3258.5,2066C 3212.61,2083.81 3165.28,2096.31 3116.5,2103.5C 3027.39,2117.68 2937.72,2125.84 2847.5,2128C 2717.35,2132.37 2587.68,2126.37 2458.5,2110C 2400.91,2102.85 2344.57,2090.18 2289.5,2072C 2271.83,2065.67 2255.5,2057 2240.5,2046C 2222.12,2027.24 2223.45,2009.91 2244.5,1994C 2256.95,1985.44 2270.28,1978.44 2284.5,1973C 2334.56,1955.45 2385.89,1943.12 2438.5,1936C 2537.5,1922.1 2636.84,1914.6 2736.5,1913.5 Z"/></g>
<g><path style="opacity:0.036" fill="#d7d7d7" d="M 2721.5,1920.5 C 2823.81,1918.91 2925.81,1923.74 3027.5,1935C 3089.83,1941.4 3150.83,1954.07 3210.5,1973C 3226.95,1978.56 3242.28,1986.22 3256.5,1996C 3262.89,2001.04 3267.72,2007.21 3271,2014.5C 3273.25,2021.12 3272.58,2027.45 3269,2033.5C 3262.03,2043.13 3253.2,2050.63 3242.5,2056C 3209.31,2071.73 3174.64,2083.06 3138.5,2090C 3052.31,2106.92 2965.31,2116.92 2877.5,2120C 2747.77,2126.09 2618.44,2121.43 2489.5,2106C 2432.63,2099.49 2376.96,2087.49 2322.5,2070C 2305.55,2064.36 2289.89,2056.36 2275.5,2046C 2255.71,2029.69 2255.71,2013.36 2275.5,1997C 2297.71,1982.48 2321.71,1971.81 2347.5,1965C 2402.33,1950.25 2458,1939.92 2514.5,1934C 2583.47,1926.55 2652.47,1922.05 2721.5,1920.5 Z"/></g>
<g><path style="opacity:0.041" fill="#d1d1d1" d="M 2747.5,1927.5 C 2841.87,1926.85 2935.87,1932.35 3029.5,1944C 3080.62,1950.02 3130.62,1961.02 3179.5,1977C 3194.83,1982.5 3209.17,1989.83 3222.5,1999C 3239.83,2014 3239.83,2029 3222.5,2044C 3199.77,2058.92 3175.11,2069.58 3148.5,2076C 3077.85,2093.52 3006.18,2104.52 2933.5,2109C 2800.65,2118.78 2667.99,2116.78 2535.5,2103C 2480.98,2097.5 2427.31,2087.5 2374.5,2073C 2356.49,2067.66 2339.15,2060.66 2322.5,2052C 2312.39,2046.89 2304.55,2039.39 2299,2029.5C 2296.7,2022.55 2297.37,2015.88 2301,2009.5C 2310.73,1998.21 2322.56,1989.71 2336.5,1984C 2373.93,1968.98 2412.59,1958.31 2452.5,1952C 2506.16,1942.82 2560.16,1936.48 2614.5,1933C 2658.96,1930.21 2703.29,1928.38 2747.5,1927.5 Z"/></g>
<g><path style="opacity:0.046" fill="#cbcbcb" d="M 2729.5,1934.5 C 2816.76,1933.32 2903.76,1937.48 2990.5,1947C 3039.31,1952.25 3087.31,1961.58 3134.5,1975C 3155.6,1980.91 3174.93,1990.24 3192.5,2003C 3204.5,2015.33 3204.5,2027.67 3192.5,2040C 3179.5,2050 3165.17,2057.67 3149.5,2063C 3111.96,2075.31 3073.62,2084.31 3034.5,2090C 2865.35,2113.1 2696.01,2114.43 2526.5,2094C 2478.88,2088.34 2432.22,2078.34 2386.5,2064C 2371.4,2059.08 2357.4,2052.08 2344.5,2043C 2327.17,2028.67 2327.17,2014.33 2344.5,2000C 2363.38,1987.92 2383.71,1978.92 2405.5,1973C 2470.46,1956.06 2536.46,1945.4 2603.5,1941C 2645.61,1937.83 2687.61,1935.66 2729.5,1934.5 Z"/></g>
<g><path style="opacity:0.052" fill="#c4c4c4" d="M 2725.5,1942.5 C 2805.05,1941.18 2884.39,1944.68 2963.5,1953C 3006.4,1957.54 3048.74,1965.21 3090.5,1976C 3110.24,1981.13 3128.9,1988.8 3146.5,1999C 3168.52,2015.87 3167.52,2031.54 3143.5,2046C 3123.22,2056.76 3101.89,2064.76 3079.5,2070C 3019.9,2083.66 2959.57,2092.33 2898.5,2096C 2788.65,2103.49 2678.99,2101.49 2569.5,2090C 2518.8,2084.99 2469.14,2074.99 2420.5,2060C 2407,2055.25 2394.33,2048.92 2382.5,2041C 2366.5,2028 2366.5,2015 2382.5,2002C 2402.37,1989.71 2423.7,1980.71 2446.5,1975C 2504.37,1960.88 2563.03,1951.88 2622.5,1948C 2656.96,1945.56 2691.29,1943.72 2725.5,1942.5 Z"/></g>
<g><path style="opacity:0.057" fill="#bebebe" d="M 2737.5,1948.5 C 2809.71,1947.7 2881.71,1951.2 2953.5,1959C 2991.7,1963.17 3029.37,1970.17 3066.5,1980C 3083.65,1984.74 3099.98,1991.41 3115.5,2000C 3137.41,2016.27 3136.41,2031.27 3112.5,2045C 3095.58,2053.62 3077.92,2060.29 3059.5,2065C 3008.17,2077.29 2956.17,2085.29 2903.5,2089C 2801.41,2096.98 2699.41,2095.98 2597.5,2086C 2547.52,2081.67 2498.52,2072.34 2450.5,2058C 2435.55,2053.36 2421.88,2046.36 2409.5,2037C 2399.4,2027.28 2399.06,2017.28 2408.5,2007C 2418.6,1998.61 2429.94,1992.28 2442.5,1988C 2477.32,1976.1 2512.99,1967.77 2549.5,1963C 2612.05,1954.6 2674.71,1949.77 2737.5,1948.5 Z"/></g>
<g><path style="opacity:0.062" fill="#b8b8b8" d="M 2712.5,1956.5 C 2788.73,1954.33 2864.73,1957.5 2940.5,1966C 2982.24,1970.28 3022.91,1979.28 3062.5,1993C 3073.96,1997.14 3083.79,2003.64 3092,2012.5C 3095.33,2018.5 3095.33,2024.5 3092,2030.5C 3082.2,2040.32 3070.7,2047.49 3057.5,2052C 3028.81,2061.67 2999.48,2068.67 2969.5,2073C 2883.57,2085.01 2797.23,2089.34 2710.5,2086C 2653.42,2084.43 2596.75,2078.76 2540.5,2069C 2519.42,2065.23 2498.76,2059.9 2478.5,2053C 2467.94,2049.05 2457.94,2044.05 2448.5,2038C 2445.3,2035.13 2442.46,2031.96 2440,2028.5C 2437.63,2022.48 2438.29,2016.82 2442,2011.5C 2445.58,2007.25 2449.75,2003.75 2454.5,2001C 2483.71,1987.03 2514.38,1977.7 2546.5,1973C 2601.63,1963.97 2656.97,1958.47 2712.5,1956.5 Z"/></g>
<g><path style="opacity:0.068" fill="#b2b2b2" d="M 2723.5,1962.5 C 2805,1960.06 2886,1965.23 2966.5,1978C 2991.68,1982.17 3016.01,1989.17 3039.5,1999C 3046.46,2002.4 3052.63,2006.9 3058,2012.5C 3062.67,2018.5 3062.67,2024.5 3058,2030.5C 3050.07,2038.22 3040.9,2044.05 3030.5,2048C 3006.11,2056.68 2981.11,2063.01 2955.5,2067C 2850.83,2081.85 2745.83,2084.52 2640.5,2075C 2603.37,2071.81 2566.7,2065.81 2530.5,2057C 2512.14,2052.65 2495.14,2045.31 2479.5,2035C 2470.86,2028.13 2469.69,2020.29 2476,2011.5C 2483.07,2004.71 2491.23,1999.54 2500.5,1996C 2523.83,1987.17 2547.83,1980.83 2572.5,1977C 2622.69,1969.06 2673.02,1964.23 2723.5,1962.5 Z"/></g>
<g><path style="opacity:0.073" fill="#ababab" d="M 2721.5,1970.5 C 2791.85,1968.2 2861.85,1972.03 2931.5,1982C 2956.96,1985.86 2981.62,1992.53 3005.5,2002C 3031.32,2016.31 3030.66,2029.64 3003.5,2042C 2982.19,2050.44 2960.19,2056.44 2937.5,2060C 2865.24,2071.07 2792.57,2075.07 2719.5,2072C 2679.95,2070.68 2640.61,2067.01 2601.5,2061C 2583.58,2058.1 2565.92,2054.1 2548.5,2049C 2538.7,2046.1 2529.37,2042.1 2520.5,2037C 2506.41,2028.4 2505.41,2018.73 2517.5,2008C 2526.32,2002.59 2535.66,1998.26 2545.5,1995C 2578.89,1985.44 2612.89,1979.1 2647.5,1976C 2672.29,1973.66 2696.95,1971.83 2721.5,1970.5 Z"/></g>
<g><path style="opacity:0.077" fill="#a5a5a5" d="M 2729.5,1976.5 C 2792.87,1974.54 2855.87,1978.37 2918.5,1988C 2936.63,1990.95 2954.3,1995.62 2971.5,2002C 3000.83,2015 3000.83,2028 2971.5,2041C 2956.23,2046.73 2940.57,2051.07 2924.5,2054C 2838.86,2067.5 2752.86,2070.17 2666.5,2062C 2634.61,2059.35 2603.27,2053.68 2572.5,2045C 2561.58,2041.79 2551.74,2036.62 2543,2029.5C 2538.39,2022.73 2539.22,2016.56 2545.5,2011C 2555.01,2004.6 2565.34,1999.94 2576.5,1997C 2605.99,1988.86 2635.99,1983.53 2666.5,1981C 2687.64,1979.2 2708.64,1977.7 2729.5,1976.5 Z"/></g>
<g><path style="opacity:0.083" fill="#9f9f9f" d="M 2738.5,1982.5 C 2790.78,1981.23 2842.78,1984.4 2894.5,1992C 2916,1994.79 2936.33,2001.12 2955.5,2011C 2964.83,2018 2964.83,2025 2955.5,2032C 2938.21,2040.98 2919.88,2046.98 2900.5,2050C 2813.22,2063.6 2725.89,2063.93 2638.5,2051C 2617,2048.21 2596.67,2041.88 2577.5,2032C 2568.93,2025.6 2568.59,2018.93 2576.5,2012C 2594.22,2002.09 2613.22,1995.76 2633.5,1993C 2668.43,1987.24 2703.43,1983.74 2738.5,1982.5 Z"/></g>
<g><path style="opacity:0.088" fill="#999999" d="M 2748.5,1988.5 C 2793.13,1987.73 2837.46,1990.89 2881.5,1998C 2897.85,2000.56 2913.18,2005.89 2927.5,2014C 2933.23,2020.75 2932.23,2026.42 2924.5,2031C 2907.36,2039.16 2889.36,2044.49 2870.5,2047C 2797.39,2057.47 2724.39,2056.8 2651.5,2045C 2636.43,2042.53 2622.1,2037.87 2608.5,2031C 2602.9,2027.86 2601.07,2023.36 2603,2017.5C 2610.79,2010.19 2619.96,2005.35 2630.5,2003C 2669.46,1994.01 2708.8,1989.17 2748.5,1988.5 Z"/></g>
<g><path style="opacity:0.092" fill="#929292" d="M 2742.5,1995.5 C 2781.41,1994.38 2820.08,1996.88 2858.5,2003C 2870.43,2004.87 2881.76,2008.53 2892.5,2014C 2899.17,2019 2899.17,2024 2892.5,2029C 2878.2,2035.66 2863.2,2039.99 2847.5,2042C 2789.73,2049.85 2732.06,2049.18 2674.5,2040C 2662.04,2038.18 2650.37,2034.18 2639.5,2028C 2633.78,2021.87 2634.78,2016.87 2642.5,2013C 2661.42,2005.35 2681.09,2000.69 2701.5,1999C 2715.31,1997.66 2728.97,1996.49 2742.5,1995.5 Z"/></g>
<g><path style="opacity:0.097" fill="#8c8c8c" d="M 2756.5,2002.5 C 2783.37,2002.22 2810.04,2004.38 2836.5,2009C 2845.08,2010.41 2852.92,2013.58 2860,2018.5C 2861.22,2023.97 2859.05,2027.47 2853.5,2029C 2835.95,2034.7 2817.95,2038.04 2799.5,2039C 2764.96,2041.58 2730.62,2039.91 2696.5,2034C 2688.73,2032.52 2681.4,2029.85 2674.5,2026C 2671.51,2021.95 2672.18,2018.62 2676.5,2016C 2684.38,2011.95 2692.71,2009.28 2701.5,2008C 2719.88,2005.11 2738.22,2003.28 2756.5,2002.5 Z"/></g>
<g><path style="opacity:0.102" fill="#868686" d="M 2750.5,2008.5 C 2768.23,2008.11 2785.9,2008.94 2803.5,2011C 2810.68,2011.9 2817.68,2013.57 2824.5,2016C 2831.14,2018.52 2831.81,2021.86 2826.5,2026C 2816.53,2029.86 2806.2,2032.19 2795.5,2033C 2767.18,2036.15 2739.18,2034.48 2711.5,2028C 2700.83,2023.67 2700.83,2019.33 2711.5,2015C 2724.44,2011.6 2737.44,2009.43 2750.5,2008.5 Z"/></g>
<g><path style="opacity:0.106" fill="#818181" d="M 2756.5,2014.5 C 2771.08,2013.87 2785.41,2015.37 2799.5,2019C 2800.57,2019.74 2801.24,2020.74 2801.5,2022C 2799.29,2024.08 2796.62,2025.41 2793.5,2026C 2773.33,2029.81 2753.33,2029.14 2733.5,2024C 2731.99,2023.16 2731.49,2022 2732,2020.5C 2734.47,2018.56 2737.3,2017.4 2740.5,2017C 2745.99,2016.23 2751.32,2015.39 2756.5,2014.5 Z"/></g>
<g><path style="opacity:0.01" fill="#fbfbfb" d="M 1129.5,2219.5 C 1280.29,2216.57 1430.62,2223.4 1580.5,2240C 1662.87,2248.74 1743.87,2264.41 1823.5,2287C 1847.63,2294.38 1870.96,2303.71 1893.5,2315C 1907.08,2322.24 1919.25,2331.41 1930,2342.5C 1942.27,2357.9 1942.6,2373.57 1931,2389.5C 1921.27,2400.24 1910.1,2409.07 1897.5,2416C 1866.54,2431.88 1834.21,2444.21 1800.5,2453C 1726.16,2472.06 1650.83,2485.72 1574.5,2494C 1336.6,2519.6 1098.6,2520.6 860.5,2497C 777.454,2489.05 695.454,2475.05 614.5,2455C 577.656,2445.61 542.323,2432.28 508.5,2415C 494.84,2407.67 483.34,2397.84 474,2385.5C 465.106,2370.84 466.106,2356.84 477,2343.5C 492.366,2327.82 510.199,2315.65 530.5,2307C 575.737,2288.36 622.404,2274.36 670.5,2265C 785.479,2242.78 901.479,2229.11 1018.5,2224C 1055.65,2222.28 1092.65,2220.78 1129.5,2219.5 Z"/></g>
<g><path style="opacity:0.027" fill="#f6f6f6" d="M 1122.5,2225.5 C 1267.91,2222.31 1412.91,2228.48 1557.5,2244C 1639.2,2252.34 1719.53,2267.67 1798.5,2290C 1831.16,2299.21 1861.49,2313.21 1889.5,2332C 1897.9,2338.73 1904.4,2346.89 1909,2356.5C 1911.93,2366.46 1910.59,2375.79 1905,2384.5C 1895.27,2397.56 1883.11,2407.73 1868.5,2415C 1838.71,2429.82 1807.71,2441.49 1775.5,2450C 1704.45,2468.18 1632.45,2481.18 1559.5,2489C 1308.97,2516.32 1058.63,2514.65 808.5,2484C 752.907,2476.79 697.907,2466.46 643.5,2453C 606.607,2444.15 571.274,2431.15 537.5,2414C 523.503,2406.34 511.67,2396.17 502,2383.5C 494.826,2370.83 495.492,2358.5 504,2346.5C 511.559,2337.94 520.059,2330.44 529.5,2324C 558.915,2307.63 589.915,2294.97 622.5,2286C 691.819,2267.4 762.153,2254.07 833.5,2246C 929.684,2234.84 1026.02,2228.01 1122.5,2225.5 Z"/></g>
<g><path style="opacity:0.046" fill="#f0f0f0" d="M 1151.5,2232.5 C 1282.22,2230.64 1412.55,2236.81 1542.5,2251C 1610.01,2258.37 1676.68,2270.37 1742.5,2287C 1776.05,2295.45 1808.05,2307.78 1838.5,2324C 1849.29,2330.65 1858.79,2338.82 1867,2348.5C 1875.75,2361.95 1875.08,2374.95 1865,2387.5C 1850.29,2402.53 1833.12,2414.03 1813.5,2422C 1780.41,2435.47 1746.41,2446.14 1711.5,2454C 1630.33,2471.6 1548.33,2483.6 1465.5,2490C 1280.08,2504.83 1094.75,2503.83 909.5,2487C 831.95,2480.07 755.284,2467.74 679.5,2450C 644.953,2441.71 611.619,2430.04 579.5,2415C 563.978,2407.48 550.811,2396.98 540,2383.5C 532.086,2370.14 533.086,2357.47 543,2345.5C 559.058,2329.21 577.891,2317.04 599.5,2309C 635.524,2294.77 672.524,2283.77 710.5,2276C 817.16,2254.82 924.827,2241.82 1033.5,2237C 1072.98,2235.16 1112.32,2233.66 1151.5,2232.5 Z"/></g>
<g><path style="opacity:0.065" fill="#eaeaea" d="M 1126.5,2240.5 C 1261.23,2237.37 1395.57,2243.21 1529.5,2258C 1595.06,2265.26 1659.73,2277.26 1723.5,2294C 1745.36,2300.28 1766.69,2307.95 1787.5,2317C 1804.01,2324.34 1818.51,2334.5 1831,2347.5C 1840.38,2362.22 1839.38,2376.22 1828,2389.5C 1810.82,2404.68 1791.32,2416.18 1769.5,2424C 1711.27,2444.18 1651.6,2458.51 1590.5,2467C 1462.31,2484.98 1333.47,2493.81 1204,2493.5C 1086.38,2493.66 969.211,2486.49 852.5,2472C 787.317,2464.25 723.317,2450.91 660.5,2432C 635.562,2424.2 612.229,2413.2 590.5,2399C 581.213,2392.58 574.713,2384.08 571,2373.5C 568.955,2361.97 571.955,2351.97 580,2343.5C 593.224,2331.63 608.057,2322.13 624.5,2315C 657.867,2301.32 692.2,2290.66 727.5,2283C 821.235,2263.62 915.902,2251.28 1011.5,2246C 1049.97,2243.75 1088.31,2241.92 1126.5,2240.5 Z"/></g>
<g><path style="opacity:0.085" fill="#e3e3e3" d="M 1154.5,2247.5 C 1274.88,2245.68 1394.88,2251.52 1514.5,2265C 1574.3,2271.8 1633.3,2282.8 1691.5,2298C 1717.59,2304.92 1742.59,2314.58 1766.5,2327C 1777.51,2333.01 1787.01,2340.84 1795,2350.5C 1797.93,2355.47 1799.77,2360.8 1800.5,2366.5C 1798.14,2380.04 1791.14,2390.54 1779.5,2398C 1755.55,2412.99 1729.88,2424.33 1702.5,2432C 1646.72,2447.69 1590.05,2459.02 1532.5,2466C 1362.94,2486.26 1192.94,2490.93 1022.5,2480C 930.884,2475.05 840.217,2463.05 750.5,2444C 718.239,2436.8 686.906,2426.8 656.5,2414C 638.814,2406.97 623.981,2396.13 612,2381.5C 605.418,2369.49 606.418,2358.16 615,2347.5C 622.302,2339.86 630.469,2333.36 639.5,2328C 666.285,2314.18 694.285,2303.52 723.5,2296C 809,2275.21 895.667,2261.88 983.5,2256C 1040.59,2251.77 1097.59,2248.94 1154.5,2247.5 Z"/></g>
<g><path style="opacity:0.104" fill="#dddddd" d="M 1164.5,2255.5 C 1271.82,2254.23 1378.82,2259.4 1485.5,2271C 1540.47,2277.11 1594.81,2286.77 1648.5,2300C 1679,2307.61 1708,2318.94 1735.5,2334C 1745.44,2339.94 1752.94,2348.1 1758,2358.5C 1760.69,2369.08 1758.35,2378.42 1751,2386.5C 1735.11,2400.7 1716.94,2411.2 1696.5,2418C 1647.66,2434.71 1597.66,2446.71 1546.5,2454C 1414.81,2472.63 1282.48,2480.3 1149.5,2477C 1037.31,2475.71 925.979,2465.37 815.5,2446C 781.877,2439.68 748.877,2431.01 716.5,2420C 697.054,2413.28 679.054,2403.95 662.5,2392C 644.194,2375.66 643.861,2358.99 661.5,2342C 677.552,2329.81 695.219,2320.47 714.5,2314C 765.015,2297.12 816.682,2285.12 869.5,2278C 967.525,2264.43 1065.86,2256.93 1164.5,2255.5 Z"/></g>
<g><path style="opacity:0.122" fill="#d7d7d7" d="M 1163.5,2262.5 C 1265.14,2261.14 1366.47,2265.97 1467.5,2277C 1520.17,2282.67 1572.17,2292 1623.5,2305C 1652.95,2312.23 1680.61,2323.56 1706.5,2339C 1729.26,2355.57 1730.26,2373.24 1709.5,2392C 1694.83,2401.83 1679.17,2409.83 1662.5,2416C 1612.31,2432.64 1560.98,2444.3 1508.5,2451C 1334.54,2473.14 1160.21,2476.47 985.5,2461C 926.937,2456.06 868.937,2447.4 811.5,2435C 781.241,2428.47 751.907,2419.14 723.5,2407C 709.953,2400.82 698.119,2392.32 688,2381.5C 681.744,2370.92 682.077,2360.59 689,2350.5C 703.644,2336.08 720.811,2325.58 740.5,2319C 788.324,2302.5 837.324,2290.83 887.5,2284C 979.214,2271.19 1071.21,2264.02 1163.5,2262.5 Z"/></g>
<g><path style="opacity:0.141" fill="#d1d1d1" d="M 1168.5,2269.5 C 1267.51,2268.25 1366.18,2273.42 1464.5,2285C 1511.49,2290.66 1557.82,2299.66 1603.5,2312C 1626.05,2318.28 1647.38,2327.28 1667.5,2339C 1675.62,2344.06 1681.78,2350.9 1686,2359.5C 1688.4,2368.55 1686.4,2376.55 1680,2383.5C 1667.38,2395.23 1652.88,2404.07 1636.5,2410C 1592.63,2425.55 1547.63,2436.55 1501.5,2443C 1374.42,2460.83 1246.75,2467.16 1118.5,2462C 1037.28,2459.54 956.61,2451.54 876.5,2438C 835.499,2431.17 795.833,2419.83 757.5,2404C 745.608,2398.44 735.108,2390.94 726,2381.5C 718.506,2370.93 718.839,2360.6 727,2350.5C 733.312,2343.85 740.479,2338.35 748.5,2334C 772.061,2322.03 796.728,2313.03 822.5,2307C 891.645,2290.98 961.645,2280.65 1032.5,2276C 1077.95,2272.83 1123.28,2270.66 1168.5,2269.5 Z"/></g>
<g><path style="opacity:0.16" fill="#cbcbcb" d="M 1143.5,2277.5 C 1235.05,2275.43 1326.39,2278.93 1417.5,2288C 1478.09,2293.43 1537.42,2305.1 1595.5,2323C 1611.78,2328.31 1626.78,2335.97 1640.5,2346C 1656.94,2362.58 1655.27,2377.58 1635.5,2391C 1619.58,2400.98 1602.58,2408.64 1584.5,2414C 1524.23,2430.82 1462.9,2441.82 1400.5,2447C 1272.86,2459.12 1145.2,2459.45 1017.5,2448C 952.778,2442.95 889.111,2431.95 826.5,2415C 807.775,2409.65 790.108,2401.98 773.5,2392C 750.002,2375.71 749.668,2359.05 772.5,2342C 790.695,2331.15 810.029,2322.82 830.5,2317C 889.229,2301.38 948.896,2291.05 1009.5,2286C 1054.25,2282.02 1098.92,2279.18 1143.5,2277.5 Z"/></g>
<g><path style="opacity:0.18" fill="#c4c4c4" d="M 1177.5,2284.5 C 1263.17,2283.58 1348.5,2288.41 1433.5,2299C 1469.32,2303.56 1504.66,2310.56 1539.5,2320C 1560.17,2325.44 1579.5,2333.77 1597.5,2345C 1603.53,2349.23 1608.03,2354.73 1611,2361.5C 1612.59,2368.73 1610.92,2375.06 1606,2380.5C 1594,2391.59 1580.16,2399.76 1564.5,2405C 1527.03,2417.62 1488.7,2426.62 1449.5,2432C 1298.38,2452.03 1147.05,2453.7 995.5,2437C 952.22,2432.23 909.553,2424.23 867.5,2413C 846.46,2407.31 826.793,2398.64 808.5,2387C 792.296,2374.61 791.629,2361.61 806.5,2348C 819.551,2338.31 833.885,2330.97 849.5,2326C 883.501,2315.17 918.168,2307.17 953.5,2302C 1027.95,2291.47 1102.62,2285.64 1177.5,2284.5 Z"/></g>
<g><path style="opacity:0.197" fill="#bebebe" d="M 1170.5,2291.5 C 1248.08,2290.43 1325.42,2294.26 1402.5,2303C 1448.56,2307.81 1493.56,2317.48 1537.5,2332C 1551.51,2337.08 1564.01,2344.58 1575,2354.5C 1582.24,2366.5 1580.07,2376.66 1568.5,2385C 1550.64,2396.59 1531.31,2404.92 1510.5,2410C 1456.28,2423.54 1401.28,2432.2 1345.5,2436C 1240.08,2444.09 1134.74,2443.09 1029.5,2433C 982.433,2428.66 936.1,2420.32 890.5,2408C 872.769,2402.98 856.102,2395.65 840.5,2386C 824.942,2373.74 824.608,2361.08 839.5,2348C 856.501,2337.1 874.834,2329.1 894.5,2324C 950.657,2309.79 1007.66,2300.79 1065.5,2297C 1100.62,2294.45 1135.62,2292.62 1170.5,2291.5 Z"/></g>
<g><path style="opacity:0.216" fill="#b8b8b8" d="M 1175.5,2298.5 C 1260.69,2296.99 1345.35,2302.83 1429.5,2316C 1459.84,2320.89 1489.17,2329.23 1517.5,2341C 1524.21,2344.38 1530.38,2348.55 1536,2353.5C 1543.56,2361.02 1544.23,2369.02 1538,2377.5C 1530.28,2384.95 1521.45,2390.78 1511.5,2395C 1481.75,2406.44 1451.09,2414.44 1419.5,2419C 1296.5,2436.49 1173.17,2439.16 1049.5,2427C 1009.65,2423.36 970.314,2416.69 931.5,2407C 911.359,2402.26 892.693,2394.26 875.5,2383C 865.049,2375.37 863.216,2366.2 870,2355.5C 882.282,2344.44 896.449,2336.6 912.5,2332C 965.142,2316.95 1018.81,2307.61 1073.5,2304C 1107.62,2301.41 1141.62,2299.57 1175.5,2298.5 Z"/></g>
<g><path style="opacity:0.235" fill="#b1b1b1" d="M 1155.5,2306.5 C 1240.34,2303.72 1324.67,2308.88 1408.5,2322C 1437.89,2326.34 1465.89,2335.01 1492.5,2348C 1511.4,2361.01 1511.07,2373.68 1491.5,2386C 1475.84,2393.78 1459.5,2399.78 1442.5,2404C 1399.68,2413.78 1356.34,2420.12 1312.5,2423C 1228.75,2429.14 1145.09,2428.14 1061.5,2420C 1020.18,2416.27 979.684,2408.44 940,2396.5C 930.045,2392.94 920.545,2388.44 911.5,2383C 896.476,2371 897.142,2359.66 913.5,2349C 924.556,2342.64 936.223,2337.64 948.5,2334C 989.805,2322.78 1031.8,2315.45 1074.5,2312C 1101.62,2309.64 1128.62,2307.81 1155.5,2306.5 Z"/></g>
<g><path style="opacity:0.252" fill="#ababab" d="M 1178.5,2313.5 C 1247.95,2312.16 1316.95,2317 1385.5,2328C 1406.42,2331.65 1426.75,2337.31 1446.5,2345C 1477.45,2360.66 1476.78,2375.32 1444.5,2389C 1420.19,2397.99 1395.19,2404.33 1369.5,2408C 1255.06,2423.9 1140.73,2423.23 1026.5,2406C 1003.11,2402.15 980.442,2395.82 958.5,2387C 951.831,2384 945.998,2379.83 941,2374.5C 937.487,2368.59 937.821,2362.92 942,2357.5C 955.374,2346.73 970.54,2339.57 987.5,2336C 1024.3,2326.75 1061.64,2320.75 1099.5,2318C 1125.97,2316.02 1152.3,2314.52 1178.5,2313.5 Z"/></g>
<g><path style="opacity:0.268" fill="#a5a5a5" d="M 1175.5,2319.5 C 1239.94,2317.97 1303.94,2322.47 1367.5,2333C 1387.34,2336.39 1406.34,2342.39 1424.5,2351C 1440.87,2360.2 1441.54,2370.2 1426.5,2381C 1415.12,2387.24 1403.12,2391.91 1390.5,2395C 1341.13,2406.12 1291.13,2412.12 1240.5,2413C 1174.75,2415.56 1109.42,2411.56 1044.5,2401C 1021.61,2397.59 999.946,2390.59 979.5,2380C 967.013,2369.86 967.68,2360.53 981.5,2352C 1001.8,2342.12 1023.13,2335.46 1045.5,2332C 1088.71,2324.96 1132.04,2320.79 1175.5,2319.5 Z"/></g>
<g><path style="opacity:0.285" fill="#9f9f9f" d="M 1160.5,2326.5 C 1219.48,2324.09 1278.15,2327.26 1336.5,2336C 1355.9,2338.85 1374.57,2344.18 1392.5,2352C 1396.92,2354.41 1400.75,2357.58 1404,2361.5C 1406.7,2367.27 1405.53,2372.1 1400.5,2376C 1389.71,2382.93 1378.04,2387.93 1365.5,2391C 1319.09,2401.38 1272.09,2406.71 1224.5,2407C 1172.53,2408.36 1120.86,2405.02 1069.5,2397C 1049.18,2394.09 1029.85,2388.09 1011.5,2379C 1000.8,2372.99 999.465,2365.66 1007.5,2357C 1012.72,2353.22 1018.39,2350.22 1024.5,2348C 1054.43,2338.34 1085.1,2332.34 1116.5,2330C 1131.32,2328.8 1145.99,2327.63 1160.5,2326.5 Z"/></g>
<g><path style="opacity:0.302" fill="#999999" d="M 1192.5,2332.5 C 1241.68,2331.71 1290.34,2336.21 1338.5,2346C 1349.69,2348.43 1360.02,2352.77 1369.5,2359C 1375.09,2364.71 1374.76,2370.05 1368.5,2375C 1353.88,2383.24 1338.21,2388.58 1321.5,2391C 1243.16,2403.65 1164.83,2403.65 1086.5,2391C 1070.34,2388.46 1055.01,2383.46 1040.5,2376C 1032.08,2368.49 1032.75,2361.83 1042.5,2356C 1060.64,2347.71 1079.64,2342.38 1099.5,2340C 1130.52,2335.79 1161.52,2333.29 1192.5,2332.5 Z"/></g>
<g><path style="opacity:0.321" fill="#929292" d="M 1175.5,2339.5 C 1212.66,2338.3 1249.66,2340.13 1286.5,2345C 1303.01,2347.04 1318.68,2351.71 1333.5,2359C 1341.34,2364.71 1341.01,2370.04 1332.5,2375C 1320.14,2381.01 1307.14,2385.01 1293.5,2387C 1252.72,2393.11 1211.72,2395.11 1170.5,2393C 1140.83,2392.33 1111.83,2387.67 1083.5,2379C 1064.54,2371.94 1063.87,2363.94 1081.5,2355C 1096.73,2349.55 1112.4,2345.89 1128.5,2344C 1144.29,2342.21 1159.96,2340.71 1175.5,2339.5 Z"/></g>
<g><path style="opacity:0.338" fill="#8c8c8c" d="M 1180.5,2347.5 C 1211.36,2346.31 1242.03,2348.14 1272.5,2353C 1282.49,2354.55 1291.66,2358.05 1300,2363.5C 1300.67,2365.5 1300.67,2367.5 1300,2369.5C 1293.66,2374.4 1286.49,2377.56 1278.5,2379C 1244.43,2385.12 1210.1,2387.12 1175.5,2385C 1158.62,2384.14 1141.96,2381.81 1125.5,2378C 1120.26,2376.59 1115.26,2374.59 1110.5,2372C 1105.17,2368.33 1105.17,2364.67 1110.5,2361C 1118.47,2357.26 1126.81,2354.59 1135.5,2353C 1150.57,2350.5 1165.57,2348.66 1180.5,2347.5 Z"/></g>
<g><path style="opacity:0.354" fill="#868686" d="M 1183.5,2353.5 C 1203.56,2352.98 1223.56,2353.81 1243.5,2356C 1250.32,2357.04 1256.99,2358.71 1263.5,2361C 1265.98,2362.31 1267.98,2364.14 1269.5,2366.5C 1266.95,2370.45 1263.29,2372.95 1258.5,2374C 1248.32,2376.6 1237.99,2378.26 1227.5,2379C 1205.77,2380.1 1184.1,2379.43 1162.5,2377C 1153.91,2376.14 1146.07,2373.3 1139,2368.5C 1138.33,2367.17 1138.33,2365.83 1139,2364.5C 1144.92,2360.63 1151.42,2358.13 1158.5,2357C 1166.97,2355.74 1175.3,2354.57 1183.5,2353.5 Z"/></g>
<g><path style="opacity:0.368" fill="#818181" d="M 1192.5,2359.5 C 1207.76,2358.65 1222.76,2360.15 1237.5,2364C 1239.5,2365.15 1239.83,2366.65 1238.5,2368.5C 1232.15,2371.34 1225.49,2372.84 1218.5,2373C 1205.8,2373.82 1193.13,2373.49 1180.5,2372C 1176.72,2371.41 1173.06,2370.41 1169.5,2369C 1167.99,2368.16 1167.49,2367 1168,2365.5C 1170.54,2363.65 1173.38,2362.48 1176.5,2362C 1181.99,2361.23 1187.32,2360.39 1192.5,2359.5 Z"/></g>
</svg>
