<?xml version="1.0"?>
<svg width="2950" height="1400" xmlns="http://www.w3.org/2000/svg" xmlns:svg="http://www.w3.org/2000/svg" clip-rule="evenodd" fill-rule="evenodd" version="1.1">
 <g class="layer">
  <title>Layer 1</title>
  <g id="svg_1">
   <path d="m891.5,7.5c-3.64,5.32 -7.31,10.65 -11,16c-1.51,1.34 -3.18,2.5 -5,3.5c-176.09,61.68 -334.76,152.68 -476,273c-16.53,15.7 -32.87,31.53 -49,47.5c-16.72,17.74 -33.22,35.74 -49.5,54c-6.76,7.59 -12.93,15.59 -18.5,24c-26.25,34.48 -47.92,71.81 -65,112c-9.27,24.76 -14.94,50.43 -17,77c-4.48,61.91 18.18,111.24 68,148c32.16,22.57 67.49,38.4 106,47.5c34.79,8.75 70.12,13.42 106,14c56.83,2.39 113.17,-1.61 169,-12c9.33,-20.65 17.5,-41.81 24.5,-63.5c1.69,-3.71 4.52,-4.88 8.5,-3.5c55.7,46.17 111.36,92.34 167,138.5c0,2 0,4 0,6c-1.21,2.8 -3.21,4.96 -6,6.5c-45.91,27.28 -91.24,55.28 -136,84c-8.17,4.92 -16.51,9.59 -25,14c-30.97,20.15 -62.3,39.65 -94,58.5c-1.96,-0.48 -3.3,-1.64 -4,-3.5c5.15,-11.8 10.15,-23.63 15,-35.5c4.34,-8.39 8.34,-17.06 12,-26c-0.53,-0.69 -1.19,-1.19 -2,-1.5c-9,-0.67 -18,-0.67 -27,0c-113.36,11.9 -225.36,4.23 -336,-23c-53.24,-13.79 -101.9,-36.95 -146,-69.5c-84.63,-66.7 -113.79,-152.7 -87.5,-258c8.21,-32.96 20.54,-64.3 37,-94c25.02,-44.36 54.69,-85.36 89,-123c19.6,-20.65 39.76,-40.82 60.5,-60.5c27.46,-24.47 55.79,-47.8 85,-70c148.56,-107.28 311.23,-187.61 488,-241c38.98,-15.27 78.65,-28.44 119,-39.5z" fill="#405392" id="svg_2" opacity="0.95"/>
  </g>
  <g id="svg_3">
   <path d="m891.5,7.5c10.11,7.94 19.78,16.44 29,25.5c-3.46,5.95 -7.46,11.45 -12,16.5c-8.93,-8.93 -18.27,-17.6 -28,-26c3.69,-5.35 7.36,-10.68 11,-16z" fill="#313d6c" id="svg_4" opacity="0.94"/>
  </g>
  <g id="svg_5">
   <path d="m880.5,23.5c9.73,8.4 19.07,17.07 28,26c-0.93,0.82 -1.93,1.65 -3,2.5c-119.86,42.91 -232.86,98.91 -339,168c-28,20 -56,40 -84,60c-19.37,17.04 -39.04,33.71 -59,50c-14.54,14.04 -29.2,27.87 -44,41.5c-9.65,-7.98 -19.31,-15.98 -29,-24c16.13,-15.97 32.47,-31.8 49,-47.5c141.24,-120.32 299.91,-211.32 476,-273c1.82,-1 3.49,-2.16 5,-3.5z" fill="#2f3b67" id="svg_6" opacity="0.99"/>
  </g>
  <g id="svg_7">
   <path d="m778.5,60.5c-1.42,-3.17 -3.08,-6.17 -5,-9c33.92,-14.2 68.92,-25.86 105,-35c0.33,0.33 0.67,0.67 1,1c-1.48,1.98 -3.15,3.82 -5,5.5c-32.58,11.3 -64.58,23.8 -96,37.5z" fill="#265aa2" id="svg_8"/>
  </g>
  <g id="svg_9">
   <path d="m773.5,51.5c1.92,2.83 3.58,5.83 5,9c-19.15,8.41 -38.15,17.08 -57,26c-2.27,-4.77 -4.77,-9.44 -7.5,-14c-0.67,-0.75 -1.5,-1.09 -2.5,-1c20.41,-7.27 41.07,-13.94 62,-20z" fill="#285fa6" id="svg_10"/>
  </g>
  <g id="svg_101">
   <path d="m30.5,593.5c5.31,7.26 10.14,14.93 14.5,23c10.33,19.33 20.67,38.67 31,58c47.04,84.08 94.37,168.08 142,252c4.18,9.2 9.02,18.04 14.5,26.5c-0.95,0.48 -1.95,0.65 -3,0.5c-16.78,-4.81 -33.11,-10.81 -49,-18c-20.46,-38.93 -41.96,-77.26 -64.5,-115c-0.97,-1.89 -1.64,-3.89 -2,-6c-16.67,-30 -33.33,-60 -50,-90c-15.59,-27.53 -31.43,-54.86 -47.5,-82c3.44,-16.66 8.11,-32.99 14,-49z" fill="#5294d0" id="svg_102"/>
  </g>
  <g id="svg_99">
   <path d="m677.5,580.5c8.41,11.82 17.08,23.48 26,35c-7.63,21.06 -14.8,42.4 -21.5,64c-0.38,1.44 -1.21,2.44 -2.5,3c-8.19,-11.73 -16.86,-23.07 -26,-34c7.82,-22.81 15.82,-45.48 24,-68z" fill="#334172" id="svg_100" opacity="0.99"/>
  </g>
  <g id="svg_97">
   <path d="m39.5,574.5c7.98,11.94 15.48,24.27 22.5,37c23.97,45.28 48.97,89.95 75,134c23.21,43.41 47.21,86.41 72,129c10,18.67 20,37.33 30,56c5,8.67 10,17.33 15,26c1.06,2.16 2.56,3.83 4.5,5c-9.89,-2.22 -19.56,-4.89 -29,-8c1.05,0.15 2.05,-0.02 3,-0.5c-5.48,-8.46 -10.32,-17.3 -14.5,-26.5c-47.63,-83.92 -94.96,-167.92 -142,-252c-10.33,-19.33 -20.67,-38.67 -31,-58c-4.36,-8.07 -9.19,-15.74 -14.5,-23c2.44,-6.66 5.44,-13 9,-19z" fill="#5192cf" id="svg_98"/>
  </g>
  <g id="svg_95">
   <path d="m1113.5,676.5c-34.56,-29.61 -74.22,-49.78 -119,-60.5c-23.35,-5.84 -47.02,-9.84 -71,-12c-23.82,-1.54 -47.65,-2.71 -71.5,-3.5c-49.83,1.8 -99.33,6.8 -148.5,15c-8.92,-11.52 -17.59,-23.18 -26,-35c26.64,-3.56 53.31,-7.06 80,-10.5c23.33,-1.43 46.66,-2.59 70,-3.5c23.01,0.6 46.01,1.43 69,2.5c37.78,3.39 74.44,11.39 110,24c27.04,10.19 51.71,24.52 74,43c13.29,11.82 24.29,25.32 33,40.5z" fill="#303c68" id="svg_96" opacity="0.99"/>
  </g>
  <g id="svg_93">
   <path d="m48.5,554.5c3.32,1.94 5.15,4.94 5.5,9c26.36,44.72 51.7,90.05 76,136c26.03,44.05 51.03,88.72 75,134c25.91,43.83 50.74,88.16 74.5,133c-7.25,-1.05 -14.25,-2.71 -21,-5c-1.94,-1.17 -3.44,-2.84 -4.5,-5c-5,-8.67 -10,-17.33 -15,-26c-10,-18.67 -20,-37.33 -30,-56c-24.79,-42.59 -48.79,-85.59 -72,-129c-26.03,-44.05 -51.03,-88.72 -75,-134c-7.02,-12.73 -14.52,-25.06 -22.5,-37c2.45,-6.9 5.45,-13.57 9,-20z" fill="#5191ce" id="svg_94"/>
  </g>
  <g id="svg_91">
   <path d="m217.5,537.5c9.65,7.98 19.31,15.98 29,24c-9.24,25.19 -14.91,51.19 -17,78c-2.43,-1.25 -4.77,-2.75 -7,-4.5c-7.53,-6.7 -14.86,-13.53 -22,-20.5c2.06,-26.57 7.73,-52.24 17,-77z" fill="#344274" id="svg_92" opacity="0.99"/>
  </g>
  <g id="svg_89">
   <path d="m66.5,522.5c0.96,0.45 1.79,1.12 2.5,2c4.62,8.25 8.96,16.58 13,25c17.74,29.81 34.74,60.14 51,91c63,111.02 125.17,222.35 186.5,334c-13.62,-1.52 -26.95,-4.19 -40,-8c-23.76,-44.84 -48.59,-89.17 -74.5,-133c-23.97,-45.28 -48.97,-89.95 -75,-134c-24.3,-45.95 -49.64,-91.28 -76,-136c-0.35,-4.06 -2.18,-7.06 -5.5,-9c5.46,-11.13 11.46,-21.79 18,-32z" fill="#4f90cd" id="svg_90"/>
  </g>
  <g id="svg_87">
   <path d="m484.5,518.5c54.3,43.16 108.64,86.32 163,129.5c1.97,0.5 3.97,0.66 6,0.5c9.14,10.93 17.81,22.27 26,34c-2.27,1.26 -4.61,1.1 -7,-0.5c-53.05,-42.71 -106.38,-85.05 -160,-127c-10.34,-11.49 -19.67,-23.66 -28,-36.5z" fill="#2f3b67" id="svg_88" opacity="0.96"/>
  </g>
  <g id="svg_85">
   <path d="m1238.5,510.5c44.47,35.53 71.47,81.53 81,138c-23.21,-39.4 -46.71,-78.74 -70.5,-118c-3.78,-6.56 -7.28,-13.23 -10.5,-20z" fill="#116cb2" id="svg_86"/>
  </g>
  <g id="svg_83">
   <path d="m1196.5,480.5c15.09,8.54 29.09,18.54 42,30c3.22,6.77 6.72,13.44 10.5,20c23.79,39.26 47.29,78.6 70.5,118c2.11,17.44 2.45,34.77 1,52c0.61,-5.12 -0.56,-9.79 -3.5,-14c-41.46,-67.93 -81.63,-136.6 -120.5,-206z" fill="#156eb4" id="svg_84"/>
  </g>
  <g id="svg_81">
   <path d="m547.5,473.5c31.99,54.63 63.99,109.3 96,164c-53.06,-40.88 -105.73,-82.38 -158,-124.5c20.55,-13.44 41.22,-26.6 62,-39.5z" fill="#5295d1" id="svg_82"/>
  </g>
  <g id="svg_79">
   <path d="m1174.5,468.5c7.65,3.49 14.99,7.49 22,12c38.87,69.4 79.04,138.07 120.5,206c2.94,4.21 4.11,8.88 3.5,14c0.16,5.05 -0.17,10.05 -1,15c-49.62,-81.58 -97.96,-163.91 -145,-247z" fill="#1870b6" id="svg_80"/>
  </g>
  <g id="svg_77">
   <path d="m1120.5,445.5c18.38,6.52 36.38,14.18 54,23c47.04,83.09 95.38,165.42 145,247c-2.38,17.07 -6.05,33.74 -11,50c-26.49,-44.31 -52.99,-88.64 -79.5,-133c-6.21,-10.42 -11.88,-21.09 -17,-32c-31.03,-51.39 -61.53,-103.06 -91.5,-155z" fill="#1c73b8" id="svg_78"/>
  </g>
  <g id="svg_75">
   <path d="m121.5,446.5c2.63,2.58 4.8,5.58 6.5,9c23.86,43.73 47.7,87.4 71.5,131c-15.09,82.62 12.58,146.46 83,191.5c11.71,6.91 23.71,13.07 36,18.5c9.51,20.01 20.34,39.35 32.5,58c0.33,1.33 0.67,2.67 1,4c15.27,26.2 30.27,52.54 45,79c7.81,16.28 16.64,31.95 26.5,47c-0.83,0.89 -1.83,1.22 -3,1c-18.73,-0.77 -37.39,-2.27 -56,-4.5c-15.26,-1.34 -30.26,-3.51 -45,-6.5c-61.33,-111.65 -123.5,-222.98 -186.5,-334c-16.26,-30.86 -33.26,-61.19 -51,-91c-4.04,-8.42 -8.38,-16.75 -13,-25c-0.71,-0.88 -1.54,-1.55 -2.5,-2c16.02,-27.02 34.35,-52.35 55,-76z" fill="#4c8cca" id="svg_76"/>
  </g>
  <g id="svg_73">
   <path d="m1101.5,439.5c6.24,2.29 12.57,4.29 19,6c29.97,51.94 60.47,103.61 91.5,155c5.12,10.91 10.79,21.58 17,32c26.51,44.36 53.01,88.69 79.5,133c-1.23,6.04 -3.23,11.71 -6,17c-66.23,-114.79 -133.23,-229.13 -201,-343z" fill="#2175ba" id="svg_74"/>
  </g>
  <g id="svg_71">
   <path d="m1072.5,431.5c9.77,2.39 19.43,5.06 29,8c67.77,113.87 134.77,228.21 201,343c-3.35,8.39 -6.68,16.72 -10,25c-23.32,-40.64 -47.15,-80.97 -71.5,-121c-1.81,-4.42 -3.81,-8.75 -6,-13c-48.63,-80.1 -96.13,-160.76 -142.5,-242z" fill="#2377bb" id="svg_72"/>
  </g>
  <g id="svg_69">
   <path d="m134.5,431.5c23.96,42.5 47.63,85.17 71,128c-2.38,9.03 -4.38,18.03 -6,27c-23.8,-43.6 -47.64,-87.27 -71.5,-131c-1.7,-3.42 -3.87,-6.42 -6.5,-9c3.94,-5.28 8.27,-10.28 13,-15z" fill="#4a89c8" id="svg_70"/>
  </g>
  <g id="svg_67">
   <path d="m282.5,425.5c0.36,1.87 1.36,3.37 3,4.5c8.5,7 16.83,14.17 25,21.5c-24.9,34.44 -46.23,71.11 -64,110c-9.69,-8.02 -19.35,-16.02 -29,-24c17.08,-40.19 38.75,-77.52 65,-112z" fill="#323f6e" id="svg_68" opacity="0.99"/>
  </g>
  <g id="svg_65">
   <path d="m1031.5,423.5c13.77,2.26 27.44,4.93 41,8c46.37,81.24 93.87,161.9 142.5,242c2.19,4.25 4.19,8.58 6,13c24.35,40.03 48.18,80.36 71.5,121c-4.29,11.25 -9.63,21.92 -16,32c-81.67,-138.67 -163.34,-277.34 -245,-416z" fill="#287abd" id="svg_66"/>
  </g>
  <g id="svg_63">
   <path d="m1015.5,420.5c5.58,0.37 10.91,1.37 16,3c81.66,138.66 163.33,277.33 245,416c-2.16,5 -4.83,9.67 -8,14c0.01,-1.81 -0.49,-3.48 -1.5,-5c-83.57,-142.82 -167.41,-285.48 -251.5,-428z" fill="#2b7bbe" id="svg_64"/>
  </g>
  <g id="svg_61">
   <path d="m145.5,418.5c1.57,0.44 2.74,1.44 3.5,3c4.62,8.25 8.96,16.58 13,25c9.38,14.09 17.71,28.76 25,44c9.56,15.11 18.06,30.78 25.5,47c-1.97,7.57 -4.3,14.9 -7,22c-23.37,-42.83 -47.04,-85.5 -71,-128c2.98,-4.97 6.64,-9.3 11,-13z" fill="#4988c7" id="svg_62"/>
  </g>
  <g id="svg_59">
   <path d="m987.5,416.5c9.44,0.68 18.77,2.01 28,4c84.09,142.52 167.93,285.18 251.5,428c1.01,1.52 1.51,3.19 1.5,5c-3.24,7.49 -7.24,14.49 -12,21c-50.37,-87.06 -101.53,-173.72 -153.5,-260c-6.19,-10.38 -11.86,-21.05 -17,-32c-33.61,-54.89 -66.45,-110.23 -98.5,-166z" fill="#2e7dc0" id="svg_60"/>
  </g>
  <g id="svg_57">
   <path d="m977.5,415.5c3.31,0.55 6.64,0.88 10,1c32.05,55.77 64.89,111.11 98.5,166c5.14,10.95 10.81,21.62 17,32c51.97,86.28 103.13,172.94 153.5,260c-1.17,3.01 -2.84,5.68 -5,8c-50.73,-88.59 -102.57,-176.59 -155.5,-264c-5.14,-10.95 -10.81,-21.62 -17,-32c-34.36,-56.73 -68.19,-113.73 -101.5,-171z" fill="#327ec0" id="svg_58"/>
  </g>
  <g id="svg_55">
   <path d="m945.5,412.5c10.77,0.45 21.43,1.45 32,3c33.31,57.27 67.14,114.27 101.5,171c6.19,10.38 11.86,21.05 17,32c52.93,87.41 104.77,175.41 155.5,264c-5.31,7.97 -10.98,15.64 -17,23c-30.21,-53.19 -61.21,-105.86 -93,-158c-4.19,-45.55 -23.19,-83.71 -57,-114.5c-6.19,-4.7 -12.19,-9.53 -18,-14.5c-40.87,-68.41 -81.2,-137.08 -121,-206z" fill="#3480c2" id="svg_56"/>
  </g>
  <g id="svg_53">
   <path d="m910.5,410.5c11.65,0.87 23.32,1.53 35,2c39.8,68.92 80.13,137.59 121,206c-14.73,-9.37 -30.07,-17.7 -46,-25c0.54,-0.06 0.88,-0.39 1,-1c-35.35,-59.37 -70.18,-119.04 -104.5,-179c-2.05,-1.43 -4.21,-2.43 -6.5,-3z" fill="#3982c4" id="svg_54"/>
  </g>
  <g id="svg_51">
   <path d="m821.5,411.5c28.85,51.36 58.52,102.36 89,153c-0.12,0.61 -0.46,0.94 -1,1c-10.04,-0.37 -20.04,-1.04 -30,-2c-29,-50 -58,-100 -87,-150c9.66,-0.7 19.33,-1.37 29,-2z" fill="#438ac9" id="svg_52"/>
  </g>
  <g id="svg_49">
   <path d="m874.5,409.5c11.97,0.92 23.97,1.25 36,1c2.29,0.57 4.45,1.57 6.5,3c34.32,59.96 69.15,119.63 104.5,179c-0.12,0.61 -0.46,0.94 -1,1c-7.73,-3.23 -15.56,-6.23 -23.5,-9c-9.31,-2.62 -18.47,-5.28 -27.5,-8c0.74,0.13 1.41,-0.04 2,-0.5c-2.65,-4.3 -4.82,-8.8 -6.5,-13.5c-30.42,-50.9 -60.59,-101.9 -90.5,-153z" fill="#3c84c5" id="svg_50"/>
  </g>
  <g id="svg_47">
   <path d="m853.5,409.5c7,0 14,0 21,0c29.91,51.1 60.08,102.1 90.5,153c1.68,4.7 3.85,9.2 6.5,13.5c-0.59,0.46 -1.26,0.63 -2,0.5c-7.43,-1.68 -14.76,-3.34 -22,-5c1.53,-0.02 2.03,-0.68 1.5,-2c-32.1,-53.2 -63.93,-106.53 -95.5,-160z" fill="#3f86c6" id="svg_48"/>
  </g>
  <g id="svg_45">
   <path d="m853.5,409.5c31.57,53.47 63.4,106.8 95.5,160c0.53,1.32 0.03,1.98 -1.5,2c-12.81,-1.92 -25.48,-3.92 -38,-6c0.54,-0.06 0.88,-0.39 1,-1c-30.48,-50.64 -60.15,-101.64 -89,-153c10.62,-1.33 21.29,-1.99 32,-2z" fill="#4188c8" id="svg_46"/>
  </g>
  <g id="svg_43">
   <path d="m655.5,403.5c32.96,53.59 64.63,107.92 95,163c-26.01,1.97 -51.67,5.97 -77,12c-7.79,21.19 -15.29,42.52 -22.5,64c-3.12,-0.18 -5.62,-1.84 -7.5,-5c-32.01,-54.7 -64.01,-109.37 -96,-164c35.69,-23.66 71.69,-47 108,-70z" fill="#4e93d0" id="svg_44"/>
  </g>
  <g id="svg_41">
   <path d="m684.5,385.5c2.72,3.09 5.22,6.42 7.5,10c32.26,56.19 64.76,112.19 97.5,168c-13.01,0.8 -26.01,1.8 -39,3c-30.37,-55.08 -62.04,-109.41 -95,-163c9.64,-5.97 19.31,-11.97 29,-18z" fill="#4a8fcd" id="svg_42"/>
  </g>
  <g id="svg_39">
   <path d="m736.5,347.5c8.96,10.57 17.46,21.57 25.5,33c0.61,3.74 0.28,7.4 -1,11c-3.08,6.82 -5.58,13.82 -7.5,21c-12.26,1.04 -24.42,2.7 -36.5,5c-2.56,0.14 -4.06,-1.03 -4.5,-3.5c6.4,-17.65 13.24,-35.15 20.5,-52.5c1.48,-4.61 2.65,-9.27 3.5,-14z" fill="#334172" id="svg_40" opacity="1"/>
  </g>
  <g id="svg_37">
   <path d="m202.5,362.5c17.16,31.65 34.82,62.98 53,94c-16.2,26.07 -30.53,53.07 -43,81c-7.44,-16.22 -15.94,-31.89 -25.5,-47c-7.29,-15.24 -15.62,-29.91 -25,-44c-4.04,-8.42 -8.38,-16.75 -13,-25c-0.76,-1.56 -1.93,-2.56 -3.5,-3c13.49,-13.66 26.83,-27.49 40,-41.5c5.54,-5.04 11.21,-9.88 17,-14.5z" fill="#4685c5" id="svg_38"/>
  </g>
  <g id="svg_35">
   <path d="m792.5,413.5c29,50 58,100 87,150c-30.01,-2.28 -60.01,-2.28 -90,0c-32.74,-55.81 -65.24,-111.81 -97.5,-168c-2.28,-3.58 -4.78,-6.91 -7.5,-10c14.66,-9.8 29.49,-19.47 44.5,-29c-6.18,17.63 -12.85,35.3 -20,53c-0.67,3 -0.67,6 0,9c1.64,2.42 3.97,3.42 7,3c25.42,-3.56 50.92,-6.23 76.5,-8z" fill="#478dcb" id="svg_36"/>
  </g>
  <g id="svg_33">
   <path d="m350.5,347.5c9.69,8.02 19.35,16.02 29,24c-16.96,19.46 -34.12,38.8 -51.5,58c-6.08,7.23 -11.91,14.57 -17.5,22c-8.17,-7.33 -16.5,-14.5 -25,-21.5c-1.64,-1.13 -2.64,-2.63 -3,-4.5c5.57,-8.41 11.74,-16.41 18.5,-24c16.28,-18.26 32.78,-36.26 49.5,-54z" fill="#313d6b" id="svg_34" opacity="0.99"/>
  </g>
  <g id="svg_31">
   <path d="m736.5,347.5c-0.85,4.73 -2.02,9.39 -3.5,14c-7.26,17.35 -14.1,34.85 -20.5,52.5c0.44,2.47 1.94,3.64 4.5,3.5c12.08,-2.3 24.24,-3.96 36.5,-5c89.12,-11.01 178.12,-9.84 267,3.5c67.53,9.51 130.53,31.51 189,66c33.76,21.26 61.76,48.43 84,81.5c26.08,43.05 36.75,89.71 32,140c-3.51,35.84 -12.51,70.17 -27,103c-3.93,9.85 -8.43,19.52 -13.5,29c-7.73,12.74 -15.07,25.74 -22,39c-14.02,20.18 -28.19,40.18 -42.5,60c-16.67,17.84 -32.84,36.18 -48.5,55c-7.4,7.56 -14.9,14.9 -22.5,22c-4.36,4.03 -8.69,8.03 -13,12c-6.36,6.03 -12.69,12.03 -19,18c-36.43,31.93 -74.43,61.77 -114,89.5c-71.23,49.47 -146.23,93.14 -225,131c-84.2,39.58 -171.2,72.25 -261,98c-9.59,2.65 -19.26,4.81 -29,6.5c-1.63,-2.62 -0.96,-4.45 2,-5.5c135.19,-53.57 260.52,-123.57 376,-210c51.58,-40.57 99.74,-85.07 144.5,-133.5c14.48,-16.97 28.48,-34.3 42,-52c18.33,-29.67 36.67,-59.33 55,-89c8.66,-21.65 16.33,-43.65 23,-66c1.78,-11.65 3.44,-23.32 5,-35c3.04,-35.52 -4.46,-68.52 -22.5,-99c-8.71,-15.18 -19.71,-28.68 -33,-40.5c-22.29,-18.48 -46.96,-32.81 -74,-43c-35.56,-12.61 -72.22,-20.61 -110,-24c-22.99,-1.07 -45.99,-1.9 -69,-2.5c-23.34,0.91 -46.67,2.07 -70,3.5c-26.69,3.44 -53.36,6.94 -80,10.5c-8.18,22.52 -16.18,45.19 -24,68c-2.03,0.16 -4.03,0 -6,-0.5c-54.36,-43.18 -108.7,-86.34 -163,-129.5c-4.67,-3.15 -5,-6.65 -1,-10.5c82,-52.67 164,-105.33 246,-158c2.25,-1.04 4.41,-2.21 6.5,-3.5c0.4,0.23 0.57,0.56 0.5,1z" fill="#405393" id="svg_32" opacity="0.96"/>
  </g>
  <g id="svg_29">
   <path d="m240.5,328.5c15.33,28 30.67,56 46,84c-10.35,14.7 -20.68,29.37 -31,44c-18.18,-31.02 -35.84,-62.35 -53,-94c12.34,-11.68 25.01,-23.01 38,-34z" fill="#4381c2" id="svg_30"/>
  </g>
  <g id="svg_27">
   <path d="m303.5,280.5c2.28,1.83 4.11,4.16 5.5,7c11.18,20.36 22.35,40.69 33.5,61c-18.32,21.65 -36.99,42.99 -56,64c-15.33,-28 -30.67,-56 -46,-84c20.43,-16.77 41.43,-32.77 63,-48z" fill="#407dbf" id="svg_28"/>
  </g>
  <g id="svg_25">
   <path d="m348.5,249.5c11.08,20.49 22.41,40.82 34,61c-13.33,12.67 -26.67,25.33 -40,38c-11.15,-20.31 -22.32,-40.64 -33.5,-61c-1.39,-2.84 -3.22,-5.17 -5.5,-7c14.72,-10.72 29.72,-21.05 45,-31z" fill="#3d79bc" id="svg_26"/>
  </g>
  <g id="svg_23">
   <path d="m366.5,237.5c2.63,2.58 4.8,5.58 6.5,9c8.07,16.48 16.9,32.48 26.5,48c-5.64,5.3 -11.31,10.64 -17,16c-11.59,-20.18 -22.92,-40.51 -34,-61c5.71,-4.36 11.71,-8.36 18,-12z" fill="#3a77ba" id="svg_24"/>
  </g>
  <g id="svg_21">
   <path d="m397.5,218.5c9.41,17.82 19.08,35.49 29,53c-8.68,8.01 -17.68,15.68 -27,23c-9.6,-15.52 -18.43,-31.52 -26.5,-48c-1.7,-3.42 -3.87,-6.42 -6.5,-9c9.82,-7.08 20.16,-13.42 31,-19z" fill="#3975b9" id="svg_22"/>
  </g>
  <g id="svg_19">
   <path d="m458.5,183.5c1.57,0.44 2.74,1.44 3.5,3c7.41,13.78 14.91,27.45 22.5,41c-20.18,13.51 -39.52,28.18 -58,44c-9.92,-17.51 -19.59,-35.18 -29,-53c19.51,-12.93 39.84,-24.59 61,-35z" fill="#3572b7" id="svg_20"/>
  </g>
  <g id="svg_17">
   <path d="m551.5,135.5c5.94,11.54 11.61,23.21 17,35c-29.04,17.51 -57.04,36.51 -84,57c-7.59,-13.55 -15.09,-27.22 -22.5,-41c-0.76,-1.56 -1.93,-2.56 -3.5,-3c14.82,-9.62 30.49,-17.79 47,-24.5c15.2,-8.1 30.54,-15.93 46,-23.5z" fill="#306db2" id="svg_18"/>
  </g>
  <g id="svg_15">
   <path d="m612.5,109.5c5.55,8.17 10.21,16.84 14,26c-19.31,11.63 -38.64,23.3 -58,35c-5.39,-11.79 -11.06,-23.46 -17,-35c20.26,-8.97 40.59,-17.63 61,-26z" fill="#2d68af" id="svg_16"/>
  </g>
  <g id="svg_13">
   <path d="m667.5,88.5c3.02,6.7 6.02,13.37 9,20c-16.37,9.52 -33.04,18.52 -50,27c-3.79,-9.16 -8.45,-17.83 -14,-26c9.46,-4.62 19.13,-8.78 29,-12.5c8.49,-3.33 17.16,-6.16 26,-8.5z" fill="#2b64ab" id="svg_14"/>
  </g>
  <g id="svg_11">
   <path d="m711.5,71.5c1,-0.09 1.83,0.25 2.5,1c2.73,4.56 5.23,9.23 7.5,14c-15.15,7.08 -30.15,14.41 -45,22c-2.98,-6.63 -5.98,-13.3 -9,-20c14.24,-6.53 28.91,-12.19 44,-17z" fill="#2a62a9" id="svg_12"/>
  </g>
  <g id="svg_103">
   <path d="m1651.5,614.5c25.71,-2.58 50.05,1.92 73,13.5c17.73,11.9 28.4,28.4 32,49.5c-13.86,2.47 -27.69,5.14 -41.5,8c-2.39,-2.43 -4.06,-5.43 -5,-9c-9.98,-16.33 -24.65,-24.66 -44,-25c-33.53,2.2 -53.2,19.86 -59,53c-2.36,17.2 -1.36,34.2 3,51c11.07,31.38 33.24,45.21 66.5,41.5c14.09,-2.63 26.93,-8.13 38.5,-16.5c0.5,-8.99 0.67,-17.99 0.5,-27c-16.33,0 -32.67,0 -49,0c0,-12.33 0,-24.67 0,-37c31,0 62,0 93,0c0.17,29 0,58 -0.5,87c-37.42,28.81 -79.25,37.98 -125.5,27.5c-38.17,-11.84 -61.34,-37.34 -69.5,-76.5c-7.42,-33.83 -2.75,-65.83 14,-96c17.65,-26.07 42.15,-40.74 73.5,-44z" fill="#6aa943" id="svg_104" opacity="0.98"/>
  </g>
  <g id="svg_105">
   <path d="m1882.5,614.5c25.38,-2.49 49.38,2.01 72,13.5c17.74,11.91 28.41,28.41 32,49.5c-13.86,2.47 -27.69,5.14 -41.5,8c-8.83,-21.78 -25.16,-33.12 -49,-34c-33.98,2.32 -53.65,20.32 -59,54c-2.63,19.83 -0.63,39.16 6,58c13,26.26 34.17,37.42 63.5,33.5c14.09,-2.63 26.93,-8.13 38.5,-16.5c0.5,-8.99 0.67,-17.99 0.5,-27c-16.33,0 -32.67,0 -49,0c0,-12.33 0,-24.67 0,-37c31,0 62,0 93,0c0.17,29 0,58 -0.5,87c-37.41,28.81 -79.24,37.97 -125.5,27.5c-38.14,-11.81 -61.31,-37.31 -69.5,-76.5c-7.26,-33.82 -2.6,-65.82 14,-96c17.89,-26.36 42.72,-41.03 74.5,-44z" fill="#6aa841" id="svg_106" opacity="0.98"/>
  </g>
  <g id="svg_107">
   <path d="m2163.5,614.5c18.66,-1.23 36.99,0.61 55,5.5c26.71,9.88 43.38,28.71 50,56.5c-14.05,3.48 -28.21,6.48 -42.5,9c-11.74,-26.96 -32.24,-37.79 -61.5,-32.5c-25.8,6.14 -40.97,22.31 -45.5,48.5c-2.45,17.79 -1.78,35.46 2,53c10.93,32.23 33.43,46.39 67.5,42.5c14.3,-2.76 27.13,-8.59 38.5,-17.5c0.5,-8.66 0.67,-17.33 0.5,-26c-16.33,0 -32.67,0 -49,0c0,-12.33 0,-24.67 0,-37c31,0 62,0 93,0c0.17,28.67 0,57.34 -0.5,86c-20.4,17.11 -43.9,27.61 -70.5,31.5c-28.12,4.31 -54.78,-0.02 -80,-13c-24.59,-15.96 -39.75,-38.46 -45.5,-67.5c-7,-33.98 -2,-65.98 15,-96c17.96,-25.45 42.46,-39.78 73.5,-43z" fill="#505151" id="svg_108" opacity="0.98"/>
  </g>
  <g id="svg_113">
   <path d="m16.5,642.5c16.07,27.14 31.91,54.47 47.5,82c16.67,30 33.33,60 50,90c0.36,2.11 1.03,4.11 2,6c22.54,37.74 44.04,76.07 64.5,115c-53.95,-22.74 -98.78,-57.41 -134.5,-104c-37.76,-58.58 -47.6,-121.58 -29.5,-189z" fill="#5697d2" id="svg_114"/>
  </g>
  <g id="svg_111">
   <path d="m200.5,614.5c7.14,6.97 14.47,13.8 22,20.5c2.23,1.75 4.57,3.25 7,4.5c-4.02,46.59 8.98,87.59 39,123c-49.82,-36.76 -72.48,-86.09 -68,-148z" fill="#374579" id="svg_112" opacity="0.98"/>
  </g>
  <g id="svg_109">
   <path d="m1293.5,563.5c44.43,48.95 63.76,106.62 58,173c-8.67,-11 -17.33,-22 -26,-33c4.75,-50.29 -5.92,-96.95 -32,-140z" fill="#374478" id="svg_110" opacity="0.99"/>
  </g>
  <g id="svg_115">
   <path d="m2377.5,672.5c6.08,0.23 12.08,1.06 18,2.5c4.93,1.13 9.26,3.3 13,6.5c-4.6,11.96 -9.1,23.96 -13.5,36c-11.23,-8.51 -22.73,-9.01 -34.5,-1.5c-7.45,10.96 -10.95,23.13 -10.5,36.5c-0.5,26.33 -0.67,52.66 -0.5,79c-14,0 -28,0 -42,0c0,-51.67 0,-103.33 0,-155c13,0 26,0 39,0c-0.17,6.34 0,12.68 0.5,19c4.42,-6.43 9.59,-12.26 15.5,-17.5c4.8,-2.76 9.8,-4.6 15,-5.5z" fill="#505151" id="svg_116" opacity="0.97"/>
  </g>
  <g id="svg_117">
   <path d="m2489.5,672.5c48.48,0.31 76.65,24.31 84.5,72c3.23,35.37 -9.94,62.54 -39.5,81.5c-31.96,14.48 -62.62,12.14 -92,-7c-19.52,-17.7 -28.86,-39.87 -28,-66.5c3.15,-47.47 28.15,-74.14 75,-80zm3,34c19.1,0.93 31.26,10.59 36.5,29c4.64,17.81 2.64,34.81 -6,51c-12.49,15.1 -27.66,18.6 -45.5,10.5c-14.41,-10.34 -21.08,-24.51 -20,-42.5c-1.08,-17.66 5.25,-31.83 19,-42.5c5.09,-2.97 10.42,-4.81 16,-5.5z" fill="#505151" id="svg_118" opacity="0.98"/>
  </g>
  <g id="svg_119">
   <path d="m2867.5,672.5c37.61,2.1 59.77,21.77 66.5,59c3.52,22.22 1.52,43.89 -6,65c-15.24,31.54 -40.08,43.7 -74.5,36.5c-10.47,-3.8 -19.3,-9.97 -26.5,-18.5c-0.5,25.33 -0.67,50.66 -0.5,76c-14,0 -28,0 -42,0c0,-71.33 0,-142.67 0,-214c13,0 26,0 39,0c-0.17,7.01 0,14.01 0.5,21c10.91,-14.7 25.41,-23.04 43.5,-25zm-10,33c17.99,1.24 29.16,10.57 33.5,28c3.29,14 3.29,28 0,42c-6.84,23.2 -21.67,31.04 -44.5,23.5c-10.03,-6.05 -16.19,-14.88 -18.5,-26.5c-3.28,-13.34 -3.28,-26.67 0,-40c4.68,-14.86 14.52,-23.86 29.5,-27z" fill="#505151" id="svg_120" opacity="0.98"/>
  </g>
  <g id="svg_121">
   <path d="m2605.5,676.5c13.67,0 27.33,0 41,0c-0.42,35.69 0.08,71.35 1.5,107c2.44,12.93 10.27,19.6 23.5,20c14.06,-0.6 23.9,-7.27 29.5,-20c1.98,-10.56 2.98,-21.23 3,-32c0.5,-25 0.67,-50 0.5,-75c13.67,0 27.33,0 41,0c0,51.67 0,103.33 0,155c-12.67,0 -25.33,0 -38,0c0.17,-7.34 0,-14.67 -0.5,-22c-18.66,23.55 -42.5,31.05 -71.5,22.5c-18.25,-7.31 -28.08,-20.81 -29.5,-40.5c-0.5,-38.33 -0.67,-76.67 -0.5,-115z" fill="#505151" id="svg_122" opacity="0.99"/>
  </g>
  <g id="svg_163">
   <path d="m1220.5,934.5c8.31,11.64 16.98,22.98 26,34c-16,18.17 -31.83,36.5 -47.5,55c-7.09,7.59 -14.59,14.59 -22.5,21c-8.78,-11.25 -17.78,-22.25 -27,-33c7.6,-7.1 15.1,-14.44 22.5,-22c15.66,-18.82 31.83,-37.16 48.5,-55z" fill="#313d6b" id="svg_164" opacity="0.99"/>
  </g>
  <g id="svg_161">
   <path d="m1088.5,918.5c17.95,30.56 35.95,61.22 54,92c-18.34,19.3 -38,36.97 -59,53c-5.55,-10.77 -11.39,-21.44 -17.5,-32c-8.42,-12.51 -16.09,-25.51 -23,-39c-0.71,-0.88 -1.54,-1.55 -2.5,-2c5.24,-7.45 10.74,-14.79 16.5,-22c10.27,-16.9 20.77,-33.57 31.5,-50z" fill="#478ccb" id="svg_162"/>
  </g>
  <g id="svg_159">
   <path d="m100.5,893.5c44.1,32.55 92.76,55.71 146,69.5c110.64,27.23 222.64,34.9 336,23c9,-0.67 18,-0.67 27,0c0.81,0.31 1.47,0.81 2,1.5c-3.66,8.94 -7.66,17.61 -12,26c-52.97,4.41 -105.97,4.91 -159,1.5c-72.32,-3.66 -142.65,-17.33 -211,-41c-48.95,-17.78 -91.95,-44.62 -129,-80.5z" fill="#303c68" id="svg_160" opacity="0.98"/>
  </g>
  <g id="svg_157">
   <path d="m1103.5,894.5c19.83,32.33 39.17,65 58,98c-5.7,6.7 -12.04,12.7 -19,18c-18.05,-30.78 -36.05,-61.44 -54,-92c4.5,-8.34 9.5,-16.34 15,-24z" fill="#438ac9" id="svg_158"/>
  </g>
  <g id="svg_155">
   <path d="m878.5,915.5c-2.7,3.53 -6.04,6.36 -10,8.5c-41.54,24.59 -82.54,49.93 -123,76c-43.09,25.29 -85.59,51.46 -127.5,78.5c-10.56,-7.86 -20.4,-16.53 -29.5,-26c31.7,-18.85 63.03,-38.35 94,-58.5c8.49,-4.41 16.83,-9.08 25,-14c44.76,-28.72 90.09,-56.72 136,-84c2.79,-1.54 4.79,-3.7 6,-6.5c0.62,-0.11 1.12,-0.44 1.5,-1c9.01,9.17 18.17,18.17 27.5,27z" fill="#2f3b67" id="svg_156" opacity="0.99"/>
  </g>
  <g id="svg_153">
   <path d="m849.5,883.5c9,8.16 18.17,16.16 27.5,24c2.4,2.48 2.9,5.14 1.5,8c-9.33,-8.83 -18.49,-17.83 -27.5,-27c-0.38,0.56 -0.88,0.89 -1.5,1c0,-2 0,-4 0,-6z" fill="#364478" id="svg_154" opacity="0.88"/>
  </g>
  <g id="svg_151">
   <path d="m1127.5,840.5c22.68,38.04 45.35,76.04 68,114c-10.41,13.46 -21.74,26.13 -34,38c-18.83,-33 -38.17,-65.67 -58,-98c9.13,-16.85 16.63,-34.51 22.5,-53c0.38,-0.56 0.88,-0.89 1.5,-1z" fill="#4087c7" id="svg_152"/>
  </g>
  <g id="svg_149">
   <path d="m462.5,827.5c18.99,0.84 37.99,1.51 57,2c28.91,49.89 56.91,100.22 84,151c-19.94,2.02 -39.94,3.69 -60,5c1.87,-0.66 3.87,-1.33 6,-2c-29.01,-52.03 -58.01,-104.03 -87,-156z" fill="#4381c2" id="svg_150"/>
  </g>
  <g id="svg_147">
   <path d="m589.5,825.5c8.29,15.9 17.12,31.57 26.5,47c21.07,39.81 42.9,79.15 65.5,118c-30.23,18.22 -60.23,36.88 -90,56c-0.33,-0.33 -0.67,-0.67 -1,-1c9.49,-20.63 18.49,-41.46 27,-62.5c-0.67,-1.85 -2,-3.01 -4,-3.5c-3.26,0.92 -6.59,1.25 -10,1c-27.09,-50.78 -55.09,-101.11 -84,-151c23.19,-1.21 46.52,-2.54 70,-4z" fill="#407ec0" id="svg_148"/>
  </g>
  <g id="svg_145">
   <path d="m608.5,823.5c29.82,52.46 59.16,105.13 88,158c-5.17,2.75 -10.17,5.75 -15,9c-22.6,-38.85 -44.43,-78.19 -65.5,-118c-9.38,-15.43 -18.21,-31.1 -26.5,-47c6.24,-1.12 12.57,-1.79 19,-2z" fill="#3f7bbd" id="svg_146"/>
  </g>
  <g id="svg_143">
   <path d="m368.5,813.5c20.25,4.15 40.59,7.98 61,11.5c11.06,0.85 22.06,1.68 33,2.5c28.99,51.97 57.99,103.97 87,156c-2.13,0.67 -4.13,1.34 -6,2c-24.15,1.09 -48.32,2.09 -72.5,3c-6.67,0 -13.17,-0.33 -19.5,-1c4.68,0.17 9.35,0 14,-0.5c-5.01,-6.18 -8.84,-13.01 -11.5,-20.5c-14.86,-25.57 -29.52,-51.24 -44,-77c-1.81,-4.42 -3.81,-8.75 -6,-13c-12.88,-20.44 -24.72,-41.44 -35.5,-63z" fill="#4685c5" id="svg_144"/>
  </g>
  <g id="svg_141">
   <path d="m1298.5,806.5c1,-0.09 1.83,0.25 2.5,1c8.03,10.85 16.2,21.52 24.5,32c-4.61,11.22 -9.78,22.22 -15.5,33c-18.28,34.08 -39.45,66.08 -63.5,96c-9.02,-11.02 -17.69,-22.36 -26,-34c14.31,-19.82 28.48,-39.82 42.5,-60c6.93,-13.26 14.27,-26.26 22,-39c5.07,-9.48 9.57,-19.15 13.5,-29z" fill="#323f6e" id="svg_142" opacity="0.99"/>
  </g>
  <g id="svg_139">
   <path d="m343.5,805.5c8.35,2.93 16.68,5.59 25,8c10.78,21.56 22.62,42.56 35.5,63c2.19,4.25 4.19,8.58 6,13c14.48,25.76 29.14,51.43 44,77c2.66,7.49 6.49,14.32 11.5,20.5c-4.65,0.5 -9.32,0.67 -14,0.5c-2.74,0.1 -5.4,-0.23 -8,-1c-33.33,-60.33 -66.67,-120.67 -100,-181z" fill="#4888c7" id="svg_140"/>
  </g>
  <g id="svg_137">
   <path d="m657.5,805.5c1.57,0.44 2.74,1.44 3.5,3c7.29,12.91 14.29,25.91 21,39c9.38,14.09 17.71,28.76 25,44c12.3,20.27 23.8,40.94 34.5,62c-7.79,4.07 -15.12,8.9 -22,14.5c-7.66,4.5 -15.33,9 -23,13.5c-28.84,-52.87 -58.18,-105.54 -88,-158c14.35,-2.5 28.68,-5 43,-7.5c3.44,-2.71 5.44,-6.21 6,-10.5z" fill="#3d79bc" id="svg_138"/>
  </g>
  <g id="svg_135">
   <path d="m318.5,796.5c8.29,3.21 16.62,6.21 25,9c33.33,60.33 66.67,120.67 100,181c-7.85,0.33 -15.52,-0.01 -23,-1c1.17,0.22 2.17,-0.11 3,-1c-9.86,-15.05 -18.69,-30.72 -26.5,-47c-14.73,-26.46 -29.73,-52.8 -45,-79c-0.33,-1.33 -0.67,-2.67 -1,-4c-12.16,-18.65 -22.99,-37.99 -32.5,-58z" fill="#4989c8" id="svg_136"/>
  </g>
  <g id="svg_133">
   <path d="m1138.5,792.5c27.46,44.47 54.12,89.47 80,135c-6.57,9.91 -14.24,18.91 -23,27c-22.65,-37.96 -45.32,-75.96 -68,-114c1.46,-7.2 3.62,-14.2 6.5,-21c1.72,-8.98 3.22,-17.98 4.5,-27z" fill="#3c84c5" id="svg_134"/>
  </g>
  <g id="svg_131">
   <path d="m668.5,777.5c31.65,53.94 62.31,108.61 92,164c-6.13,4.24 -12.46,8.24 -19,12c-10.7,-21.06 -22.2,-41.73 -34.5,-62c-7.29,-15.24 -15.62,-29.91 -25,-44c-6.71,-13.09 -13.71,-26.09 -21,-39c-0.76,-1.56 -1.93,-2.56 -3.5,-3c4.07,-9.22 7.74,-18.55 11,-28z" fill="#3a77ba" id="svg_132"/>
  </g>
  <g id="svg_129">
   <path d="m1141.5,747.5c31.79,52.14 62.79,104.81 93,158c-4.85,7.7 -10.18,15.03 -16,22c-25.88,-45.53 -52.54,-90.53 -80,-135c2.63,-14.87 3.63,-29.87 3,-45z" fill="#3982c4" id="svg_130"/>
  </g>
  <g id="svg_127">
   <path d="m705.5,769.5c46.33,38.83 92.83,77.5 139.5,116c0.72,1.61 0.55,3.11 -0.5,4.5c-17.64,11.48 -35.64,22.32 -54,32.5c-28.58,-50.83 -56.92,-101.83 -85,-153z" fill="#3673b7" id="svg_128"/>
  </g>
  <g id="svg_125">
   <path d="m705.5,769.5c28.08,51.17 56.42,102.17 85,153c-9.63,6.82 -19.63,13.15 -30,19c-29.69,-55.39 -60.35,-110.06 -92,-164c3.19,-9.75 6.69,-19.41 10.5,-29c8.97,6.81 17.81,13.81 26.5,21z" fill="#3975b9" id="svg_126"/>
  </g>
  <g id="svg_123">
   <path d="m1325.5,703.5c8.67,11 17.33,22 26,33c-2.25,35.98 -10.91,70.32 -26,103c-8.3,-10.48 -16.47,-21.15 -24.5,-32c-0.67,-0.75 -1.5,-1.09 -2.5,-1c14.49,-32.83 23.49,-67.16 27,-103z" fill="#344273" id="svg_124" opacity="0.99"/>
  </g>
  <g id="svg_165">
   <path d="m1654.5,952.5c13.54,-1.22 24.37,3.44 32.5,14c1.87,3.11 3.03,6.44 3.5,10c-4.51,0.92 -9.01,1.92 -13.5,3c-2.59,-2.98 -5.09,-6.15 -7.5,-9.5c-13.93,-6.56 -23.76,-2.73 -29.5,11.5c-2.08,9.09 -1.75,18.09 1,27c4.99,9.91 12.83,13.41 23.5,10.5c2.6,-0.88 4.77,-2.38 6.5,-4.5c2.31,-3.42 4.14,-7.09 5.5,-11c5.1,1.69 10.1,3.52 15,5.5c-8.27,22.3 -23.94,29.97 -47,23c-12.12,-5.72 -19.28,-15.22 -21.5,-28.5c-2.82,-15.55 0.68,-29.38 10.5,-41.5c6.16,-5.21 13.16,-8.38 21,-9.5z" fill="#545556" id="svg_166" opacity="0.96"/>
  </g>
  <g id="svg_167">
   <path d="m2063.5,952.5c5.71,-0.33 11.37,0 17,1c-4.85,5.02 -9.52,10.18 -14,15.5c-3.38,0.82 -6.72,0.66 -10,-0.5c2.35,-5.35 4.68,-10.69 7,-16z" fill="#545556" id="svg_168" opacity="0.88"/>
  </g>
  <g id="svg_169">
   <path d="m2364.5,952.5c18.3,-1.69 30.64,5.97 37,23c-4.53,1.71 -9.19,3.04 -14,4c-2.53,-3.18 -5.19,-6.35 -8,-9.5c-15.58,-6.79 -25.42,-1.96 -29.5,14.5c-1.07,8.49 -0.4,16.83 2,25c5.16,9.59 13,12.76 23.5,9.5c6.14,-3.47 9.97,-8.64 11.5,-15.5c4.45,1.57 8.95,3.07 13.5,4.5c-1.28,12.79 -8.28,21.12 -21,25c-29.26,3.92 -44.92,-8.91 -47,-38.5c-0.33,-22.77 10.34,-36.77 32,-42z" fill="#545556" id="svg_170" opacity="0.95"/>
  </g>
  <g id="svg_171">
   <path d="m2215.5,954.5c5.33,0 10.67,0 16,0c0,26 0,52 0,78c-5,0 -10,0 -15,0c0.16,-2.03 0,-4.03 -0.5,-6c-12.33,11.14 -24,10.48 -35,-2c-7.33,-13.67 -7.33,-27.33 0,-41c6.4,-7.8 14.57,-10.63 24.5,-8.5c3.66,1 6.83,2.84 9.5,5.5c0.5,-8.66 0.67,-17.33 0.5,-26zm-16,32c8.19,-1.31 13.36,2.03 15.5,10c0.86,6.09 0.53,12.09 -1,18c-4.01,7.67 -9.84,9.5 -17.5,5.5c-2.15,-2.47 -3.65,-5.3 -4.5,-8.5c-1.1,-6.88 -0.43,-13.55 2,-20c1.73,-1.9 3.56,-3.57 5.5,-5z" fill="#545556" id="svg_172" opacity="0.95"/>
  </g>
  <g id="svg_173">
   <path d="m2480.5,954.5c5,0 10,0 15,0c-0.17,9.01 0,18.01 0.5,27c8.08,-7.53 17.25,-9.03 27.5,-4.5c8.72,6.61 12.72,15.44 12,26.5c0.7,10.41 -2.64,19.25 -10,26.5c-11.45,6.98 -21.61,5.48 -30.5,-4.5c-0.5,2.31 -0.66,4.64 -0.5,7c-4.67,0 -9.33,0 -14,0c0,-26 0,-52 0,-78zm24,32c9.57,-0.93 14.74,3.4 15.5,13c1.47,8.38 -0.7,15.55 -6.5,21.5c-8.28,2.61 -13.78,-0.22 -16.5,-8.5c-2.3,-7.61 -1.63,-14.95 2,-22c1.81,-1.48 3.65,-2.81 5.5,-4z" fill="#545556" id="svg_174" opacity="0.97"/>
  </g>
  <g id="svg_175">
   <path d="m2008.5,955.5c6.42,0.62 12.59,2.29 18.5,5c2.15,-0.82 3.65,-2.32 4.5,-4.5c2.31,-0.5 4.64,-0.66 7,-0.5c1.12,9.99 -3.21,14.49 -13,13.5c-4.46,-1.65 -8.96,-3.15 -13.5,-4.5c-1.85,0.67 -3.01,2 -3.5,4c-2.24,0.97 -4.58,1.31 -7,1c-1.31,-6.71 1.02,-11.37 7,-14z" fill="#545556" id="svg_176" opacity="0.91"/>
  </g>
  <g id="svg_177">
   <path d="m1722.5,974.5c29.21,-0.59 40.71,13.41 34.5,42c-8.74,16.11 -21.91,21.28 -39.5,15.5c-12.03,-5.39 -17.7,-14.72 -17,-28c0.4,-15.21 7.74,-25.04 22,-29.5zm4,12c8.08,-0.38 13.25,3.29 15.5,11c1.44,7.2 0.27,13.87 -3.5,20c-6.75,5.51 -13.25,5.18 -19.5,-1c-4.23,-7.48 -4.56,-15.15 -1,-23c2.46,-2.98 5.3,-5.31 8.5,-7z" fill="#545556" id="svg_178" opacity="0.96"/>
  </g>
  <g id="svg_179">
   <path d="m1793.5,974.5c9.11,-1.85 16.44,0.81 22,8c7.96,-8.39 17.29,-10.23 28,-5.5c3.37,2.36 5.54,5.53 6.5,9.5c0.5,15.33 0.67,30.66 0.5,46c-5,0 -10,0 -15,0c0.41,-14.38 -0.09,-28.72 -1.5,-43c-7.78,-5.13 -13.11,-3.13 -16,6c-0.5,12.33 -0.67,24.66 -0.5,37c-5.33,0 -10.67,0 -16,0c0.17,-13.67 0,-27.34 -0.5,-41c-0.85,-3.6 -3.18,-5.27 -7,-5c-4.73,0.07 -7.73,2.4 -9,7c-1.4,12.95 -1.9,25.95 -1.5,39c-5,0 -10,0 -15,0c0,-19 0,-38 0,-57c4.67,0 9.33,0 14,0c-0.16,2.03 0,4.03 0.5,6c3.15,-3.01 6.65,-5.34 10.5,-7z" fill="#545556" id="svg_180" opacity="0.97"/>
  </g>
  <g id="svg_181">
   <path d="m1892.5,974.5c15.56,-1.27 25.06,5.73 28.5,21c2.08,11.19 0.08,21.53 -6,31c-11.07,10.59 -22.07,10.59 -33,0c-0.5,9.33 -0.67,18.66 -0.5,28c-5,0 -10,0 -15,0c0,-26.33 0,-52.67 0,-79c4.67,0 9.33,0 14,0c-0.16,2.36 0,4.69 0.5,7c3.48,-3.34 7.32,-6.01 11.5,-8zm-2,12c9.57,-0.93 14.74,3.4 15.5,13c1.47,8.38 -0.7,15.55 -6.5,21.5c-8.28,2.61 -13.78,-0.22 -16.5,-8.5c-2.15,-6.8 -1.82,-13.47 1,-20c1.49,-2.81 3.66,-4.81 6.5,-6z" fill="#545556" id="svg_182" opacity="0.97"/>
  </g>
  <g id="svg_183">
   <path d="m1945.5,974.5c7.41,-0.35 14.74,0.15 22,1.5c3.77,1.44 6.61,3.94 8.5,7.5c1.27,12.26 1.94,24.6 2,37c0.11,4.01 1.28,7.67 3.5,11c-5.29,0.99 -10.63,1.33 -16,1c0.01,-1.81 -0.49,-3.48 -1.5,-5c-9.58,8.08 -19.75,8.92 -30.5,2.5c-5.57,-6.92 -6.4,-14.42 -2.5,-22.5c1.87,-2.21 4.04,-4.04 6.5,-5.5c7.95,-2.36 15.95,-4.52 24,-6.5c1.29,-3.64 0.29,-6.48 -3,-8.5c-6.98,-2.17 -11.98,-0.01 -15,6.5c-4.27,-1.04 -8.6,-1.71 -13,-2c1.55,-8.81 6.55,-14.48 15,-17zm15,31c3.86,9.08 0.86,15.08 -9,18c-6.69,-1.71 -8.85,-5.71 -6.5,-12c4.97,-2.69 10.13,-4.69 15.5,-6z" fill="#545556" id="svg_184" opacity="0.96"/>
  </g>
  <g id="svg_185">
   <path d="m2018.5,974.5c9.6,-1.97 17.43,0.7 23.5,8c0.92,2.6 1.59,5.27 2,8c0.5,14 0.67,28 0.5,42c-5.33,0 -10.67,0 -16,0c0.17,-13.34 0,-26.67 -0.5,-40c-1.16,-4.33 -3.99,-6.33 -8.5,-6c-4.95,0.11 -8.45,2.44 -10.5,7c-1.38,12.95 -1.88,25.95 -1.5,39c-5,0 -10,0 -15,0c0,-19 0,-38 0,-57c4.67,0 9.33,0 14,0c-0.16,2.69 0,5.35 0.5,8c0.47,-1.43 1.3,-2.6 2.5,-3.5c3.06,-1.86 6.06,-3.69 9,-5.5z" fill="#545556" id="svg_186" opacity="0.96"/>
  </g>
  <g id="svg_187">
   <path d="m2102.5,974.5c6.01,-0.17 12.01,0 18,0.5c8.3,1.3 12.8,6.13 13.5,14.5c0.33,11.67 0.67,23.33 1,35c0.76,2.7 1.93,5.2 3.5,7.5c-5.36,0.83 -10.7,0.66 -16,-0.5c-0.48,-1.43 -1.14,-2.76 -2,-4c-11.56,9.65 -22.72,9.32 -33.5,-1c-4.91,-11.6 -1.75,-20.1 9.5,-25.5c6.7,-1.54 13.37,-3.21 20,-5c3.33,-6.39 1.16,-9.56 -6.5,-9.5c-2.3,-0.01 -4.47,0.49 -6.5,1.5c-0.98,2.14 -2.31,3.97 -4,5.5c-4.39,-0.72 -8.73,-1.72 -13,-3c2.42,-8.42 7.75,-13.75 16,-16zm14,31c1.29,1.37 1.95,3.2 2,5.5c-0.58,9.79 -5.58,13.45 -15,11c-4.52,-5.22 -3.85,-9.55 2,-13c3.93,-0.72 7.59,-1.89 11,-3.5z" fill="#545556" id="svg_188" opacity="0.95"/>
  </g>
  <g id="svg_189">
   <path d="m2260.5,974.5c24.26,-1.74 35.59,9.59 34,34c-12.67,0 -25.33,0 -38,0c1.52,11.08 7.52,15.08 18,12c1.53,-1.69 2.86,-3.53 4,-5.5c4.35,-0.24 8.68,0.1 13,1c0.81,0.31 1.47,0.81 2,1.5c-6.91,14.62 -18.24,19.79 -34,15.5c-9.84,-2.82 -15.68,-9.32 -17.5,-19.5c-2.08,-11.19 -0.08,-21.53 6,-31c3.67,-3.58 7.84,-6.24 12.5,-8zm4,12c9.62,-1.02 14.62,3.31 15,13c-7.33,0 -14.67,0 -22,0c-0.53,-5.94 1.8,-10.27 7,-13z" fill="#545556" id="svg_190" opacity="0.96"/>
  </g>
  <g id="svg_191">
   <path d="m2432.5,974.5c29.21,-0.59 40.71,13.41 34.5,42c-8.74,16.11 -21.91,21.28 -39.5,15.5c-12.03,-5.39 -17.7,-14.72 -17,-28c0.4,-15.21 7.74,-25.04 22,-29.5zm4,12c8.08,-0.38 13.25,3.29 15.5,11c1.44,7.2 0.27,13.87 -3.5,20c-6.75,5.51 -13.25,5.18 -19.5,-1c-4.23,-7.48 -4.56,-15.15 -1,-23c2.46,-2.98 5.3,-5.31 8.5,-7z" fill="#545556" id="svg_192" opacity="0.96"/>
  </g>
  <g id="svg_193">
   <path d="m2568.5,974.5c3.35,-0.17 6.68,0 10,0.5c1.72,0.52 3.06,1.52 4,3c-1.18,4.38 -2.85,8.54 -5,12.5c-5.66,-3.46 -10.16,-2.46 -13.5,3c-1.07,3.58 -1.74,7.25 -2,11c-0.5,9.33 -0.67,18.66 -0.5,28c-5,0 -10,0 -15,0c0,-19 0,-38 0,-57c4.67,0 9.33,0 14,0c-0.16,2.36 0,4.69 0.5,7c2.03,-3.19 4.53,-5.86 7.5,-8z" fill="#545556" id="svg_194" opacity="0.97"/>
  </g>
  <g id="svg_195">
   <path d="m2601.5,974.5c7.41,-0.35 14.74,0.15 22,1.5c3.77,1.44 6.61,3.94 8.5,7.5c1.27,12.26 1.94,24.6 2,37c0.11,4.01 1.28,7.67 3.5,11c-5.29,0.99 -10.63,1.33 -16,1c0.01,-1.81 -0.49,-3.48 -1.5,-5c-9.58,8.08 -19.75,8.92 -30.5,2.5c-5.57,-6.92 -6.4,-14.42 -2.5,-22.5c1.87,-2.21 4.04,-4.04 6.5,-5.5c7.95,-2.36 15.95,-4.52 24,-6.5c1.29,-3.64 0.29,-6.48 -3,-8.5c-6.98,-2.17 -11.98,-0.01 -15,6.5c-4.27,-1.04 -8.6,-1.71 -13,-2c1.55,-8.81 6.55,-14.48 15,-17zm15,31c3.86,9.08 0.86,15.08 -9,18c-6.69,-1.71 -8.85,-5.71 -6.5,-12c4.97,-2.69 10.13,-4.69 15.5,-6z" fill="#545556" id="svg_196" opacity="0.96"/>
  </g>
  <g id="svg_197">
   <path d="m2675.5,974.5c6.72,-0.75 13.05,0.42 19,3.5c2.12,1.73 3.62,3.9 4.5,6.5c1.45,15.93 1.95,31.93 1.5,48c-5,0 -10,0 -15,0c0.41,-13.72 -0.09,-27.38 -1.5,-41c-1.53,-3.43 -4.2,-5.1 -8,-5c-6.02,0.17 -9.69,3.17 -11,9c-0.5,12.33 -0.67,24.66 -0.5,37c-5.33,0 -10.67,0 -16,0c0,-19 0,-38 0,-57c5,0 10,0 15,0c-0.16,2.36 0,4.69 0.5,7c3.15,-3.81 6.98,-6.48 11.5,-8z" fill="#545556" id="svg_198" opacity="0.96"/>
  </g>
  <g id="svg_199">
   <path d="m2782.5,974.5c6.01,-0.17 12.01,0 18,0.5c8.3,1.3 12.8,6.13 13.5,14.5c0.33,11.67 0.67,23.33 1,35c0.76,2.7 1.93,5.2 3.5,7.5c-5.36,0.83 -10.7,0.66 -16,-0.5c-0.48,-1.43 -1.14,-2.76 -2,-4c-11.56,9.65 -22.72,9.32 -33.5,-1c-4.91,-11.6 -1.75,-20.1 9.5,-25.5c6.7,-1.54 13.37,-3.21 20,-5c3.33,-6.39 1.16,-9.56 -6.5,-9.5c-2.3,-0.01 -4.47,0.49 -6.5,1.5c-0.98,2.14 -2.31,3.97 -4,5.5c-4.39,-0.72 -8.73,-1.72 -13,-3c2.42,-8.42 7.75,-13.75 16,-16zm14,31c1.29,1.37 1.95,3.2 2,5.5c-0.58,9.79 -5.58,13.45 -15,11c-4.52,-5.22 -3.85,-9.55 2,-13c3.93,-0.72 7.59,-1.89 11,-3.5z" fill="#545556" id="svg_200" opacity="0.95"/>
  </g>
  <g id="svg_201">
   <path d="m2841.5,974.5c8.5,-0.57 16.83,0.27 25,2.5c5.32,3.01 7.98,7.34 8,13c-4.08,0.52 -8.08,1.35 -12,2.5c-4.24,-6.61 -10.24,-8.78 -18,-6.5c-4.78,1.86 -5.12,4.19 -1,7c9.55,2.39 18.88,5.39 28,9c5.62,4.97 7.45,11.14 5.5,18.5c-5.32,9.83 -13.66,14.5 -25,14c-8.76,0.3 -16.42,-2.36 -23,-8c-2.32,-2.98 -3.82,-6.31 -4.5,-10c4.72,-0.34 9.39,-1.01 14,-2c4.43,8.09 11.09,10.59 20,7.5c4,-1.98 4.67,-4.65 2,-8c-9.64,-2.08 -18.97,-5.08 -28,-9c-6.54,-6.6 -7.71,-14.1 -3.5,-22.5c3.38,-4.09 7.54,-6.76 12.5,-8z" fill="#545556" id="svg_202" opacity="0.95"/>
  </g>
  <g id="svg_203">
   <path d="m2058.5,975.5c5.33,0 10.67,0 16,0c0,19 0,38 0,57c-5.33,0 -10.67,0 -16,0c0,-19 0,-38 0,-57z" fill="#545556" id="svg_204" opacity="0.93"/>
  </g>
  <g id="svg_205">
   <path d="m2711.5,975.5c15.67,0 31.33,0 47,0c0.17,4.01 0,8.01 -0.5,12c-9.13,10.8 -18.63,21.3 -28.5,31.5c10.33,0.5 20.66,0.67 31,0.5c0,4.33 0,8.67 0,13c-17,0 -34,0 -51,0c-0.17,-4.35 0,-8.68 0.5,-13c8.83,-10.17 17.67,-20.33 26.5,-30.5c-8.33,-0.5 -16.66,-0.67 -25,-0.5c0,-4.33 0,-8.67 0,-13z" fill="#545556" id="svg_206" opacity="0.96"/>
  </g>
  <g id="svg_217">
   <path d="m923.5,1111.5c8.82,16.3 18.15,32.3 28,48c-31.61,20.48 -63.94,39.98 -97,58.5c-94.63,50.65 -192.97,92.31 -295,125c-9.32,2.73 -18.65,5.06 -28,7c142.96,-60.59 273.63,-140.09 392,-238.5z" fill="#5597d2" id="svg_218"/>
  </g>
  <g id="svg_215">
   <path d="m1117.5,1041.5c9.02,11.02 17.69,22.36 26,34c-10.55,10.29 -21.55,20.12 -33,29.5c-99.32,79.71 -207.32,146.38 -324,200c-67.88,31.18 -137.55,57.85 -209,80c-20.2,5.97 -40.54,11.47 -61,16.5c-1.53,-0.03 -2.7,-0.7 -3.5,-2c-8.38,-10.88 -16.55,-21.88 -24.5,-33c9.74,-1.69 19.41,-3.85 29,-6.5c89.8,-25.75 176.8,-58.42 261,-98c78.77,-37.86 153.77,-81.53 225,-131c39.57,-27.73 77.57,-57.57 114,-89.5z" fill="#303c68" id="svg_216" opacity="0.99"/>
  </g>
  <g id="svg_213">
   <path d="m1136.5,1023.5c8.19,11.73 16.86,23.07 26,34c-5.7,6.7 -12.04,12.7 -19,18c-8.31,-11.64 -16.98,-22.98 -26,-34c6.31,-5.97 12.64,-11.97 19,-18z" fill="#313d6b" id="svg_214" opacity="0.99"/>
  </g>
  <g id="svg_211">
   <path d="m1017.5,1018.5c13.26,22.2 26.26,44.53 39,67c-33.31,26.97 -68.31,51.63 -105,74c-9.85,-15.7 -19.18,-31.7 -28,-48c14.5,-14.67 29.5,-28.83 45,-42.5c16.2,-17.03 32.53,-33.87 49,-50.5z" fill="#4e92cf" id="svg_212"/>
  </g>
  <g id="svg_209">
   <path d="m1149.5,1011.5c9.22,10.75 18.22,21.75 27,33c-4.04,5.04 -8.71,9.37 -14,13c-9.14,-10.93 -17.81,-22.27 -26,-34c4.31,-3.97 8.64,-7.97 13,-12z" fill="#303c68" id="svg_210" opacity="0.99"/>
  </g>
  <g id="svg_207">
   <path d="m1040.5,990.5c0.96,0.45 1.79,1.12 2.5,2c6.91,13.49 14.58,26.49 23,39c6.11,10.56 11.95,21.23 17.5,32c-8.41,8.04 -17.41,15.37 -27,22c-12.74,-22.47 -25.74,-44.8 -39,-67c7.67,-9.34 15.34,-18.68 23,-28z" fill="#4a90cd" id="svg_208"/>
  </g>
 </g>
</svg>