<?xml version="1.0"?>
<svg width="1400" height="450" xmlns="http://www.w3.org/2000/svg" xmlns:svg="http://www.w3.org/2000/svg" clip-rule="evenodd" fill-rule="evenodd" version="1.1">
 <g class="layer">
  <title>Layer 1</title>
  <g id="svg_103">
   <path d="m96.5,4.5c25.71,-2.58 50.05,1.92 73,13.5c17.73,11.9 28.4,28.4 32,49.5c-13.86,2.47 -27.69,5.14 -41.5,8c-2.39,-2.43 -4.06,-5.43 -5,-9c-9.98,-16.33 -24.65,-24.66 -44,-25c-33.53,2.2 -53.2,19.86 -59,53c-2.36,17.2 -1.36,34.2 3,51c11.07,31.38 33.24,45.21 66.5,41.5c14.09,-2.63 26.93,-8.13 38.5,-16.5c0.5,-8.99 0.67,-17.99 0.5,-27c-16.33,0 -32.67,0 -49,0c0,-12.33 0,-24.67 0,-37c31,0 62,0 93,0c0.17,29 0,58 -0.5,87c-37.42,28.81 -79.25,37.98 -125.5,27.5c-38.17,-11.84 -61.34,-37.34 -69.5,-76.5c-7.42,-33.83 -2.75,-65.83 14,-96c17.65,-26.07 42.15,-40.74 73.5,-44z" fill="#6aa943" id="svg_104" opacity="0.98"/>
  </g>
  <g id="svg_105">
   <path d="m327.5,4.5c25.38,-2.49 49.38,2.01 72,13.5c17.74,11.91 28.41,28.41 32,49.5c-13.86,2.47 -27.69,5.14 -41.5,8c-8.83,-21.78 -25.16,-33.12 -49,-34c-33.98,2.32 -53.65,20.32 -59,54c-2.63,19.83 -0.63,39.16 6,58c13,26.26 34.17,37.42 63.5,33.5c14.09,-2.63 26.93,-8.13 38.5,-16.5c0.5,-8.99 0.67,-17.99 0.5,-27c-16.33,0 -32.67,0 -49,0c0,-12.33 0,-24.67 0,-37c31,0 62,0 93,0c0.17,29 0,58 -0.5,87c-37.41,28.81 -79.24,37.97 -125.5,27.5c-38.14,-11.81 -61.31,-37.31 -69.5,-76.5c-7.26,-33.82 -2.6,-65.82 14,-96c17.89,-26.36 42.72,-41.03 74.5,-44z" fill="#6aa841" id="svg_106" opacity="0.98"/>
  </g>
  <g id="svg_107">
   <path d="m608.5,4.5c18.66,-1.23 36.99,0.61 55,5.5c26.71,9.88 43.38,28.71 50,56.5c-14.05,3.48 -28.21,6.48 -42.5,9c-11.74,-26.96 -32.24,-37.79 -61.5,-32.5c-25.8,6.14 -40.97,22.31 -45.5,48.5c-2.45,17.79 -1.78,35.46 2,53c10.93,32.23 33.43,46.39 67.5,42.5c14.3,-2.76 27.13,-8.59 38.5,-17.5c0.5,-8.66 0.67,-17.33 0.5,-26c-16.33,0 -32.67,0 -49,0c0,-12.33 0,-24.67 0,-37c31,0 62,0 93,0c0.17,28.67 0,57.34 -0.5,86c-20.4,17.11 -43.9,27.61 -70.5,31.5c-28.12,4.31 -54.78,-0.02 -80,-13c-24.59,-15.96 -39.75,-38.46 -45.5,-67.5c-7,-33.98 -2,-65.98 15,-96c17.96,-25.45 42.46,-39.78 73.5,-43z" fill="#505151" id="svg_108" opacity="0.98"/>
  </g>
  <g id="svg_115">
   <path d="m822.5,62.5c6.08,0.23 12.08,1.06 18,2.5c4.93,1.13 9.26,3.3 13,6.5c-4.6,11.96 -9.1,23.96 -13.5,36c-11.23,-8.51 -22.73,-9.01 -34.5,-1.5c-7.45,10.96 -10.95,23.13 -10.5,36.5c-0.5,26.33 -0.67,52.66 -0.5,79c-14,0 -28,0 -42,0c0,-51.67 0,-103.33 0,-155c13,0 26,0 39,0c-0.17,6.34 0,12.68 0.5,19c4.42,-6.43 9.59,-12.26 15.5,-17.5c4.8,-2.76 9.8,-4.6 15,-5.5z" fill="#505151" id="svg_116" opacity="0.97"/>
  </g>
  <g id="svg_117">
   <path d="m934.5,62.5c48.48,0.31 76.65,24.31 84.5,72c3.23,35.37 -9.94,62.54 -39.5,81.5c-31.96,14.48 -62.62,12.14 -92,-7c-19.52,-17.7 -28.86,-39.87 -28,-66.5c3.15,-47.47 28.15,-74.14 75,-80zm3,34c19.1,0.93 31.26,10.59 36.5,29c4.64,17.81 2.64,34.81 -6,51c-12.49,15.1 -27.66,18.6 -45.5,10.5c-14.41,-10.34 -21.08,-24.51 -20,-42.5c-1.08,-17.66 5.25,-31.83 19,-42.5c5.09,-2.97 10.42,-4.81 16,-5.5z" fill="#505151" id="svg_118" opacity="0.98"/>
  </g>
  <g id="svg_119">
   <path d="m1312.5,62.5c37.61,2.1 59.77,21.77 66.5,59c3.52,22.22 1.52,43.89 -6,65c-15.24,31.54 -40.08,43.7 -74.5,36.5c-10.47,-3.8 -19.3,-9.97 -26.5,-18.5c-0.5,25.33 -0.67,50.66 -0.5,76c-14,0 -28,0 -42,0c0,-71.33 0,-142.67 0,-214c13,0 26,0 39,0c-0.17,7.01 0,14.01 0.5,21c10.91,-14.7 25.41,-23.04 43.5,-25zm-10,33c17.99,1.24 29.16,10.57 33.5,28c3.29,14 3.29,28 0,42c-6.84,23.2 -21.67,31.04 -44.5,23.5c-10.03,-6.05 -16.19,-14.88 -18.5,-26.5c-3.28,-13.34 -3.28,-26.67 0,-40c4.68,-14.86 14.52,-23.86 29.5,-27z" fill="#505151" id="svg_120" opacity="0.98"/>
  </g>
  <g id="svg_121">
   <path d="m1050.5,66.5c13.67,0 27.33,0 41,0c-0.42,35.69 0.08,71.35 1.5,107c2.44,12.93 10.27,19.6 23.5,20c14.06,-0.6 23.9,-7.27 29.5,-20c1.98,-10.56 2.98,-21.23 3,-32c0.5,-25 0.67,-50 0.5,-75c13.67,0 27.33,0 41,0c0,51.67 0,103.33 0,155c-12.67,0 -25.33,0 -38,0c0.17,-7.34 0,-14.67 -0.5,-22c-18.66,23.55 -42.5,31.05 -71.5,22.5c-18.25,-7.31 -28.08,-20.81 -29.5,-40.5c-0.5,-38.33 -0.67,-76.67 -0.5,-115z" fill="#505151" id="svg_122" opacity="0.99"/>
  </g>
  <g id="svg_165">
   <path d="m99.5,342.5c13.54,-1.22 24.37,3.44 32.5,14c1.87,3.11 3.03,6.44 3.5,10c-4.51,0.92 -9.01,1.92 -13.5,3c-2.59,-2.98 -5.09,-6.15 -7.5,-9.5c-13.93,-6.56 -23.76,-2.73 -29.5,11.5c-2.08,9.09 -1.75,18.09 1,27c4.99,9.91 12.83,13.41 23.5,10.5c2.6,-0.88 4.77,-2.38 6.5,-4.5c2.31,-3.42 4.14,-7.09 5.5,-11c5.1,1.69 10.1,3.52 15,5.5c-8.27,22.3 -23.94,29.97 -47,23c-12.12,-5.72 -19.28,-15.22 -21.5,-28.5c-2.82,-15.55 0.68,-29.38 10.5,-41.5c6.16,-5.21 13.16,-8.38 21,-9.5z" fill="#545556" id="svg_166" opacity="0.96"/>
  </g>
  <g id="svg_167">
   <path d="m508.5,342.5c5.71,-0.33 11.37,0 17,1c-4.85,5.02 -9.52,10.18 -14,15.5c-3.38,0.82 -6.72,0.66 -10,-0.5c2.35,-5.35 4.68,-10.69 7,-16z" fill="#545556" id="svg_168" opacity="0.88"/>
  </g>
  <g id="svg_169">
   <path d="m809.5,342.5c18.3,-1.69 30.64,5.97 37,23c-4.53,1.71 -9.19,3.04 -14,4c-2.53,-3.18 -5.19,-6.35 -8,-9.5c-15.58,-6.79 -25.42,-1.96 -29.5,14.5c-1.07,8.49 -0.4,16.83 2,25c5.16,9.59 13,12.76 23.5,9.5c6.14,-3.47 9.97,-8.64 11.5,-15.5c4.45,1.57 8.95,3.07 13.5,4.5c-1.28,12.79 -8.28,21.12 -21,25c-29.26,3.92 -44.92,-8.91 -47,-38.5c-0.33,-22.77 10.34,-36.77 32,-42z" fill="#545556" id="svg_170" opacity="0.95"/>
  </g>
  <g id="svg_171">
   <path d="m660.5,344.5c5.33,0 10.67,0 16,0c0,26 0,52 0,78c-5,0 -10,0 -15,0c0.16,-2.03 0,-4.03 -0.5,-6c-12.33,11.14 -24,10.48 -35,-2c-7.33,-13.67 -7.33,-27.33 0,-41c6.4,-7.8 14.57,-10.63 24.5,-8.5c3.66,1 6.83,2.84 9.5,5.5c0.5,-8.66 0.67,-17.33 0.5,-26zm-16,32c8.19,-1.31 13.36,2.03 15.5,10c0.86,6.09 0.53,12.09 -1,18c-4.01,7.67 -9.84,9.5 -17.5,5.5c-2.15,-2.47 -3.65,-5.3 -4.5,-8.5c-1.1,-6.88 -0.43,-13.55 2,-20c1.73,-1.9 3.56,-3.57 5.5,-5z" fill="#545556" id="svg_172" opacity="0.95"/>
  </g>
  <g id="svg_173">
   <path d="m925.5,344.5c5,0 10,0 15,0c-0.17,9.01 0,18.01 0.5,27c8.08,-7.53 17.25,-9.03 27.5,-4.5c8.72,6.61 12.72,15.44 12,26.5c0.7,10.41 -2.64,19.25 -10,26.5c-11.45,6.98 -21.61,5.48 -30.5,-4.5c-0.5,2.31 -0.66,4.64 -0.5,7c-4.67,0 -9.33,0 -14,0c0,-26 0,-52 0,-78zm24,32c9.57,-0.93 14.74,3.4 15.5,13c1.47,8.38 -0.7,15.55 -6.5,21.5c-8.28,2.61 -13.78,-0.22 -16.5,-8.5c-2.3,-7.61 -1.63,-14.95 2,-22c1.81,-1.48 3.65,-2.81 5.5,-4z" fill="#545556" id="svg_174" opacity="0.97"/>
  </g>
  <g id="svg_175">
   <path d="m453.5,345.5c6.42,0.62 12.59,2.29 18.5,5c2.15,-0.82 3.65,-2.32 4.5,-4.5c2.31,-0.5 4.64,-0.66 7,-0.5c1.12,9.99 -3.21,14.49 -13,13.5c-4.46,-1.65 -8.96,-3.15 -13.5,-4.5c-1.85,0.67 -3.01,2 -3.5,4c-2.24,0.97 -4.58,1.31 -7,1c-1.31,-6.71 1.02,-11.37 7,-14z" fill="#545556" id="svg_176" opacity="0.91"/>
  </g>
  <g id="svg_177">
   <path d="m167.5,364.5c29.21,-0.59 40.71,13.41 34.5,42c-8.74,16.11 -21.91,21.28 -39.5,15.5c-12.03,-5.39 -17.7,-14.72 -17,-28c0.4,-15.21 7.74,-25.04 22,-29.5zm4,12c8.08,-0.38 13.25,3.29 15.5,11c1.44,7.2 0.27,13.87 -3.5,20c-6.75,5.51 -13.25,5.18 -19.5,-1c-4.23,-7.48 -4.56,-15.15 -1,-23c2.46,-2.98 5.3,-5.31 8.5,-7z" fill="#545556" id="svg_178" opacity="0.96"/>
  </g>
  <g id="svg_179">
   <path d="m238.5,364.5c9.11,-1.85 16.44,0.81 22,8c7.96,-8.39 17.29,-10.23 28,-5.5c3.37,2.36 5.54,5.53 6.5,9.5c0.5,15.33 0.67,30.66 0.5,46c-5,0 -10,0 -15,0c0.41,-14.38 -0.09,-28.72 -1.5,-43c-7.78,-5.13 -13.11,-3.13 -16,6c-0.5,12.33 -0.67,24.66 -0.5,37c-5.33,0 -10.67,0 -16,0c0.17,-13.67 0,-27.34 -0.5,-41c-0.85,-3.6 -3.18,-5.27 -7,-5c-4.73,0.07 -7.73,2.4 -9,7c-1.4,12.95 -1.9,25.95 -1.5,39c-5,0 -10,0 -15,0c0,-19 0,-38 0,-57c4.67,0 9.33,0 14,0c-0.16,2.03 0,4.03 0.5,6c3.15,-3.01 6.65,-5.34 10.5,-7z" fill="#545556" id="svg_180" opacity="0.97"/>
  </g>
  <g id="svg_181">
   <path d="m337.5,364.5c15.56,-1.27 25.06,5.73 28.5,21c2.08,11.19 0.08,21.53 -6,31c-11.07,10.59 -22.07,10.59 -33,0c-0.5,9.33 -0.67,18.66 -0.5,28c-5,0 -10,0 -15,0c0,-26.33 0,-52.67 0,-79c4.67,0 9.33,0 14,0c-0.16,2.36 0,4.69 0.5,7c3.48,-3.34 7.32,-6.01 11.5,-8zm-2,12c9.57,-0.93 14.74,3.4 15.5,13c1.47,8.38 -0.7,15.55 -6.5,21.5c-8.28,2.61 -13.78,-0.22 -16.5,-8.5c-2.15,-6.8 -1.82,-13.47 1,-20c1.49,-2.81 3.66,-4.81 6.5,-6z" fill="#545556" id="svg_182" opacity="0.97"/>
  </g>
  <g id="svg_183">
   <path d="m390.5,364.5c7.41,-0.35 14.74,0.15 22,1.5c3.77,1.44 6.61,3.94 8.5,7.5c1.27,12.26 1.94,24.6 2,37c0.11,4.01 1.28,7.67 3.5,11c-5.29,0.99 -10.63,1.33 -16,1c0.01,-1.81 -0.49,-3.48 -1.5,-5c-9.58,8.08 -19.75,8.92 -30.5,2.5c-5.57,-6.92 -6.4,-14.42 -2.5,-22.5c1.87,-2.21 4.04,-4.04 6.5,-5.5c7.95,-2.36 15.95,-4.52 24,-6.5c1.29,-3.64 0.29,-6.48 -3,-8.5c-6.98,-2.17 -11.98,-0.01 -15,6.5c-4.27,-1.04 -8.6,-1.71 -13,-2c1.55,-8.81 6.55,-14.48 15,-17zm15,31c3.86,9.08 0.86,15.08 -9,18c-6.69,-1.71 -8.85,-5.71 -6.5,-12c4.97,-2.69 10.13,-4.69 15.5,-6z" fill="#545556" id="svg_184" opacity="0.96"/>
  </g>
  <g id="svg_185">
   <path d="m463.5,364.5c9.6,-1.97 17.43,0.7 23.5,8c0.92,2.6 1.59,5.27 2,8c0.5,14 0.67,28 0.5,42c-5.33,0 -10.67,0 -16,0c0.17,-13.34 0,-26.67 -0.5,-40c-1.16,-4.33 -3.99,-6.33 -8.5,-6c-4.95,0.11 -8.45,2.44 -10.5,7c-1.38,12.95 -1.88,25.95 -1.5,39c-5,0 -10,0 -15,0c0,-19 0,-38 0,-57c4.67,0 9.33,0 14,0c-0.16,2.69 0,5.35 0.5,8c0.47,-1.43 1.3,-2.6 2.5,-3.5c3.06,-1.86 6.06,-3.69 9,-5.5z" fill="#545556" id="svg_186" opacity="0.96"/>
  </g>
  <g id="svg_187">
   <path d="m547.5,364.5c6.01,-0.17 12.01,0 18,0.5c8.3,1.3 12.8,6.13 13.5,14.5c0.33,11.67 0.67,23.33 1,35c0.76,2.7 1.93,5.2 3.5,7.5c-5.36,0.83 -10.7,0.66 -16,-0.5c-0.48,-1.43 -1.14,-2.76 -2,-4c-11.56,9.65 -22.72,9.32 -33.5,-1c-4.91,-11.6 -1.75,-20.1 9.5,-25.5c6.7,-1.54 13.37,-3.21 20,-5c3.33,-6.39 1.16,-9.56 -6.5,-9.5c-2.3,-0.01 -4.47,0.49 -6.5,1.5c-0.98,2.14 -2.31,3.97 -4,5.5c-4.39,-0.72 -8.73,-1.72 -13,-3c2.42,-8.42 7.75,-13.75 16,-16zm14,31c1.29,1.37 1.95,3.2 2,5.5c-0.58,9.79 -5.58,13.45 -15,11c-4.52,-5.22 -3.85,-9.55 2,-13c3.93,-0.72 7.59,-1.89 11,-3.5z" fill="#545556" id="svg_188" opacity="0.95"/>
  </g>
  <g id="svg_189">
   <path d="m705.5,364.5c24.26,-1.74 35.59,9.59 34,34c-12.67,0 -25.33,0 -38,0c1.52,11.08 7.52,15.08 18,12c1.53,-1.69 2.86,-3.53 4,-5.5c4.35,-0.24 8.68,0.1 13,1c0.81,0.31 1.47,0.81 2,1.5c-6.91,14.62 -18.24,19.79 -34,15.5c-9.84,-2.82 -15.68,-9.32 -17.5,-19.5c-2.08,-11.19 -0.08,-21.53 6,-31c3.67,-3.58 7.84,-6.24 12.5,-8zm4,12c9.62,-1.02 14.62,3.31 15,13c-7.33,0 -14.67,0 -22,0c-0.53,-5.94 1.8,-10.27 7,-13z" fill="#545556" id="svg_190" opacity="0.96"/>
  </g>
  <g id="svg_191">
   <path d="m877.5,364.5c29.21,-0.59 40.71,13.41 34.5,42c-8.74,16.11 -21.91,21.28 -39.5,15.5c-12.03,-5.39 -17.7,-14.72 -17,-28c0.4,-15.21 7.74,-25.04 22,-29.5zm4,12c8.08,-0.38 13.25,3.29 15.5,11c1.44,7.2 0.27,13.87 -3.5,20c-6.75,5.51 -13.25,5.18 -19.5,-1c-4.23,-7.48 -4.56,-15.15 -1,-23c2.46,-2.98 5.3,-5.31 8.5,-7z" fill="#545556" id="svg_192" opacity="0.96"/>
  </g>
  <g id="svg_193">
   <path d="m1013.5,364.5c3.35,-0.17 6.68,0 10,0.5c1.72,0.52 3.06,1.52 4,3c-1.18,4.38 -2.85,8.54 -5,12.5c-5.66,-3.46 -10.16,-2.46 -13.5,3c-1.07,3.58 -1.74,7.25 -2,11c-0.5,9.33 -0.67,18.66 -0.5,28c-5,0 -10,0 -15,0c0,-19 0,-38 0,-57c4.67,0 9.33,0 14,0c-0.16,2.36 0,4.69 0.5,7c2.03,-3.19 4.53,-5.86 7.5,-8z" fill="#545556" id="svg_194" opacity="0.97"/>
  </g>
  <g id="svg_195">
   <path d="m1046.5,364.5c7.41,-0.35 14.74,0.15 22,1.5c3.77,1.44 6.61,3.94 8.5,7.5c1.27,12.26 1.94,24.6 2,37c0.11,4.01 1.28,7.67 3.5,11c-5.29,0.99 -10.63,1.33 -16,1c0.01,-1.81 -0.49,-3.48 -1.5,-5c-9.58,8.08 -19.75,8.92 -30.5,2.5c-5.57,-6.92 -6.4,-14.42 -2.5,-22.5c1.87,-2.21 4.04,-4.04 6.5,-5.5c7.95,-2.36 15.95,-4.52 24,-6.5c1.29,-3.64 0.29,-6.48 -3,-8.5c-6.98,-2.17 -11.98,-0.01 -15,6.5c-4.27,-1.04 -8.6,-1.71 -13,-2c1.55,-8.81 6.55,-14.48 15,-17zm15,31c3.86,9.08 0.86,15.08 -9,18c-6.69,-1.71 -8.85,-5.71 -6.5,-12c4.97,-2.69 10.13,-4.69 15.5,-6z" fill="#545556" id="svg_196" opacity="0.96"/>
  </g>
  <g id="svg_197">
   <path d="m1120.5,364.5c6.72,-0.75 13.05,0.42 19,3.5c2.12,1.73 3.62,3.9 4.5,6.5c1.45,15.93 1.95,31.93 1.5,48c-5,0 -10,0 -15,0c0.41,-13.72 -0.09,-27.38 -1.5,-41c-1.53,-3.43 -4.2,-5.1 -8,-5c-6.02,0.17 -9.69,3.17 -11,9c-0.5,12.33 -0.67,24.66 -0.5,37c-5.33,0 -10.67,0 -16,0c0,-19 0,-38 0,-57c5,0 10,0 15,0c-0.16,2.36 0,4.69 0.5,7c3.15,-3.81 6.98,-6.48 11.5,-8z" fill="#545556" id="svg_198" opacity="0.96"/>
  </g>
  <g id="svg_199">
   <path d="m1227.5,364.5c6.01,-0.17 12.01,0 18,0.5c8.3,1.3 12.8,6.13 13.5,14.5c0.33,11.67 0.67,23.33 1,35c0.76,2.7 1.93,5.2 3.5,7.5c-5.36,0.83 -10.7,0.66 -16,-0.5c-0.48,-1.43 -1.14,-2.76 -2,-4c-11.56,9.65 -22.72,9.32 -33.5,-1c-4.91,-11.6 -1.75,-20.1 9.5,-25.5c6.7,-1.54 13.37,-3.21 20,-5c3.33,-6.39 1.16,-9.56 -6.5,-9.5c-2.3,-0.01 -4.47,0.49 -6.5,1.5c-0.98,2.14 -2.31,3.97 -4,5.5c-4.39,-0.72 -8.73,-1.72 -13,-3c2.42,-8.42 7.75,-13.75 16,-16zm14,31c1.29,1.37 1.95,3.2 2,5.5c-0.58,9.79 -5.58,13.45 -15,11c-4.52,-5.22 -3.85,-9.55 2,-13c3.93,-0.72 7.59,-1.89 11,-3.5z" fill="#545556" id="svg_200" opacity="0.95"/>
  </g>
  <g id="svg_201">
   <path d="m1286.5,364.5c8.5,-0.57 16.83,0.27 25,2.5c5.32,3.01 7.98,7.34 8,13c-4.08,0.52 -8.08,1.35 -12,2.5c-4.24,-6.61 -10.24,-8.78 -18,-6.5c-4.78,1.86 -5.12,4.19 -1,7c9.55,2.39 18.88,5.39 28,9c5.62,4.97 7.45,11.14 5.5,18.5c-5.32,9.83 -13.66,14.5 -25,14c-8.76,0.3 -16.42,-2.36 -23,-8c-2.32,-2.98 -3.82,-6.31 -4.5,-10c4.72,-0.34 9.39,-1.01 14,-2c4.43,8.09 11.09,10.59 20,7.5c4,-1.98 4.67,-4.65 2,-8c-9.64,-2.08 -18.97,-5.08 -28,-9c-6.54,-6.6 -7.71,-14.1 -3.5,-22.5c3.38,-4.09 7.54,-6.76 12.5,-8z" fill="#545556" id="svg_202" opacity="0.95"/>
  </g>
  <g id="svg_203">
   <path d="m503.5,365.5c5.33,0 10.67,0 16,0c0,19 0,38 0,57c-5.33,0 -10.67,0 -16,0c0,-19 0,-38 0,-57z" fill="#545556" id="svg_204" opacity="0.93"/>
  </g>
  <g id="svg_205">
   <path d="m1156.5,365.5c15.67,0 31.33,0 47,0c0.17,4.01 0,8.01 -0.5,12c-9.13,10.8 -18.63,21.3 -28.5,31.5c10.33,0.5 20.66,0.67 31,0.5c0,4.33 0,8.67 0,13c-17,0 -34,0 -51,0c-0.17,-4.35 0,-8.68 0.5,-13c8.83,-10.17 17.67,-20.33 26.5,-30.5c-8.33,-0.5 -16.66,-0.67 -25,-0.5c0,-4.33 0,-8.67 0,-13z" fill="#545556" id="svg_206" opacity="0.96"/>
  </g>
 </g>
</svg>